%TF.GenerationSoftware,KiCad,Pcbnew,8.0.4*%
%TF.CreationDate,2024-09-18T10:13:05+03:00*%
%TF.ProjectId,Digital Electronic Trainer main pcb,44696769-7461-46c2-9045-6c656374726f,rev?*%
%TF.SameCoordinates,Original*%
%TF.FileFunction,Legend,Bot*%
%TF.FilePolarity,Positive*%
%FSLAX46Y46*%
G04 Gerber Fmt 4.6, Leading zero omitted, Abs format (unit mm)*
G04 Created by KiCad (PCBNEW 8.0.4) date 2024-09-18 10:13:05*
%MOMM*%
%LPD*%
G01*
G04 APERTURE LIST*
%ADD10C,0.150000*%
%ADD11C,0.120000*%
%ADD12C,0.127000*%
%ADD13C,0.050800*%
%ADD14C,0.200000*%
G04 APERTURE END LIST*
D10*
X16154819Y-84177142D02*
X15678628Y-83843809D01*
X16154819Y-83605714D02*
X15154819Y-83605714D01*
X15154819Y-83605714D02*
X15154819Y-83986666D01*
X15154819Y-83986666D02*
X15202438Y-84081904D01*
X15202438Y-84081904D02*
X15250057Y-84129523D01*
X15250057Y-84129523D02*
X15345295Y-84177142D01*
X15345295Y-84177142D02*
X15488152Y-84177142D01*
X15488152Y-84177142D02*
X15583390Y-84129523D01*
X15583390Y-84129523D02*
X15631009Y-84081904D01*
X15631009Y-84081904D02*
X15678628Y-83986666D01*
X15678628Y-83986666D02*
X15678628Y-83605714D01*
X15154819Y-85081904D02*
X15154819Y-84605714D01*
X15154819Y-84605714D02*
X15631009Y-84558095D01*
X15631009Y-84558095D02*
X15583390Y-84605714D01*
X15583390Y-84605714D02*
X15535771Y-84700952D01*
X15535771Y-84700952D02*
X15535771Y-84939047D01*
X15535771Y-84939047D02*
X15583390Y-85034285D01*
X15583390Y-85034285D02*
X15631009Y-85081904D01*
X15631009Y-85081904D02*
X15726247Y-85129523D01*
X15726247Y-85129523D02*
X15964342Y-85129523D01*
X15964342Y-85129523D02*
X16059580Y-85081904D01*
X16059580Y-85081904D02*
X16107200Y-85034285D01*
X16107200Y-85034285D02*
X16154819Y-84939047D01*
X16154819Y-84939047D02*
X16154819Y-84700952D01*
X16154819Y-84700952D02*
X16107200Y-84605714D01*
X16107200Y-84605714D02*
X16059580Y-84558095D01*
X15250057Y-85510476D02*
X15202438Y-85558095D01*
X15202438Y-85558095D02*
X15154819Y-85653333D01*
X15154819Y-85653333D02*
X15154819Y-85891428D01*
X15154819Y-85891428D02*
X15202438Y-85986666D01*
X15202438Y-85986666D02*
X15250057Y-86034285D01*
X15250057Y-86034285D02*
X15345295Y-86081904D01*
X15345295Y-86081904D02*
X15440533Y-86081904D01*
X15440533Y-86081904D02*
X15583390Y-86034285D01*
X15583390Y-86034285D02*
X16154819Y-85462857D01*
X16154819Y-85462857D02*
X16154819Y-86081904D01*
X19654819Y-84177142D02*
X19178628Y-83843809D01*
X19654819Y-83605714D02*
X18654819Y-83605714D01*
X18654819Y-83605714D02*
X18654819Y-83986666D01*
X18654819Y-83986666D02*
X18702438Y-84081904D01*
X18702438Y-84081904D02*
X18750057Y-84129523D01*
X18750057Y-84129523D02*
X18845295Y-84177142D01*
X18845295Y-84177142D02*
X18988152Y-84177142D01*
X18988152Y-84177142D02*
X19083390Y-84129523D01*
X19083390Y-84129523D02*
X19131009Y-84081904D01*
X19131009Y-84081904D02*
X19178628Y-83986666D01*
X19178628Y-83986666D02*
X19178628Y-83605714D01*
X18654819Y-85081904D02*
X18654819Y-84605714D01*
X18654819Y-84605714D02*
X19131009Y-84558095D01*
X19131009Y-84558095D02*
X19083390Y-84605714D01*
X19083390Y-84605714D02*
X19035771Y-84700952D01*
X19035771Y-84700952D02*
X19035771Y-84939047D01*
X19035771Y-84939047D02*
X19083390Y-85034285D01*
X19083390Y-85034285D02*
X19131009Y-85081904D01*
X19131009Y-85081904D02*
X19226247Y-85129523D01*
X19226247Y-85129523D02*
X19464342Y-85129523D01*
X19464342Y-85129523D02*
X19559580Y-85081904D01*
X19559580Y-85081904D02*
X19607200Y-85034285D01*
X19607200Y-85034285D02*
X19654819Y-84939047D01*
X19654819Y-84939047D02*
X19654819Y-84700952D01*
X19654819Y-84700952D02*
X19607200Y-84605714D01*
X19607200Y-84605714D02*
X19559580Y-84558095D01*
X19654819Y-86081904D02*
X19654819Y-85510476D01*
X19654819Y-85796190D02*
X18654819Y-85796190D01*
X18654819Y-85796190D02*
X18797676Y-85700952D01*
X18797676Y-85700952D02*
X18892914Y-85605714D01*
X18892914Y-85605714D02*
X18940533Y-85510476D01*
D11*
%TO.C,R12*%
X135280000Y-143000000D02*
X135280000Y-152240000D01*
X135280000Y-152240000D02*
X138720000Y-152240000D01*
X137000000Y-143000000D02*
X137000000Y-141040000D01*
X137000000Y-152240000D02*
X137000000Y-154200000D01*
X138720000Y-143000000D02*
X135280000Y-143000000D01*
X138720000Y-152240000D02*
X138720000Y-143000000D01*
%TO.C,Q12*%
X110150000Y-84430000D02*
X110150000Y-88030000D01*
X110161522Y-84391522D02*
G75*
G02*
X114600001Y-86230000I1838478J-1838478D01*
G01*
X114600000Y-86230000D02*
G75*
G02*
X110161522Y-88068478I-2600000J0D01*
G01*
%TO.C,RV1*%
X187330000Y-149980000D02*
X187330000Y-151630000D01*
X187330000Y-153370000D02*
X187330000Y-154129000D01*
X187330000Y-155870000D02*
X187330000Y-156250000D01*
X187330000Y-158700000D02*
X187330000Y-160021000D01*
X191267000Y-149980000D02*
X187330000Y-149980000D01*
X191267000Y-160021000D02*
X187330000Y-160021000D01*
X199570000Y-149980000D02*
X195634000Y-149980000D01*
X199570000Y-149980000D02*
X199570000Y-160021000D01*
X199570000Y-160021000D02*
X195634000Y-160021000D01*
%TO.C,R3*%
X50780000Y-143000000D02*
X50780000Y-152240000D01*
X50780000Y-152240000D02*
X54220000Y-152240000D01*
X52500000Y-143000000D02*
X52500000Y-141040000D01*
X52500000Y-152240000D02*
X52500000Y-154200000D01*
X54220000Y-143000000D02*
X50780000Y-143000000D01*
X54220000Y-152240000D02*
X54220000Y-143000000D01*
%TO.C,R22*%
X72280000Y-77500000D02*
X72280000Y-86740000D01*
X72280000Y-86740000D02*
X75720000Y-86740000D01*
X74000000Y-77500000D02*
X74000000Y-75540000D01*
X74000000Y-86740000D02*
X74000000Y-88700000D01*
X75720000Y-77500000D02*
X72280000Y-77500000D01*
X75720000Y-86740000D02*
X75720000Y-77500000D01*
%TO.C,D38*%
X83430000Y-116530000D02*
X83430000Y-119470000D01*
X83430000Y-118000000D02*
X80940000Y-118000000D01*
X83430000Y-119470000D02*
X88870000Y-119470000D01*
X87850000Y-119470000D02*
X87850000Y-116530000D01*
X87970000Y-119470000D02*
X87970000Y-116530000D01*
X88090000Y-119470000D02*
X88090000Y-116530000D01*
X88870000Y-116530000D02*
X83430000Y-116530000D01*
X88870000Y-118000000D02*
X91360000Y-118000000D01*
X88870000Y-119470000D02*
X88870000Y-116530000D01*
%TO.C,Q1*%
X55650000Y-151930000D02*
X55650000Y-155530000D01*
X55661522Y-151891522D02*
G75*
G02*
X60100001Y-153730000I1838478J-1838478D01*
G01*
X60100000Y-153730000D02*
G75*
G02*
X55661522Y-155568478I-2600000J0D01*
G01*
D12*
%TO.C,Q17*%
X38563000Y-147838000D02*
X38563000Y-146822000D01*
X39623500Y-146822000D02*
X38563000Y-146822000D01*
X39623500Y-147838000D02*
X38563000Y-147838000D01*
D13*
X41571100Y-145103000D02*
G75*
G02*
X43428900Y-145103000I928900J-2226996D01*
G01*
X43429000Y-149557100D02*
G75*
G02*
X40273000Y-146401100I-928900J2227100D01*
G01*
X44727000Y-146401100D02*
G75*
G02*
X44727000Y-148258900I-2227000J-928900D01*
G01*
D12*
X45421000Y-147330000D02*
G75*
G02*
X39579000Y-147330000I-2921000J0D01*
G01*
X39579000Y-147330000D02*
G75*
G02*
X45421000Y-147330000I2921000J0D01*
G01*
D11*
%TO.C,Q2*%
X70650000Y-151930000D02*
X70650000Y-155530000D01*
X70661522Y-151891522D02*
G75*
G02*
X75100001Y-153730000I1838478J-1838478D01*
G01*
X75100000Y-153730000D02*
G75*
G02*
X70661522Y-155568478I-2600000J0D01*
G01*
%TO.C,Q10*%
X79010000Y-84200000D02*
X79010000Y-87800000D01*
X79021522Y-84161522D02*
G75*
G02*
X83460001Y-86000000I1838478J-1838478D01*
G01*
X83460000Y-86000000D02*
G75*
G02*
X79021522Y-87838478I-2600000J0D01*
G01*
%TO.C,R8*%
X105780000Y-137880000D02*
X105780000Y-147120000D01*
X105780000Y-147120000D02*
X109220000Y-147120000D01*
X107500000Y-137880000D02*
X107500000Y-135920000D01*
X107500000Y-147120000D02*
X107500000Y-149080000D01*
X109220000Y-137880000D02*
X105780000Y-137880000D01*
X109220000Y-147120000D02*
X109220000Y-137880000D01*
%TO.C,R11*%
X124780000Y-145600000D02*
X124780000Y-154840000D01*
X124780000Y-154840000D02*
X128220000Y-154840000D01*
X126500000Y-145600000D02*
X126500000Y-143640000D01*
X126500000Y-154840000D02*
X126500000Y-156800000D01*
X128220000Y-145600000D02*
X124780000Y-145600000D01*
X128220000Y-154840000D02*
X128220000Y-145600000D01*
%TO.C,D20*%
X87955000Y-99290000D02*
X91045000Y-99290000D01*
X87955170Y-99290000D02*
G75*
G02*
X89500462Y-93740000I1544830J2560000D01*
G01*
X89499538Y-93740000D02*
G75*
G02*
X91044830Y-99290000I462J-2990000D01*
G01*
X92000000Y-96730000D02*
G75*
G02*
X87000000Y-96730000I-2500000J0D01*
G01*
X87000000Y-96730000D02*
G75*
G02*
X92000000Y-96730000I2500000J0D01*
G01*
%TO.C,U3*%
X116050000Y-118540000D02*
X116050000Y-123840000D01*
X116050000Y-123840000D02*
X126330000Y-123840000D01*
X126330000Y-118540000D02*
X116050000Y-118540000D01*
X126330000Y-120190000D02*
X126330000Y-118540000D01*
X126330000Y-123840000D02*
X126330000Y-122190000D01*
X126330000Y-122190000D02*
G75*
G02*
X126330000Y-120190000I0J1000000D01*
G01*
%TO.C,C2*%
X123120000Y-102500000D02*
G75*
G02*
X112880000Y-102500000I-5120000J0D01*
G01*
X112880000Y-102500000D02*
G75*
G02*
X123120000Y-102500000I5120000J0D01*
G01*
%TO.C,R40*%
X137760000Y-107740000D02*
X137760000Y-111180000D01*
X137760000Y-109460000D02*
X135800000Y-109460000D01*
X137760000Y-111180000D02*
X147000000Y-111180000D01*
X147000000Y-107740000D02*
X137760000Y-107740000D01*
X147000000Y-109460000D02*
X148960000Y-109460000D01*
X147000000Y-111180000D02*
X147000000Y-107740000D01*
%TO.C,C6*%
X140120000Y-122500000D02*
G75*
G02*
X129880000Y-122500000I-5120000J0D01*
G01*
X129880000Y-122500000D02*
G75*
G02*
X140120000Y-122500000I5120000J0D01*
G01*
%TO.C,R32*%
X151780000Y-77260000D02*
X151780000Y-86500000D01*
X151780000Y-86500000D02*
X155220000Y-86500000D01*
X153500000Y-77260000D02*
X153500000Y-75300000D01*
X153500000Y-86500000D02*
X153500000Y-88460000D01*
X155220000Y-77260000D02*
X151780000Y-77260000D01*
X155220000Y-86500000D02*
X155220000Y-77260000D01*
%TO.C,R42*%
X110780000Y-119220000D02*
X110780000Y-128460000D01*
X110780000Y-128460000D02*
X114220000Y-128460000D01*
X112500000Y-119220000D02*
X112500000Y-117260000D01*
X112500000Y-128460000D02*
X112500000Y-130420000D01*
X114220000Y-119220000D02*
X110780000Y-119220000D01*
X114220000Y-128460000D02*
X114220000Y-119220000D01*
%TO.C,R17*%
X170780000Y-145480000D02*
X170780000Y-154720000D01*
X170780000Y-154720000D02*
X174220000Y-154720000D01*
X172500000Y-145480000D02*
X172500000Y-143520000D01*
X172500000Y-154720000D02*
X172500000Y-156680000D01*
X174220000Y-145480000D02*
X170780000Y-145480000D01*
X174220000Y-154720000D02*
X174220000Y-145480000D01*
%TO.C,RV2*%
X188380000Y-127480000D02*
X188380000Y-129130000D01*
X188380000Y-130870000D02*
X188380000Y-131629000D01*
X188380000Y-133370000D02*
X188380000Y-133750000D01*
X188380000Y-136200000D02*
X188380000Y-137521000D01*
X192317000Y-127480000D02*
X188380000Y-127480000D01*
X192317000Y-137521000D02*
X188380000Y-137521000D01*
X200620000Y-127480000D02*
X196684000Y-127480000D01*
X200620000Y-127480000D02*
X200620000Y-137521000D01*
X200620000Y-137521000D02*
X196684000Y-137521000D01*
%TO.C,D37*%
X83430000Y-109530000D02*
X83430000Y-112470000D01*
X83430000Y-111000000D02*
X80940000Y-111000000D01*
X83430000Y-112470000D02*
X88870000Y-112470000D01*
X87850000Y-112470000D02*
X87850000Y-109530000D01*
X87970000Y-112470000D02*
X87970000Y-109530000D01*
X88090000Y-112470000D02*
X88090000Y-109530000D01*
X88870000Y-109530000D02*
X83430000Y-109530000D01*
X88870000Y-111000000D02*
X91360000Y-111000000D01*
X88870000Y-112470000D02*
X88870000Y-109530000D01*
%TO.C,R35*%
X178280000Y-77000000D02*
X178280000Y-86240000D01*
X178280000Y-86240000D02*
X181720000Y-86240000D01*
X180000000Y-77000000D02*
X180000000Y-75040000D01*
X180000000Y-86240000D02*
X180000000Y-88200000D01*
X181720000Y-77000000D02*
X178280000Y-77000000D01*
X181720000Y-86240000D02*
X181720000Y-77000000D01*
%TO.C,R14*%
X150780000Y-138000000D02*
X150780000Y-147240000D01*
X150780000Y-147240000D02*
X154220000Y-147240000D01*
X152500000Y-138000000D02*
X152500000Y-136040000D01*
X152500000Y-147240000D02*
X152500000Y-149200000D01*
X154220000Y-138000000D02*
X150780000Y-138000000D01*
X154220000Y-147240000D02*
X154220000Y-138000000D01*
%TO.C,R47*%
X47630000Y-81610000D02*
X47630000Y-88150000D01*
X47630000Y-88150000D02*
X50370000Y-88150000D01*
X49000000Y-81610000D02*
X49000000Y-78300000D01*
X49000000Y-88150000D02*
X49000000Y-91460000D01*
X50370000Y-81610000D02*
X47630000Y-81610000D01*
X50370000Y-88150000D02*
X50370000Y-81610000D01*
%TO.C,R52*%
X14330000Y-81550000D02*
X14330000Y-88090000D01*
X14330000Y-88090000D02*
X17070000Y-88090000D01*
X15700000Y-81550000D02*
X15700000Y-78240000D01*
X15700000Y-88090000D02*
X15700000Y-91400000D01*
X17070000Y-81550000D02*
X14330000Y-81550000D01*
X17070000Y-88090000D02*
X17070000Y-81550000D01*
%TO.C,R7*%
X94780000Y-145600000D02*
X94780000Y-154840000D01*
X94780000Y-154840000D02*
X98220000Y-154840000D01*
X96500000Y-145600000D02*
X96500000Y-143640000D01*
X96500000Y-154840000D02*
X96500000Y-156800000D01*
X98220000Y-145600000D02*
X94780000Y-145600000D01*
X98220000Y-154840000D02*
X98220000Y-145600000D01*
%TO.C,R36*%
X95280000Y-94000000D02*
X95280000Y-103240000D01*
X95280000Y-103240000D02*
X98720000Y-103240000D01*
X97000000Y-94000000D02*
X97000000Y-92040000D01*
X97000000Y-103240000D02*
X97000000Y-105200000D01*
X98720000Y-94000000D02*
X95280000Y-94000000D01*
X98720000Y-103240000D02*
X98720000Y-94000000D01*
%TO.C,R21*%
X67780000Y-77500000D02*
X67780000Y-86740000D01*
X67780000Y-86740000D02*
X71220000Y-86740000D01*
X69500000Y-77500000D02*
X69500000Y-75540000D01*
X69500000Y-86740000D02*
X69500000Y-88700000D01*
X71220000Y-77500000D02*
X67780000Y-77500000D01*
X71220000Y-86740000D02*
X71220000Y-77500000D01*
%TO.C,SW14*%
X184902500Y-98280000D02*
X184902500Y-107720000D01*
X188322500Y-104600000D02*
X188322500Y-101300000D01*
X191622500Y-101300000D02*
X188322500Y-101300000D01*
X191622500Y-104600000D02*
X188322500Y-104600000D01*
X191622500Y-104600000D02*
X191622500Y-101300000D01*
X194942500Y-98280000D02*
X184902500Y-98280000D01*
X194942500Y-98280000D02*
X194942500Y-107720000D01*
X194942500Y-107720000D02*
X184902500Y-107720000D01*
X195192500Y-98030000D02*
X194192500Y-98030000D01*
X195192500Y-98030000D02*
X195192500Y-99030000D01*
%TO.C,R16*%
X166280000Y-145600000D02*
X166280000Y-154840000D01*
X166280000Y-154840000D02*
X169720000Y-154840000D01*
X168000000Y-145600000D02*
X168000000Y-143640000D01*
X168000000Y-154840000D02*
X168000000Y-156800000D01*
X169720000Y-145600000D02*
X166280000Y-145600000D01*
X169720000Y-154840000D02*
X169720000Y-145600000D01*
%TO.C,R13*%
X139280000Y-147760000D02*
X139280000Y-157000000D01*
X139280000Y-157000000D02*
X142720000Y-157000000D01*
X141000000Y-147760000D02*
X141000000Y-145800000D01*
X141000000Y-157000000D02*
X141000000Y-158960000D01*
X142720000Y-147760000D02*
X139280000Y-147760000D01*
X142720000Y-157000000D02*
X142720000Y-147760000D01*
%TO.C,R44*%
X120260000Y-128280000D02*
X120260000Y-131720000D01*
X120260000Y-130000000D02*
X118300000Y-130000000D01*
X120260000Y-131720000D02*
X129500000Y-131720000D01*
X129500000Y-128280000D02*
X120260000Y-128280000D01*
X129500000Y-130000000D02*
X131460000Y-130000000D01*
X129500000Y-131720000D02*
X129500000Y-128280000D01*
%TO.C,Q16*%
X172650000Y-84200000D02*
X172650000Y-87800000D01*
X172661522Y-84161522D02*
G75*
G02*
X177100001Y-86000000I1838478J-1838478D01*
G01*
X177100000Y-86000000D02*
G75*
G02*
X172661522Y-87838478I-2600000J0D01*
G01*
%TO.C,C8*%
X60120000Y-114000000D02*
G75*
G02*
X54880000Y-114000000I-2620000J0D01*
G01*
X54880000Y-114000000D02*
G75*
G02*
X60120000Y-114000000I2620000J0D01*
G01*
%TO.C,R29*%
X130780000Y-77500000D02*
X130780000Y-86740000D01*
X130780000Y-86740000D02*
X134220000Y-86740000D01*
X132500000Y-77500000D02*
X132500000Y-75540000D01*
X132500000Y-86740000D02*
X132500000Y-88700000D01*
X134220000Y-77500000D02*
X130780000Y-77500000D01*
X134220000Y-86740000D02*
X134220000Y-77500000D01*
%TO.C,BZ1*%
X29100000Y-152600000D02*
G75*
G02*
X14900000Y-152600000I-7100000J0D01*
G01*
X14900000Y-152600000D02*
G75*
G02*
X29100000Y-152600000I7100000J0D01*
G01*
%TO.C,R23*%
X84780000Y-77500000D02*
X84780000Y-86740000D01*
X84780000Y-86740000D02*
X88220000Y-86740000D01*
X86500000Y-77500000D02*
X86500000Y-75540000D01*
X86500000Y-86740000D02*
X86500000Y-88700000D01*
X88220000Y-77500000D02*
X84780000Y-77500000D01*
X88220000Y-86740000D02*
X88220000Y-77500000D01*
%TO.C,R43*%
X105280000Y-119460000D02*
X105280000Y-128700000D01*
X105280000Y-128700000D02*
X108720000Y-128700000D01*
X107000000Y-119460000D02*
X107000000Y-117500000D01*
X107000000Y-128700000D02*
X107000000Y-130660000D01*
X108720000Y-119460000D02*
X105280000Y-119460000D01*
X108720000Y-128700000D02*
X108720000Y-119460000D01*
%TO.C,R39*%
X129280000Y-99720000D02*
X129280000Y-108960000D01*
X129280000Y-108960000D02*
X132720000Y-108960000D01*
X131000000Y-99720000D02*
X131000000Y-97760000D01*
X131000000Y-108960000D02*
X131000000Y-110920000D01*
X132720000Y-99720000D02*
X129280000Y-99720000D01*
X132720000Y-108960000D02*
X132720000Y-99720000D01*
%TO.C,D34*%
X119710000Y-111580000D02*
X119710000Y-113420000D01*
X119710000Y-112500000D02*
X115990000Y-112500000D01*
X119710000Y-113420000D02*
X122990000Y-113420000D01*
X120166000Y-111580000D02*
X120166000Y-113420000D01*
X120286000Y-111580000D02*
X120286000Y-113420000D01*
X120406000Y-111580000D02*
X120406000Y-113420000D01*
X122990000Y-111580000D02*
X119710000Y-111580000D01*
X122990000Y-112500000D02*
X126710000Y-112500000D01*
X122990000Y-113420000D02*
X122990000Y-111580000D01*
%TO.C,C5*%
X139880000Y-116130000D02*
X150120000Y-116130000D01*
X139880000Y-118870000D02*
X139880000Y-116130000D01*
X139880000Y-118870000D02*
X150120000Y-118870000D01*
X150120000Y-118870000D02*
X150120000Y-116130000D01*
%TO.C,R51*%
X17830000Y-81550000D02*
X17830000Y-88090000D01*
X17830000Y-88090000D02*
X20570000Y-88090000D01*
X19200000Y-81550000D02*
X19200000Y-78240000D01*
X19200000Y-88090000D02*
X19200000Y-91400000D01*
X20570000Y-81550000D02*
X17830000Y-81550000D01*
X20570000Y-88090000D02*
X20570000Y-81550000D01*
%TO.C,Q14*%
X140510000Y-84200000D02*
X140510000Y-87800000D01*
X140521522Y-84161522D02*
G75*
G02*
X144960001Y-86000000I1838478J-1838478D01*
G01*
X144960000Y-86000000D02*
G75*
G02*
X140521522Y-87838478I-2600000J0D01*
G01*
%TO.C,R26*%
X104280000Y-77260000D02*
X104280000Y-86500000D01*
X104280000Y-86500000D02*
X107720000Y-86500000D01*
X106000000Y-77260000D02*
X106000000Y-75300000D01*
X106000000Y-86500000D02*
X106000000Y-88460000D01*
X107720000Y-77260000D02*
X104280000Y-77260000D01*
X107720000Y-86500000D02*
X107720000Y-77260000D01*
%TO.C,R25*%
X100280000Y-77500000D02*
X100280000Y-86740000D01*
X100280000Y-86740000D02*
X103720000Y-86740000D01*
X102000000Y-77500000D02*
X102000000Y-75540000D01*
X102000000Y-86740000D02*
X102000000Y-88700000D01*
X103720000Y-77500000D02*
X100280000Y-77500000D01*
X103720000Y-86740000D02*
X103720000Y-77500000D01*
D12*
%TO.C,U14*%
X37145000Y-74030000D02*
X30795000Y-74030000D01*
X37145000Y-93590000D02*
X30795000Y-93590000D01*
D14*
X28735000Y-92600000D02*
G75*
G02*
X28535000Y-92600000I-100000J0D01*
G01*
X28535000Y-92600000D02*
G75*
G02*
X28735000Y-92600000I100000J0D01*
G01*
D11*
%TO.C,R24*%
X89280000Y-77260000D02*
X89280000Y-86500000D01*
X89280000Y-86500000D02*
X92720000Y-86500000D01*
X91000000Y-77260000D02*
X91000000Y-75300000D01*
X91000000Y-86500000D02*
X91000000Y-88460000D01*
X92720000Y-77260000D02*
X89280000Y-77260000D01*
X92720000Y-86500000D02*
X92720000Y-77260000D01*
D12*
%TO.C,U4*%
X62300000Y-92140000D02*
X72700000Y-92140000D01*
X62300000Y-96740000D02*
X62300000Y-92140000D01*
X72700000Y-92140000D02*
X72700000Y-96740000D01*
X72700000Y-96740000D02*
X62300000Y-96740000D01*
D14*
X70150000Y-97195000D02*
G75*
G02*
X69950000Y-97195000I-100000J0D01*
G01*
X69950000Y-97195000D02*
G75*
G02*
X70150000Y-97195000I100000J0D01*
G01*
D11*
%TO.C,R27*%
X115280000Y-77500000D02*
X115280000Y-86740000D01*
X115280000Y-86740000D02*
X118720000Y-86740000D01*
X117000000Y-77500000D02*
X117000000Y-75540000D01*
X117000000Y-86740000D02*
X117000000Y-88700000D01*
X118720000Y-77500000D02*
X115280000Y-77500000D01*
X118720000Y-86740000D02*
X118720000Y-77500000D01*
%TO.C,R15*%
X154780000Y-145760000D02*
X154780000Y-155000000D01*
X154780000Y-155000000D02*
X158220000Y-155000000D01*
X156500000Y-145760000D02*
X156500000Y-143800000D01*
X156500000Y-155000000D02*
X156500000Y-156960000D01*
X158220000Y-145760000D02*
X154780000Y-145760000D01*
X158220000Y-155000000D02*
X158220000Y-145760000D01*
%TO.C,U1*%
X101050000Y-99840000D02*
X101050000Y-105140000D01*
X101050000Y-105140000D02*
X111330000Y-105140000D01*
X111330000Y-99840000D02*
X101050000Y-99840000D01*
X111330000Y-101490000D02*
X111330000Y-99840000D01*
X111330000Y-105140000D02*
X111330000Y-103490000D01*
X111330000Y-103490000D02*
G75*
G02*
X111330000Y-101490000I0J1000000D01*
G01*
%TO.C,Q3*%
X83150000Y-151930000D02*
X83150000Y-155530000D01*
X83161522Y-151891522D02*
G75*
G02*
X87600001Y-153730000I1838478J-1838478D01*
G01*
X87600000Y-153730000D02*
G75*
G02*
X83161522Y-155568478I-2600000J0D01*
G01*
%TO.C,C1*%
X109880000Y-93630000D02*
X120120000Y-93630000D01*
X109880000Y-96370000D02*
X109880000Y-93630000D01*
X109880000Y-96370000D02*
X120120000Y-96370000D01*
X120120000Y-96370000D02*
X120120000Y-93630000D01*
%TO.C,R34*%
X167780000Y-76760000D02*
X167780000Y-86000000D01*
X167780000Y-86000000D02*
X171220000Y-86000000D01*
X169500000Y-76760000D02*
X169500000Y-74800000D01*
X169500000Y-86000000D02*
X169500000Y-87960000D01*
X171220000Y-76760000D02*
X167780000Y-76760000D01*
X171220000Y-86000000D02*
X171220000Y-76760000D01*
%TO.C,R2*%
X35260000Y-135780000D02*
X35260000Y-139220000D01*
X35260000Y-137500000D02*
X33300000Y-137500000D01*
X35260000Y-139220000D02*
X44500000Y-139220000D01*
X44500000Y-135780000D02*
X35260000Y-135780000D01*
X44500000Y-137500000D02*
X46460000Y-137500000D01*
X44500000Y-139220000D02*
X44500000Y-135780000D01*
%TO.C,R46*%
X44130000Y-81610000D02*
X44130000Y-88150000D01*
X44130000Y-88150000D02*
X46870000Y-88150000D01*
X45500000Y-81610000D02*
X45500000Y-78300000D01*
X45500000Y-88150000D02*
X45500000Y-91460000D01*
X46870000Y-81610000D02*
X44130000Y-81610000D01*
X46870000Y-88150000D02*
X46870000Y-81610000D01*
%TO.C,R50*%
X21130000Y-81610000D02*
X21130000Y-88150000D01*
X21130000Y-88150000D02*
X23870000Y-88150000D01*
X22500000Y-81610000D02*
X22500000Y-78300000D01*
X22500000Y-88150000D02*
X22500000Y-91460000D01*
X23870000Y-81610000D02*
X21130000Y-81610000D01*
X23870000Y-88150000D02*
X23870000Y-81610000D01*
%TO.C,C3*%
X144880000Y-96090000D02*
X155120000Y-96090000D01*
X144880000Y-98830000D02*
X144880000Y-96090000D01*
X144880000Y-98830000D02*
X155120000Y-98830000D01*
X155120000Y-98830000D02*
X155120000Y-96090000D01*
%TO.C,Q4*%
X100650000Y-151970000D02*
X100650000Y-155570000D01*
X100661522Y-151931522D02*
G75*
G02*
X105100001Y-153770000I1838478J-1838478D01*
G01*
X105100000Y-153770000D02*
G75*
G02*
X100661522Y-155608478I-2600000J0D01*
G01*
%TO.C,D33*%
X137210000Y-92540000D02*
X137210000Y-94380000D01*
X137210000Y-93460000D02*
X133490000Y-93460000D01*
X137210000Y-94380000D02*
X140490000Y-94380000D01*
X137666000Y-92540000D02*
X137666000Y-94380000D01*
X137786000Y-92540000D02*
X137786000Y-94380000D01*
X137906000Y-92540000D02*
X137906000Y-94380000D01*
X140490000Y-92540000D02*
X137210000Y-92540000D01*
X140490000Y-93460000D02*
X144210000Y-93460000D01*
X140490000Y-94380000D02*
X140490000Y-92540000D01*
%TO.C,R10*%
X120280000Y-145600000D02*
X120280000Y-154840000D01*
X120280000Y-154840000D02*
X123720000Y-154840000D01*
X122000000Y-145600000D02*
X122000000Y-143640000D01*
X122000000Y-154840000D02*
X122000000Y-156800000D01*
X123720000Y-145600000D02*
X120280000Y-145600000D01*
X123720000Y-154840000D02*
X123720000Y-145600000D01*
%TO.C,R31*%
X147780000Y-77500000D02*
X147780000Y-86740000D01*
X147780000Y-86740000D02*
X151220000Y-86740000D01*
X149500000Y-77500000D02*
X149500000Y-75540000D01*
X149500000Y-86740000D02*
X149500000Y-88700000D01*
X151220000Y-77500000D02*
X147780000Y-77500000D01*
X151220000Y-86740000D02*
X151220000Y-77500000D01*
%TO.C,R20*%
X56280000Y-77000000D02*
X56280000Y-86240000D01*
X56280000Y-86240000D02*
X59720000Y-86240000D01*
X58000000Y-77000000D02*
X58000000Y-75040000D01*
X58000000Y-86240000D02*
X58000000Y-88200000D01*
X59720000Y-77000000D02*
X56280000Y-77000000D01*
X59720000Y-86240000D02*
X59720000Y-77000000D01*
%TO.C,R18*%
X175280000Y-145360000D02*
X175280000Y-154600000D01*
X175280000Y-154600000D02*
X178720000Y-154600000D01*
X177000000Y-145360000D02*
X177000000Y-143400000D01*
X177000000Y-154600000D02*
X177000000Y-156560000D01*
X178720000Y-145360000D02*
X175280000Y-145360000D01*
X178720000Y-154600000D02*
X178720000Y-145360000D01*
%TO.C,R45*%
X169690000Y-103110000D02*
X169690000Y-109650000D01*
X169690000Y-109650000D02*
X172430000Y-109650000D01*
X171060000Y-103110000D02*
X171060000Y-99800000D01*
X171060000Y-109650000D02*
X171060000Y-112960000D01*
X172430000Y-103110000D02*
X169690000Y-103110000D01*
X172430000Y-109650000D02*
X172430000Y-103110000D01*
%TO.C,R49*%
X24330000Y-81610000D02*
X24330000Y-88150000D01*
X24330000Y-88150000D02*
X27070000Y-88150000D01*
X25700000Y-81610000D02*
X25700000Y-78300000D01*
X25700000Y-88150000D02*
X25700000Y-91460000D01*
X27070000Y-81610000D02*
X24330000Y-81610000D01*
X27070000Y-88150000D02*
X27070000Y-81610000D01*
%TO.C,R9*%
X109780000Y-145600000D02*
X109780000Y-154840000D01*
X109780000Y-154840000D02*
X113220000Y-154840000D01*
X111500000Y-145600000D02*
X111500000Y-143640000D01*
X111500000Y-154840000D02*
X111500000Y-156800000D01*
X113220000Y-145600000D02*
X109780000Y-145600000D01*
X113220000Y-154840000D02*
X113220000Y-145600000D01*
%TO.C,R1*%
X33280000Y-148000000D02*
X33280000Y-157240000D01*
X33280000Y-157240000D02*
X36720000Y-157240000D01*
X35000000Y-148000000D02*
X35000000Y-146040000D01*
X35000000Y-157240000D02*
X35000000Y-159200000D01*
X36720000Y-148000000D02*
X33280000Y-148000000D01*
X36720000Y-157240000D02*
X36720000Y-148000000D01*
%TO.C,D36*%
X65930000Y-118530000D02*
X65930000Y-121470000D01*
X65930000Y-120000000D02*
X63440000Y-120000000D01*
X65930000Y-121470000D02*
X71370000Y-121470000D01*
X70350000Y-121470000D02*
X70350000Y-118530000D01*
X70470000Y-121470000D02*
X70470000Y-118530000D01*
X70590000Y-121470000D02*
X70590000Y-118530000D01*
X71370000Y-118530000D02*
X65930000Y-118530000D01*
X71370000Y-120000000D02*
X73860000Y-120000000D01*
X71370000Y-121470000D02*
X71370000Y-118530000D01*
%TO.C,R4*%
X64280000Y-140380000D02*
X64280000Y-149620000D01*
X64280000Y-149620000D02*
X67720000Y-149620000D01*
X66000000Y-140380000D02*
X66000000Y-138420000D01*
X66000000Y-149620000D02*
X66000000Y-151580000D01*
X67720000Y-140380000D02*
X64280000Y-140380000D01*
X67720000Y-149620000D02*
X67720000Y-140380000D01*
%TO.C,R33*%
X163280000Y-77000000D02*
X163280000Y-86240000D01*
X163280000Y-86240000D02*
X166720000Y-86240000D01*
X165000000Y-77000000D02*
X165000000Y-75040000D01*
X165000000Y-86240000D02*
X165000000Y-88200000D01*
X166720000Y-77000000D02*
X163280000Y-77000000D01*
X166720000Y-86240000D02*
X166720000Y-77000000D01*
%TO.C,Q11*%
X95150000Y-84200000D02*
X95150000Y-87800000D01*
X95161522Y-84161522D02*
G75*
G02*
X99600001Y-86000000I1838478J-1838478D01*
G01*
X99600000Y-86000000D02*
G75*
G02*
X95161522Y-87838478I-2600000J0D01*
G01*
%TO.C,Q7*%
X144430000Y-156450000D02*
X148030000Y-156450000D01*
X144391522Y-156438478D02*
G75*
G02*
X146230000Y-151999999I1838478J1838478D01*
G01*
X146230000Y-152000000D02*
G75*
G02*
X148068478Y-156438478I0J-2600000D01*
G01*
%TO.C,R37*%
X77760000Y-103280000D02*
X77760000Y-106720000D01*
X77760000Y-105000000D02*
X75800000Y-105000000D01*
X77760000Y-106720000D02*
X87000000Y-106720000D01*
X87000000Y-103280000D02*
X77760000Y-103280000D01*
X87000000Y-105000000D02*
X88960000Y-105000000D01*
X87000000Y-106720000D02*
X87000000Y-103280000D01*
%TO.C,D35*%
X65930000Y-109530000D02*
X65930000Y-112470000D01*
X65930000Y-111000000D02*
X63440000Y-111000000D01*
X65930000Y-112470000D02*
X71370000Y-112470000D01*
X70350000Y-112470000D02*
X70350000Y-109530000D01*
X70470000Y-112470000D02*
X70470000Y-109530000D01*
X70590000Y-112470000D02*
X70590000Y-109530000D01*
X71370000Y-109530000D02*
X65930000Y-109530000D01*
X71370000Y-111000000D02*
X73860000Y-111000000D01*
X71370000Y-112470000D02*
X71370000Y-109530000D01*
%TO.C,R41*%
X138000000Y-111740000D02*
X138000000Y-115180000D01*
X138000000Y-113460000D02*
X136040000Y-113460000D01*
X138000000Y-115180000D02*
X147240000Y-115180000D01*
X147240000Y-111740000D02*
X138000000Y-111740000D01*
X147240000Y-113460000D02*
X149200000Y-113460000D01*
X147240000Y-115180000D02*
X147240000Y-111740000D01*
%TO.C,R30*%
X134780000Y-77500000D02*
X134780000Y-86740000D01*
X134780000Y-86740000D02*
X138220000Y-86740000D01*
X136500000Y-77500000D02*
X136500000Y-75540000D01*
X136500000Y-86740000D02*
X136500000Y-88700000D01*
X138220000Y-77500000D02*
X134780000Y-77500000D01*
X138220000Y-86740000D02*
X138220000Y-77500000D01*
%TO.C,R48*%
X51130000Y-81610000D02*
X51130000Y-88150000D01*
X51130000Y-88150000D02*
X53870000Y-88150000D01*
X52500000Y-81610000D02*
X52500000Y-78300000D01*
X52500000Y-88150000D02*
X52500000Y-91460000D01*
X53870000Y-81610000D02*
X51130000Y-81610000D01*
X53870000Y-88150000D02*
X53870000Y-81610000D01*
%TO.C,Q13*%
X124150000Y-84200000D02*
X124150000Y-87800000D01*
X124161522Y-84161522D02*
G75*
G02*
X128600001Y-86000000I1838478J-1838478D01*
G01*
X128600000Y-86000000D02*
G75*
G02*
X124161522Y-87838478I-2600000J0D01*
G01*
%TO.C,C4*%
X162620000Y-104460000D02*
G75*
G02*
X152380000Y-104460000I-5120000J0D01*
G01*
X152380000Y-104460000D02*
G75*
G02*
X162620000Y-104460000I5120000J0D01*
G01*
%TO.C,Q15*%
X157150000Y-84200000D02*
X157150000Y-87800000D01*
X157161522Y-84161522D02*
G75*
G02*
X161600001Y-86000000I1838478J-1838478D01*
G01*
X161600000Y-86000000D02*
G75*
G02*
X157161522Y-87838478I-2600000J0D01*
G01*
%TO.C,R6*%
X89780000Y-145600000D02*
X89780000Y-154840000D01*
X89780000Y-154840000D02*
X93220000Y-154840000D01*
X91500000Y-145600000D02*
X91500000Y-143640000D01*
X91500000Y-154840000D02*
X91500000Y-156800000D01*
X93220000Y-145600000D02*
X89780000Y-145600000D01*
X93220000Y-154840000D02*
X93220000Y-145600000D01*
%TO.C,Q5*%
X119350000Y-155570000D02*
X119350000Y-151970000D01*
X114900000Y-153770000D02*
G75*
G02*
X119338478Y-151931522I2600000J0D01*
G01*
X119338478Y-155608478D02*
G75*
G02*
X114899999Y-153770000I-1838478J1838478D01*
G01*
%TO.C,Q8*%
X159430000Y-156450000D02*
X163030000Y-156450000D01*
X159391522Y-156438478D02*
G75*
G02*
X161230000Y-151999999I1838478J1838478D01*
G01*
X161230000Y-152000000D02*
G75*
G02*
X163068478Y-156438478I0J-2600000D01*
G01*
%TO.C,R28*%
X119280000Y-77260000D02*
X119280000Y-86500000D01*
X119280000Y-86500000D02*
X122720000Y-86500000D01*
X121000000Y-77260000D02*
X121000000Y-75300000D01*
X121000000Y-86500000D02*
X121000000Y-88460000D01*
X122720000Y-77260000D02*
X119280000Y-77260000D01*
X122720000Y-86500000D02*
X122720000Y-77260000D01*
%TO.C,R5*%
X77780000Y-145600000D02*
X77780000Y-154840000D01*
X77780000Y-154840000D02*
X81220000Y-154840000D01*
X79500000Y-145600000D02*
X79500000Y-143640000D01*
X79500000Y-154840000D02*
X79500000Y-156800000D01*
X81220000Y-145600000D02*
X77780000Y-145600000D01*
X81220000Y-154840000D02*
X81220000Y-145600000D01*
%TO.C,D1*%
X28790000Y-138645000D02*
X28790000Y-135555000D01*
X23240000Y-137100462D02*
G75*
G02*
X28790000Y-135555170I2990000J462D01*
G01*
X28790000Y-138644830D02*
G75*
G02*
X23240000Y-137099538I-2560000J1544830D01*
G01*
X28730000Y-137100000D02*
G75*
G02*
X23730000Y-137100000I-2500000J0D01*
G01*
X23730000Y-137100000D02*
G75*
G02*
X28730000Y-137100000I2500000J0D01*
G01*
%TO.C,R38*%
X100260000Y-108280000D02*
X100260000Y-111720000D01*
X100260000Y-110000000D02*
X98300000Y-110000000D01*
X100260000Y-111720000D02*
X109500000Y-111720000D01*
X109500000Y-108280000D02*
X100260000Y-108280000D01*
X109500000Y-110000000D02*
X111460000Y-110000000D01*
X109500000Y-111720000D02*
X109500000Y-108280000D01*
%TO.C,C7*%
X68370000Y-130000000D02*
G75*
G02*
X55630000Y-130000000I-6370000J0D01*
G01*
X55630000Y-130000000D02*
G75*
G02*
X68370000Y-130000000I6370000J0D01*
G01*
%TO.C,Q6*%
X129430000Y-156450000D02*
X133030000Y-156450000D01*
X129391522Y-156438478D02*
G75*
G02*
X131230000Y-151999999I1838478J1838478D01*
G01*
X131230000Y-152000000D02*
G75*
G02*
X133068478Y-156438478I0J-2600000D01*
G01*
%TO.C,U2*%
X136160000Y-96050000D02*
X136160000Y-106330000D01*
X136160000Y-106330000D02*
X137810000Y-106330000D01*
X139810000Y-106330000D02*
X141460000Y-106330000D01*
X141460000Y-96050000D02*
X136160000Y-96050000D01*
X141460000Y-106330000D02*
X141460000Y-96050000D01*
X137810000Y-106330000D02*
G75*
G02*
X139810000Y-106330000I1000000J0D01*
G01*
%TO.C,Q9*%
X62150000Y-84200000D02*
X62150000Y-87800000D01*
X62161522Y-84161522D02*
G75*
G02*
X66600001Y-86000000I1838478J-1838478D01*
G01*
X66600000Y-86000000D02*
G75*
G02*
X62161522Y-87838478I-2600000J0D01*
G01*
D12*
%TO.C,U11*%
X174730000Y-96035000D02*
X181330000Y-96035000D01*
X174730000Y-97355000D02*
X174730000Y-96035000D01*
X174730000Y-115725000D02*
X174730000Y-114405000D01*
X181330000Y-96035000D02*
X181330000Y-97355000D01*
X181330000Y-114405000D02*
X181330000Y-115725000D01*
X181330000Y-115725000D02*
X174730000Y-115725000D01*
D14*
X183185000Y-98260000D02*
G75*
G02*
X182985000Y-98260000I-100000J0D01*
G01*
X182985000Y-98260000D02*
G75*
G02*
X183185000Y-98260000I100000J0D01*
G01*
%TD*%
M02*
