%TF.GenerationSoftware,KiCad,Pcbnew,8.0.4*%
%TF.CreationDate,2024-09-18T10:13:05+03:00*%
%TF.ProjectId,Digital Electronic Trainer main pcb,44696769-7461-46c2-9045-6c656374726f,rev?*%
%TF.SameCoordinates,Original*%
%TF.FileFunction,Copper,L2,Bot*%
%TF.FilePolarity,Positive*%
%FSLAX46Y46*%
G04 Gerber Fmt 4.6, Leading zero omitted, Abs format (unit mm)*
G04 Created by KiCad (PCBNEW 8.0.4) date 2024-09-18 10:13:05*
%MOMM*%
%LPD*%
G01*
G04 APERTURE LIST*
G04 Aperture macros list*
%AMRoundRect*
0 Rectangle with rounded corners*
0 $1 Rounding radius*
0 $2 $3 $4 $5 $6 $7 $8 $9 X,Y pos of 4 corners*
0 Add a 4 corners polygon primitive as box body*
4,1,4,$2,$3,$4,$5,$6,$7,$8,$9,$2,$3,0*
0 Add four circle primitives for the rounded corners*
1,1,$1+$1,$2,$3*
1,1,$1+$1,$4,$5*
1,1,$1+$1,$6,$7*
1,1,$1+$1,$8,$9*
0 Add four rect primitives between the rounded corners*
20,1,$1+$1,$2,$3,$4,$5,0*
20,1,$1+$1,$4,$5,$6,$7,0*
20,1,$1+$1,$6,$7,$8,$9,0*
20,1,$1+$1,$8,$9,$2,$3,0*%
G04 Aperture macros list end*
%TA.AperFunction,ComponentPad*%
%ADD10R,1.350000X1.350000*%
%TD*%
%TA.AperFunction,ComponentPad*%
%ADD11R,1.508000X1.508000*%
%TD*%
%TA.AperFunction,ComponentPad*%
%ADD12C,1.508000*%
%TD*%
%TA.AperFunction,ComponentPad*%
%ADD13R,1.800000X1.800000*%
%TD*%
%TA.AperFunction,ComponentPad*%
%ADD14C,1.800000*%
%TD*%
%TA.AperFunction,ComponentPad*%
%ADD15R,1.170000X1.170000*%
%TD*%
%TA.AperFunction,ComponentPad*%
%ADD16C,1.170000*%
%TD*%
%TA.AperFunction,ComponentPad*%
%ADD17C,2.000000*%
%TD*%
%TA.AperFunction,ComponentPad*%
%ADD18R,1.676400X1.676400*%
%TD*%
%TA.AperFunction,ComponentPad*%
%ADD19C,1.676400*%
%TD*%
%TA.AperFunction,ComponentPad*%
%ADD20R,1.140000X1.140000*%
%TD*%
%TA.AperFunction,ComponentPad*%
%ADD21C,1.140000*%
%TD*%
%TA.AperFunction,ComponentPad*%
%ADD22R,1.130000X1.130000*%
%TD*%
%TA.AperFunction,ComponentPad*%
%ADD23C,1.130000*%
%TD*%
%TA.AperFunction,ComponentPad*%
%ADD24C,1.600000*%
%TD*%
%TA.AperFunction,ComponentPad*%
%ADD25O,1.600000X1.600000*%
%TD*%
%TA.AperFunction,ComponentPad*%
%ADD26R,1.500000X1.050000*%
%TD*%
%TA.AperFunction,ComponentPad*%
%ADD27O,1.500000X1.050000*%
%TD*%
%TA.AperFunction,ComponentPad*%
%ADD28RoundRect,0.750000X-1.250000X-0.750000X1.250000X-0.750000X1.250000X0.750000X-1.250000X0.750000X0*%
%TD*%
%TA.AperFunction,ComponentPad*%
%ADD29O,1.800000X1.800000*%
%TD*%
%TA.AperFunction,ComponentPad*%
%ADD30C,1.320800*%
%TD*%
%TA.AperFunction,ComponentPad*%
%ADD31R,1.600000X1.600000*%
%TD*%
%TA.AperFunction,ComponentPad*%
%ADD32R,2.000000X2.000000*%
%TD*%
%TA.AperFunction,ComponentPad*%
%ADD33R,1.500000X1.500000*%
%TD*%
%TA.AperFunction,ComponentPad*%
%ADD34O,1.500000X1.500000*%
%TD*%
%TA.AperFunction,ComponentPad*%
%ADD35R,1.910000X1.910000*%
%TD*%
%TA.AperFunction,ComponentPad*%
%ADD36C,1.910000*%
%TD*%
%TA.AperFunction,ComponentPad*%
%ADD37R,1.050000X1.500000*%
%TD*%
%TA.AperFunction,ComponentPad*%
%ADD38O,1.050000X1.500000*%
%TD*%
%TA.AperFunction,ViaPad*%
%ADD39C,0.600000*%
%TD*%
%TA.AperFunction,Conductor*%
%ADD40C,0.200000*%
%TD*%
G04 APERTURE END LIST*
D10*
%TO.P,J215,1,Pin_1*%
%TO.N,Net-(J215-Pin_1)*%
X36500000Y-119500000D03*
%TD*%
%TO.P,J118,1,Pin_1*%
%TO.N,/2A*%
X23000000Y-26000000D03*
%TD*%
D11*
%TO.P,SW4,1,C*%
%TO.N,Net-(BZ1--)*%
X97500000Y-169100000D03*
D12*
%TO.P,SW4,2,B*%
%TO.N,Net-(J207-Pin_1)*%
X100040000Y-169100000D03*
%TO.P,SW4,3,A*%
%TO.N,Net-(D35-A)*%
X102580000Y-169100000D03*
%TD*%
D10*
%TO.P,J166,1,Pin_1*%
%TO.N,Net-(J166-Pin_1)*%
X270000000Y-93500000D03*
%TD*%
%TO.P,J183,1,Pin_1*%
%TO.N,Net-(J183-Pin_1)*%
X188500000Y-114500000D03*
%TD*%
%TO.P,J128,1,Pin_1*%
%TO.N,GND*%
X19500000Y-33500000D03*
%TD*%
D13*
%TO.P,D17,1,K*%
%TO.N,Net-(D17-K)*%
X172500000Y-67500000D03*
D14*
%TO.P,D17,2,A*%
%TO.N,Net-(BZ1--)*%
X175040000Y-67500000D03*
%TD*%
D10*
%TO.P,J165,1,Pin_1*%
%TO.N,Net-(J165-Pin_1)*%
X274000000Y-91000000D03*
%TD*%
%TO.P,J150,1,Pin_1*%
%TO.N,Net-(J150-Pin_1)*%
X228500000Y-104000000D03*
%TD*%
D13*
%TO.P,D6,1,K*%
%TO.N,Net-(D6-K)*%
X132500000Y-137540000D03*
D14*
%TO.P,D6,2,A*%
%TO.N,Net-(BZ1--)*%
X132500000Y-135000000D03*
%TD*%
D10*
%TO.P,J203,1,Pin_1*%
%TO.N,Net-(J203-Pin_1)*%
X175000000Y-139100000D03*
%TD*%
%TO.P,J74,1,Pin_1*%
%TO.N,/Cp2.Lshift*%
X108000000Y-59000000D03*
%TD*%
D13*
%TO.P,D15,1,K*%
%TO.N,Net-(D15-K)*%
X142000000Y-67500000D03*
D14*
%TO.P,D15,2,A*%
%TO.N,Net-(BZ1--)*%
X144540000Y-67500000D03*
%TD*%
D10*
%TO.P,J76,1,Pin_1*%
%TO.N,VCC*%
X139500000Y-19500000D03*
%TD*%
%TO.P,J86,1,Pin_1*%
%TO.N,/3B*%
X140500000Y-29000000D03*
%TD*%
%TO.P,J151,1,Pin_1*%
%TO.N,Net-(J151-Pin_1)*%
X224500000Y-106500000D03*
%TD*%
%TO.P,J106,1,Pin_1*%
%TO.N,/Q2*%
X91500000Y-57000000D03*
%TD*%
%TO.P,J137,1,Pin_1*%
%TO.N,/2Y*%
X20000000Y-50500000D03*
%TD*%
%TO.P,J188,1,Pin_1*%
%TO.N,Net-(J188-Pin_1)*%
X202500000Y-145000000D03*
%TD*%
%TO.P,J139,1,Pin_1*%
%TO.N,/4Y*%
X43000000Y-58000000D03*
%TD*%
%TO.P,J104,1,Pin_1*%
%TO.N,/Q0*%
X91500000Y-47000000D03*
%TD*%
%TO.P,J194,1,Pin_1*%
%TO.N,Net-(J194-Pin_1)*%
X210000000Y-129600000D03*
%TD*%
D11*
%TO.P,SW7,1,C*%
%TO.N,Net-(BZ1--)*%
X153000000Y-169000000D03*
D12*
%TO.P,SW7,2,B*%
%TO.N,Net-(J204-Pin_1)*%
X155540000Y-169000000D03*
%TO.P,SW7,3,A*%
%TO.N,Net-(D35-A)*%
X158080000Y-169000000D03*
%TD*%
D10*
%TO.P,J157,1,Pin_1*%
%TO.N,Net-(J157-Pin_1)*%
X224500000Y-121500000D03*
%TD*%
%TO.P,J68,1,Pin_1*%
%TO.N,/P0*%
X108000000Y-44500000D03*
%TD*%
%TO.P,J120,1,Pin_1*%
%TO.N,/3A*%
X43000000Y-31000000D03*
%TD*%
%TO.P,J41,1,Pin_1*%
%TO.N,/1B*%
X158000000Y-22000000D03*
%TD*%
%TO.P,J117,1,Pin_1*%
%TO.N,/1B*%
X23000000Y-21000000D03*
%TD*%
%TO.P,J178,1,Pin_1*%
%TO.N,Net-(J178-Pin_1)*%
X270000000Y-124000000D03*
%TD*%
%TO.P,J52,1,Pin_1*%
%TO.N,/4Y*%
X183000000Y-49000000D03*
%TD*%
%TO.P,J58,1,Pin_1*%
%TO.N,/3B*%
X186500000Y-51500000D03*
%TD*%
D15*
%TO.P,IC3-7408,1,1A*%
%TO.N,/1A*%
X119390000Y-19265000D03*
D16*
%TO.P,IC3-7408,2,1B*%
%TO.N,/1B*%
X119390000Y-21805000D03*
%TO.P,IC3-7408,3,1Y*%
%TO.N,/1Y*%
X119390000Y-24345000D03*
%TO.P,IC3-7408,4,2A*%
%TO.N,/2A*%
X119390000Y-26885000D03*
%TO.P,IC3-7408,5,2B*%
%TO.N,/2B*%
X119390000Y-29425000D03*
%TO.P,IC3-7408,6,2Y*%
%TO.N,/2Y*%
X119390000Y-31965000D03*
%TO.P,IC3-7408,7,GND*%
%TO.N,GND*%
X119390000Y-34505000D03*
%TO.P,IC3-7408,8,3Y*%
%TO.N,/3Y*%
X127330000Y-34505000D03*
%TO.P,IC3-7408,9,3A*%
%TO.N,/3A*%
X127330000Y-31965000D03*
%TO.P,IC3-7408,10,3B*%
%TO.N,/3B*%
X127330000Y-29425000D03*
%TO.P,IC3-7408,11,4Y*%
%TO.N,/4Y*%
X127330000Y-26885000D03*
%TO.P,IC3-7408,12,4A*%
%TO.N,/4A*%
X127330000Y-24345000D03*
%TO.P,IC3-7408,13,4B*%
%TO.N,/4B*%
X127330000Y-21805000D03*
%TO.P,IC3-7408,14,VCC*%
%TO.N,VCC*%
X127330000Y-19265000D03*
%TD*%
D10*
%TO.P,J177,1,Pin_1*%
%TO.N,Net-(J177-Pin_1)*%
X274000000Y-121500000D03*
%TD*%
%TO.P,J211,1,Pin_1*%
%TO.N,Net-(BZ1--)*%
X22000000Y-169100000D03*
%TD*%
%TO.P,J24,1,Pin_1*%
%TO.N,/Q'2*%
X234500000Y-54500000D03*
%TD*%
%TO.P,J16,1,Pin_1*%
%TO.N,/CLK2*%
X205000000Y-30500000D03*
%TD*%
%TO.P,J17,1,Pin_1*%
%TO.N,/PR2*%
X209000000Y-33000000D03*
%TD*%
%TO.P,J197,1,Pin_1*%
%TO.N,Net-(J197-Pin_1)*%
X95500000Y-77500000D03*
%TD*%
%TO.P,J204,1,Pin_1*%
%TO.N,Net-(J204-Pin_1)*%
X156500000Y-139100000D03*
%TD*%
%TO.P,J134,1,Pin_1*%
%TO.N,/6A*%
X46000000Y-45500000D03*
%TD*%
%TO.P,J143,1,Pin_1*%
%TO.N,Net-(J143-Pin_1)*%
X224500000Y-86000000D03*
%TD*%
%TO.P,J217,1,Pin_1*%
%TO.N,GND*%
X155000000Y-56500000D03*
%TD*%
D11*
%TO.P,SW1,1,C*%
%TO.N,Net-(BZ1--)*%
X60040000Y-169100000D03*
D12*
%TO.P,SW1,2,B*%
%TO.N,Net-(J210-Pin_1)*%
X57500000Y-169100000D03*
%TO.P,SW1,3,A*%
%TO.N,Net-(D35-A)*%
X54960000Y-169100000D03*
%TD*%
D10*
%TO.P,J34,1,Pin_1*%
%TO.N,VCC*%
X181000000Y-19500000D03*
%TD*%
%TO.P,J56,1,Pin_1*%
%TO.N,/2B*%
X155000000Y-51500000D03*
%TD*%
%TO.P,J29,1,Pin_1*%
%TO.N,/PR1*%
X210000000Y-42000000D03*
%TD*%
%TO.P,J23,1,Pin_1*%
%TO.N,/Q2*%
X239000000Y-52000000D03*
%TD*%
D11*
%TO.P,SW8,1,C*%
%TO.N,Net-(BZ1--)*%
X169000000Y-169000000D03*
D12*
%TO.P,SW8,2,B*%
%TO.N,Net-(J203-Pin_1)*%
X171540000Y-169000000D03*
%TO.P,SW8,3,A*%
%TO.N,Net-(D35-A)*%
X174080000Y-169000000D03*
%TD*%
D10*
%TO.P,J132,1,Pin_1*%
%TO.N,/4A*%
X46500000Y-55500000D03*
%TD*%
%TO.P,J172,1,Pin_1*%
%TO.N,Net-(J172-Pin_1)*%
X270000000Y-109000000D03*
%TD*%
%TO.P,J107,1,Pin_1*%
%TO.N,/Q3*%
X88000000Y-49500000D03*
%TD*%
D13*
%TO.P,D10,1,K*%
%TO.N,Net-(D10-K)*%
X64960000Y-67500000D03*
D14*
%TO.P,D10,2,A*%
%TO.N,Net-(BZ1--)*%
X67500000Y-67500000D03*
%TD*%
D10*
%TO.P,J96,1,Pin_1*%
%TO.N,/4B*%
X92000000Y-21000000D03*
%TD*%
%TO.P,J189,1,Pin_1*%
%TO.N,Net-(J189-Pin_1)*%
X224500000Y-144500000D03*
%TD*%
%TO.P,J8,1,Pin_1*%
%TO.N,/Q'2*%
X234500000Y-33000000D03*
%TD*%
%TO.P,J196,1,Pin_1*%
%TO.N,Net-(J196-Pin_1)*%
X80000000Y-77500000D03*
%TD*%
%TO.P,J57,1,Pin_1*%
%TO.N,/3A*%
X183000000Y-54000000D03*
%TD*%
D15*
%TO.P,IC8-7486,1,1A*%
%TO.N,/1A*%
X166000000Y-41500000D03*
D16*
%TO.P,IC8-7486,2,1B*%
%TO.N,/1B*%
X166000000Y-44040000D03*
%TO.P,IC8-7486,3,1Y*%
%TO.N,/1Y*%
X166000000Y-46580000D03*
%TO.P,IC8-7486,4,2A*%
%TO.N,/2A*%
X166000000Y-49120000D03*
%TO.P,IC8-7486,5,2B*%
%TO.N,/2B*%
X166000000Y-51660000D03*
%TO.P,IC8-7486,6,2Y*%
%TO.N,/2Y*%
X166000000Y-54200000D03*
%TO.P,IC8-7486,7,GND*%
%TO.N,GND*%
X166000000Y-56740000D03*
%TO.P,IC8-7486,8,3Y*%
%TO.N,/3Y*%
X173940000Y-56740000D03*
%TO.P,IC8-7486,9,3A*%
%TO.N,/3A*%
X173940000Y-54200000D03*
%TO.P,IC8-7486,10,3B*%
%TO.N,/3B*%
X173940000Y-51660000D03*
%TO.P,IC8-7486,11,4Y*%
%TO.N,/4Y*%
X173940000Y-49120000D03*
%TO.P,IC8-7486,12,4A*%
%TO.N,/4A*%
X173940000Y-46580000D03*
%TO.P,IC8-7486,13,4B*%
%TO.N,/4B*%
X173940000Y-44040000D03*
%TO.P,IC8-7486,14,VCC*%
%TO.N,VCC*%
X173940000Y-41500000D03*
%TD*%
D10*
%TO.P,J40,1,Pin_1*%
%TO.N,/1A*%
X154500000Y-19500000D03*
%TD*%
%TO.P,J36,1,Pin_1*%
%TO.N,/2Y*%
X158000000Y-32500000D03*
%TD*%
%TO.P,J99,1,Pin_1*%
%TO.N,/2Y*%
X60500000Y-31000000D03*
%TD*%
%TO.P,J205,1,Pin_1*%
%TO.N,Net-(J205-Pin_1)*%
X141000000Y-139600000D03*
%TD*%
%TO.P,J59,1,Pin_1*%
%TO.N,/4A*%
X186500000Y-46500000D03*
%TD*%
%TO.P,J3,1,Pin_1*%
%TO.N,Net-(J3-Pin_1)*%
X238000000Y-20500000D03*
%TD*%
%TO.P,J101,1,Pin_1*%
%TO.N,/4Y*%
X92000000Y-26000000D03*
%TD*%
%TO.P,J142,1,Pin_1*%
%TO.N,Net-(J142-Pin_1)*%
X42500000Y-48000000D03*
%TD*%
%TO.P,J193,1,Pin_1*%
%TO.N,Net-(J193-Pin_1)*%
X210000000Y-134600000D03*
%TD*%
D11*
%TO.P,SW2,1,C*%
%TO.N,Net-(BZ1--)*%
X69960000Y-169100000D03*
D12*
%TO.P,SW2,2,B*%
%TO.N,Net-(J209-Pin_1)*%
X72500000Y-169100000D03*
%TO.P,SW2,3,A*%
%TO.N,Net-(D35-A)*%
X75040000Y-169100000D03*
%TD*%
D10*
%TO.P,J67,1,Pin_1*%
%TO.N,/Ds*%
X111500000Y-41500000D03*
%TD*%
%TO.P,J131,1,Pin_1*%
%TO.N,/3A*%
X23500000Y-53000000D03*
%TD*%
%TO.P,J18,1,Pin_1*%
%TO.N,/K1*%
X234500000Y-39500000D03*
%TD*%
%TO.P,J123,1,Pin_1*%
%TO.N,/4B*%
X43000000Y-21000000D03*
%TD*%
%TO.P,J7,1,Pin_1*%
%TO.N,/Q2*%
X238000000Y-30500000D03*
%TD*%
%TO.P,J167,1,Pin_1*%
%TO.N,Net-(J167-Pin_1)*%
X274000000Y-96000000D03*
%TD*%
%TO.P,J64,1,Pin_1*%
%TO.N,/Q3*%
X134000000Y-56500000D03*
%TD*%
%TO.P,J9,1,Pin_1*%
%TO.N,/J2*%
X238000000Y-35500000D03*
%TD*%
%TO.P,J116,1,Pin_1*%
%TO.N,VCC*%
X46500000Y-18500000D03*
%TD*%
D17*
%TO.P,SW16,1,1*%
%TO.N,Net-(SW16-Pad1)*%
X252500000Y-158000000D03*
%TO.P,SW16,2,2*%
%TO.N,Net-(SW16-Pad2)*%
X247500000Y-158000000D03*
%TO.P,SW16,3,3*%
%TO.N,GND*%
X252500000Y-153000000D03*
%TO.P,SW16,4,4*%
%TO.N,VCC*%
X247500000Y-153000000D03*
%TD*%
D10*
%TO.P,J108,1,Pin_1*%
%TO.N,Net-(J108-Pin_1)*%
X91500000Y-52000000D03*
%TD*%
%TO.P,J61,1,Pin_1*%
%TO.N,/Q0*%
X137500000Y-49000000D03*
%TD*%
%TO.P,J213,1,Pin_1*%
%TO.N,Net-(J213-Pin_1)*%
X47000000Y-119500000D03*
%TD*%
%TO.P,J39,1,Pin_1*%
%TO.N,GND*%
X154500000Y-34500000D03*
%TD*%
%TO.P,J154,1,Pin_1*%
%TO.N,Net-(J154-Pin_1)*%
X228500000Y-114000000D03*
%TD*%
%TO.P,J115,1,Pin_1*%
%TO.N,/1A*%
X19500000Y-18500000D03*
%TD*%
%TO.P,J77,1,Pin_1*%
%TO.N,/1Y*%
X107000000Y-24000000D03*
%TD*%
%TO.P,J124,1,Pin_1*%
%TO.N,/1Y*%
X19500000Y-23500000D03*
%TD*%
%TO.P,J174,1,Pin_1*%
%TO.N,Net-(J174-Pin_1)*%
X270000000Y-114000000D03*
%TD*%
%TO.P,J91,1,Pin_1*%
%TO.N,/2A*%
X60500000Y-26000000D03*
%TD*%
D18*
%TO.P,IC6-7490,1,CP1..3*%
%TO.N,/CP1..3*%
X72380000Y-41960000D03*
D19*
%TO.P,IC6-7490,2,R0(1)*%
%TO.N,/R0(1)*%
X72380000Y-44500000D03*
%TO.P,IC6-7490,3,R0(2)*%
%TO.N,/R0(2)*%
X72380000Y-47040000D03*
%TO.P,IC6-7490,4*%
%TO.N,N/C*%
X72380000Y-49580000D03*
%TO.P,IC6-7490,5,VCC*%
%TO.N,VCC*%
X72380000Y-52120000D03*
%TO.P,IC6-7490,6,R9(1)*%
%TO.N,/R9(1)*%
X72380000Y-54660000D03*
%TO.P,IC6-7490,7,R9(2)*%
%TO.N,/R9(2)*%
X72380000Y-57200000D03*
%TO.P,IC6-7490,8,Q2*%
%TO.N,/Q2*%
X80000000Y-57200000D03*
%TO.P,IC6-7490,9,Q1*%
%TO.N,/Q1*%
X80000000Y-54660000D03*
%TO.P,IC6-7490,10,GND*%
%TO.N,Net-(J108-Pin_1)*%
X80000000Y-52120000D03*
%TO.P,IC6-7490,11,Q3*%
%TO.N,/Q3*%
X80000000Y-49580000D03*
%TO.P,IC6-7490,12,Q0*%
%TO.N,/Q0*%
X80000000Y-47040000D03*
%TO.P,IC6-7490,13*%
%TO.N,N/C*%
X80000000Y-44500000D03*
%TO.P,IC6-7490,14,CP0*%
%TO.N,/CP0*%
X80000000Y-41960000D03*
%TD*%
D10*
%TO.P,J158,1,Pin_1*%
%TO.N,Net-(J158-Pin_1)*%
X228500000Y-124000000D03*
%TD*%
%TO.P,J54,1,Pin_1*%
%TO.N,/1B*%
X159500000Y-44000000D03*
%TD*%
%TO.P,J27,1,Pin_1*%
%TO.N,/PR2*%
X206500000Y-54500000D03*
%TD*%
%TO.P,J22,1,Pin_1*%
%TO.N,/K2*%
X234500000Y-49500000D03*
%TD*%
%TO.P,J2,1,Pin_1*%
%TO.N,/K1*%
X234500000Y-18000000D03*
%TD*%
%TO.P,J21,1,Pin_1*%
%TO.N,GND*%
X239000000Y-46500000D03*
%TD*%
%TO.P,J62,1,Pin_1*%
%TO.N,/Q1*%
X134000000Y-52000000D03*
%TD*%
%TO.P,J92,1,Pin_1*%
%TO.N,/2B*%
X64000000Y-28500000D03*
%TD*%
%TO.P,J186,1,Pin_1*%
%TO.N,Net-(J185-Pin_1)*%
X195000000Y-114500000D03*
%TD*%
%TO.P,J19,1,Pin_1*%
%TO.N,/Q1*%
X238500000Y-42000000D03*
%TD*%
%TO.P,J168,1,Pin_1*%
%TO.N,Net-(J168-Pin_1)*%
X270000000Y-98500000D03*
%TD*%
%TO.P,J156,1,Pin_1*%
%TO.N,Net-(J156-Pin_1)*%
X228500000Y-119000000D03*
%TD*%
%TO.P,J28,1,Pin_1*%
%TO.N,/CLK1*%
X206500000Y-39500000D03*
%TD*%
%TO.P,J133,1,Pin_1*%
%TO.N,/5A*%
X46500000Y-51000000D03*
%TD*%
%TO.P,J160,1,Pin_1*%
%TO.N,Net-(J160-Pin_1)*%
X228500000Y-129000000D03*
%TD*%
D20*
%TO.P,J-K_F.F,1,CLK1*%
%TO.N,/CLK1*%
X219000000Y-39460000D03*
D21*
%TO.P,J-K_F.F,2,PR1*%
%TO.N,/PR1*%
X219000000Y-42000000D03*
%TO.P,J-K_F.F,3,CLR1*%
%TO.N,/CLR1*%
X219000000Y-44540000D03*
%TO.P,J-K_F.F,4,J1*%
%TO.N,/J1*%
X219000000Y-47080000D03*
%TO.P,J-K_F.F,5,+V*%
%TO.N,/+V*%
X219000000Y-49620000D03*
%TO.P,J-K_F.F,6,CLK2*%
%TO.N,/CLK2*%
X219000000Y-52160000D03*
%TO.P,J-K_F.F,7,PR2*%
%TO.N,/PR2*%
X219000000Y-54700000D03*
%TO.P,J-K_F.F,8,CLR2*%
%TO.N,/CLR2*%
X219000000Y-57240000D03*
%TO.P,J-K_F.F,9,J2*%
%TO.N,/J2*%
X226940000Y-57240000D03*
%TO.P,J-K_F.F,10,Q'2*%
%TO.N,/Q'2*%
X226940000Y-54700000D03*
%TO.P,J-K_F.F,11,Q2*%
%TO.N,/Q2*%
X226940000Y-52160000D03*
%TO.P,J-K_F.F,12,K2*%
%TO.N,/K2*%
X226940000Y-49620000D03*
%TO.P,J-K_F.F,13,GND*%
%TO.N,GND*%
X226940000Y-47080000D03*
%TO.P,J-K_F.F,14,Q'1*%
%TO.N,/Q'1*%
X226940000Y-44540000D03*
%TO.P,J-K_F.F,15,Q1*%
%TO.N,/Q1*%
X226940000Y-42000000D03*
%TO.P,J-K_F.F,16,K1*%
%TO.N,/K1*%
X226940000Y-39460000D03*
%TD*%
D10*
%TO.P,J45,1,Pin_1*%
%TO.N,/3B*%
X181500000Y-29500000D03*
%TD*%
%TO.P,J161,1,Pin_1*%
%TO.N,Net-(J161-Pin_1)*%
X224500000Y-131500000D03*
%TD*%
%TO.P,J114,1,Pin_1*%
%TO.N,/R9(2)*%
X63500000Y-57000000D03*
%TD*%
%TO.P,J11,1,Pin_1*%
%TO.N,/CLK1*%
X208500000Y-18000000D03*
%TD*%
%TO.P,J69,1,Pin_1*%
%TO.N,/P1*%
X111500000Y-46500000D03*
%TD*%
%TO.P,J185,1,Pin_1*%
%TO.N,Net-(J185-Pin_1)*%
X194500000Y-122000000D03*
%TD*%
%TO.P,J50,1,Pin_1*%
%TO.N,/2Y*%
X159000000Y-54500000D03*
%TD*%
%TO.P,J195,1,Pin_1*%
%TO.N,Net-(J195-Pin_1)*%
X65000000Y-77500000D03*
%TD*%
%TO.P,J182,1,Pin_1*%
%TO.N,Net-(J182-Pin_1)*%
X270000000Y-134000000D03*
%TD*%
%TO.P,J112,1,Pin_1*%
%TO.N,/R0(2)*%
X63000000Y-47000000D03*
%TD*%
%TO.P,J25,1,Pin_1*%
%TO.N,/J2*%
X239000000Y-57000000D03*
%TD*%
%TO.P,J119,1,Pin_1*%
%TO.N,/2B*%
X19500000Y-28500000D03*
%TD*%
%TO.P,J60,1,Pin_1*%
%TO.N,/4B*%
X183000000Y-44000000D03*
%TD*%
%TO.P,J75,1,Pin_1*%
%TO.N,GND*%
X107000000Y-34500000D03*
%TD*%
%TO.P,J109,1,Pin_1*%
%TO.N,/CP0*%
X91500000Y-42000000D03*
%TD*%
%TO.P,J149,1,Pin_1*%
%TO.N,Net-(J149-Pin_1)*%
X224500000Y-101000000D03*
%TD*%
D13*
%TO.P,D12,1,K*%
%TO.N,Net-(D12-K)*%
X94960000Y-67500000D03*
D14*
%TO.P,D12,2,A*%
%TO.N,Net-(BZ1--)*%
X97500000Y-67500000D03*
%TD*%
D10*
%TO.P,J83,1,Pin_1*%
%TO.N,/2A*%
X110500000Y-27000000D03*
%TD*%
%TO.P,J181,1,Pin_1*%
%TO.N,Net-(J181-Pin_1)*%
X274000000Y-131500000D03*
%TD*%
%TO.P,J73,1,Pin_1*%
%TO.N,/Cp1.Rshift*%
X137500000Y-59000000D03*
%TD*%
%TO.P,J163,1,Pin_1*%
%TO.N,Net-(J163-Pin_1)*%
X274000000Y-86000000D03*
%TD*%
D11*
%TO.P,J1,1,1*%
%TO.N,Net-(J143-Pin_1)*%
X243000000Y-86000000D03*
D12*
%TO.P,J1,2,2*%
%TO.N,Net-(J144-Pin_1)*%
X243000000Y-88540000D03*
%TO.P,J1,3,3*%
%TO.N,Net-(J145-Pin_1)*%
X243000000Y-91080000D03*
%TO.P,J1,4,4*%
%TO.N,Net-(J146-Pin_1)*%
X243000000Y-93620000D03*
%TO.P,J1,5,5*%
%TO.N,Net-(J147-Pin_1)*%
X243000000Y-96160000D03*
%TO.P,J1,6,6*%
%TO.N,Net-(J148-Pin_1)*%
X243000000Y-98700000D03*
%TO.P,J1,7,7*%
%TO.N,Net-(J149-Pin_1)*%
X243000000Y-101240000D03*
%TO.P,J1,8,8*%
%TO.N,Net-(J150-Pin_1)*%
X243000000Y-103780000D03*
%TO.P,J1,9,9*%
%TO.N,Net-(J151-Pin_1)*%
X243000000Y-106320000D03*
%TO.P,J1,10,10*%
%TO.N,Net-(J152-Pin_1)*%
X243000000Y-108860000D03*
%TO.P,J1,11,11*%
%TO.N,Net-(J153-Pin_1)*%
X243000000Y-111400000D03*
%TO.P,J1,12,12*%
%TO.N,Net-(J154-Pin_1)*%
X243000000Y-113940000D03*
%TO.P,J1,13,13*%
%TO.N,Net-(J155-Pin_1)*%
X243000000Y-116480000D03*
%TO.P,J1,14,14*%
%TO.N,Net-(J156-Pin_1)*%
X243000000Y-119020000D03*
%TO.P,J1,15,15*%
%TO.N,Net-(J157-Pin_1)*%
X243000000Y-121560000D03*
%TO.P,J1,16,16*%
%TO.N,Net-(J158-Pin_1)*%
X243000000Y-124100000D03*
%TO.P,J1,17,17*%
%TO.N,Net-(J159-Pin_1)*%
X243000000Y-126640000D03*
%TO.P,J1,18,18*%
%TO.N,Net-(J160-Pin_1)*%
X243000000Y-129180000D03*
%TO.P,J1,19,19*%
%TO.N,Net-(J161-Pin_1)*%
X243000000Y-131720000D03*
%TO.P,J1,20,20*%
%TO.N,Net-(J162-Pin_1)*%
X243000000Y-134260000D03*
%TO.P,J1,21,21*%
%TO.N,Net-(J182-Pin_1)*%
X258240000Y-134260000D03*
%TO.P,J1,22,22*%
%TO.N,Net-(J181-Pin_1)*%
X258240000Y-131720000D03*
%TO.P,J1,23,23*%
%TO.N,Net-(J180-Pin_1)*%
X258240000Y-129180000D03*
%TO.P,J1,24,24*%
%TO.N,Net-(J179-Pin_1)*%
X258240000Y-126640000D03*
%TO.P,J1,25,25*%
%TO.N,Net-(J178-Pin_1)*%
X258240000Y-124100000D03*
%TO.P,J1,26,26*%
%TO.N,Net-(J177-Pin_1)*%
X258240000Y-121560000D03*
%TO.P,J1,27,27*%
%TO.N,Net-(J176-Pin_1)*%
X258240000Y-119020000D03*
%TO.P,J1,28,28*%
%TO.N,Net-(J175-Pin_1)*%
X258240000Y-116480000D03*
%TO.P,J1,29,29*%
%TO.N,Net-(J174-Pin_1)*%
X258240000Y-113940000D03*
%TO.P,J1,30,30*%
%TO.N,Net-(J173-Pin_1)*%
X258240000Y-111400000D03*
%TO.P,J1,31,31*%
%TO.N,Net-(J172-Pin_1)*%
X258240000Y-108860000D03*
%TO.P,J1,32,32*%
%TO.N,Net-(J171-Pin_1)*%
X258240000Y-106320000D03*
%TO.P,J1,33,33*%
%TO.N,Net-(J170-Pin_1)*%
X258240000Y-103780000D03*
%TO.P,J1,34,34*%
%TO.N,Net-(J169-Pin_1)*%
X258240000Y-101240000D03*
%TO.P,J1,35,35*%
%TO.N,Net-(J168-Pin_1)*%
X258240000Y-98700000D03*
%TO.P,J1,36,36*%
%TO.N,Net-(J167-Pin_1)*%
X258240000Y-96160000D03*
%TO.P,J1,37,37*%
%TO.N,Net-(J166-Pin_1)*%
X258240000Y-93620000D03*
%TO.P,J1,38,38*%
%TO.N,Net-(J165-Pin_1)*%
X258240000Y-91080000D03*
%TO.P,J1,39,39*%
%TO.N,Net-(J164-Pin_1)*%
X258240000Y-88540000D03*
%TO.P,J1,40,40*%
%TO.N,Net-(J163-Pin_1)*%
X258240000Y-86000000D03*
%TD*%
D10*
%TO.P,J93,1,Pin_1*%
%TO.N,/3A*%
X92000000Y-31500000D03*
%TD*%
%TO.P,J184,1,Pin_1*%
%TO.N,Net-(BZ1--)*%
X188500000Y-122000000D03*
%TD*%
%TO.P,J48,1,Pin_1*%
%TO.N,VCC*%
X186500000Y-41500000D03*
%TD*%
D13*
%TO.P,D13,1,K*%
%TO.N,Net-(D13-K)*%
X110000000Y-67500000D03*
D14*
%TO.P,D13,2,A*%
%TO.N,Net-(BZ1--)*%
X112540000Y-67500000D03*
%TD*%
D10*
%TO.P,J111,1,Pin_1*%
%TO.N,/R0(1)*%
X59500000Y-44500000D03*
%TD*%
%TO.P,J136,1,Pin_1*%
%TO.N,/1Y*%
X20000000Y-45500000D03*
%TD*%
%TO.P,J88,1,Pin_1*%
%TO.N,/4B*%
X136000000Y-22000000D03*
%TD*%
%TO.P,J147,1,Pin_1*%
%TO.N,Net-(J147-Pin_1)*%
X224500000Y-96000000D03*
%TD*%
D13*
%TO.P,D4,1,K*%
%TO.N,Net-(D4-K)*%
X99960000Y-137500000D03*
D14*
%TO.P,D4,2,A*%
%TO.N,Net-(BZ1--)*%
X102500000Y-137500000D03*
%TD*%
D10*
%TO.P,J46,1,Pin_1*%
%TO.N,/4A*%
X181500000Y-24500000D03*
%TD*%
D15*
%TO.P,IC2-7402,1,1A*%
%TO.N,/1A*%
X72500000Y-18500000D03*
D16*
%TO.P,IC2-7402,2,1B*%
%TO.N,/1B*%
X72500000Y-21040000D03*
%TO.P,IC2-7402,3,1Y*%
%TO.N,/1Y*%
X72500000Y-23580000D03*
%TO.P,IC2-7402,4,2A*%
%TO.N,/2A*%
X72500000Y-26120000D03*
%TO.P,IC2-7402,5,2B*%
%TO.N,/2B*%
X72500000Y-28660000D03*
%TO.P,IC2-7402,6,2Y*%
%TO.N,/2Y*%
X72500000Y-31200000D03*
%TO.P,IC2-7402,7,GND*%
%TO.N,GND*%
X72500000Y-33740000D03*
%TO.P,IC2-7402,8,3Y*%
%TO.N,/3Y*%
X80440000Y-33740000D03*
%TO.P,IC2-7402,9,3A*%
%TO.N,/3A*%
X80440000Y-31200000D03*
%TO.P,IC2-7402,10,3B*%
%TO.N,/3B*%
X80440000Y-28660000D03*
%TO.P,IC2-7402,11,4Y*%
%TO.N,/4Y*%
X80440000Y-26120000D03*
%TO.P,IC2-7402,12,4A*%
%TO.N,/4A*%
X80440000Y-23580000D03*
%TO.P,IC2-7402,13,4B*%
%TO.N,/4B*%
X80440000Y-21040000D03*
%TO.P,IC2-7402,14,VCC*%
%TO.N,VCC*%
X80440000Y-18500000D03*
%TD*%
D10*
%TO.P,J199,1,Pin_1*%
%TO.N,Net-(J199-Pin_1)*%
X126500000Y-77500000D03*
%TD*%
D13*
%TO.P,D8,1,K*%
%TO.N,Net-(D8-K)*%
X162460000Y-137500000D03*
D14*
%TO.P,D8,2,A*%
%TO.N,Net-(BZ1--)*%
X165000000Y-137500000D03*
%TD*%
D10*
%TO.P,J145,1,Pin_1*%
%TO.N,Net-(J145-Pin_1)*%
X224500000Y-91000000D03*
%TD*%
%TO.P,J15,1,Pin_1*%
%TO.N,/+V*%
X208500000Y-28000000D03*
%TD*%
%TO.P,J200,1,Pin_1*%
%TO.N,Net-(J200-Pin_1)*%
X143000000Y-77500000D03*
%TD*%
%TO.P,J79,1,Pin_1*%
%TO.N,/3Y*%
X140500000Y-34500000D03*
%TD*%
%TO.P,J210,1,Pin_1*%
%TO.N,Net-(J210-Pin_1)*%
X52500000Y-137500000D03*
%TD*%
%TO.P,J144,1,Pin_1*%
%TO.N,Net-(J144-Pin_1)*%
X228500000Y-88500000D03*
%TD*%
D11*
%TO.P,SW3,1,C*%
%TO.N,Net-(BZ1--)*%
X82960000Y-169100000D03*
D12*
%TO.P,SW3,2,B*%
%TO.N,Net-(J208-Pin_1)*%
X85500000Y-169100000D03*
%TO.P,SW3,3,A*%
%TO.N,Net-(D35-A)*%
X88040000Y-169100000D03*
%TD*%
D10*
%TO.P,J95,1,Pin_1*%
%TO.N,/4A*%
X88500000Y-23500000D03*
%TD*%
%TO.P,J155,1,Pin_1*%
%TO.N,Net-(J155-Pin_1)*%
X224500000Y-116500000D03*
%TD*%
D15*
%TO.P,IC4-7432,1,1A*%
%TO.N,/1A*%
X165500000Y-19460000D03*
D16*
%TO.P,IC4-7432,2,1B*%
%TO.N,/1B*%
X165500000Y-22000000D03*
%TO.P,IC4-7432,3,1Y*%
%TO.N,/1Y*%
X165500000Y-24540000D03*
%TO.P,IC4-7432,4,2A*%
%TO.N,/2A*%
X165500000Y-27080000D03*
%TO.P,IC4-7432,5,2B*%
%TO.N,/2B*%
X165500000Y-29620000D03*
%TO.P,IC4-7432,6,2Y*%
%TO.N,/2Y*%
X165500000Y-32160000D03*
%TO.P,IC4-7432,7,GND*%
%TO.N,GND*%
X165500000Y-34700000D03*
%TO.P,IC4-7432,8,3Y*%
%TO.N,/3Y*%
X173440000Y-34700000D03*
%TO.P,IC4-7432,9,3A*%
%TO.N,/3A*%
X173440000Y-32160000D03*
%TO.P,IC4-7432,10,3B*%
%TO.N,/3B*%
X173440000Y-29620000D03*
%TO.P,IC4-7432,11,4Y*%
%TO.N,/4Y*%
X173440000Y-27080000D03*
%TO.P,IC4-7432,12,4A*%
%TO.N,/4A*%
X173440000Y-24540000D03*
%TO.P,IC4-7432,13,4B*%
%TO.N,/4B*%
X173440000Y-22000000D03*
%TO.P,IC4-7432,14,VCC*%
%TO.N,VCC*%
X173440000Y-19460000D03*
%TD*%
D10*
%TO.P,J47,1,Pin_1*%
%TO.N,/4B*%
X185000000Y-22000000D03*
%TD*%
%TO.P,J176,1,Pin_1*%
%TO.N,Net-(J176-Pin_1)*%
X270000000Y-119000000D03*
%TD*%
%TO.P,J20,1,Pin_1*%
%TO.N,/Q'1*%
X234500000Y-44500000D03*
%TD*%
%TO.P,J125,1,Pin_1*%
%TO.N,/2Y*%
X23000000Y-31000000D03*
%TD*%
%TO.P,J190,1,Pin_1*%
%TO.N,Net-(J190-Pin_1)*%
X200500000Y-122000000D03*
%TD*%
%TO.P,J5,1,Pin_1*%
%TO.N,Net-(J5-Pin_1)*%
X238000000Y-25500000D03*
%TD*%
%TO.P,J141,1,Pin_1*%
%TO.N,GND*%
X23500000Y-58500000D03*
%TD*%
D13*
%TO.P,D11,1,K*%
%TO.N,Net-(D11-K)*%
X79000000Y-67500000D03*
D14*
%TO.P,D11,2,A*%
%TO.N,Net-(BZ1--)*%
X81540000Y-67500000D03*
%TD*%
D10*
%TO.P,J130,1,Pin_1*%
%TO.N,/2A*%
X23500000Y-48000000D03*
%TD*%
%TO.P,J89,1,Pin_1*%
%TO.N,/1A*%
X64000000Y-18500000D03*
%TD*%
%TO.P,J87,1,Pin_1*%
%TO.N,/4A*%
X139500000Y-24500000D03*
%TD*%
%TO.P,J207,1,Pin_1*%
%TO.N,Net-(J207-Pin_1)*%
X112500000Y-137500000D03*
%TD*%
%TO.P,J100,1,Pin_1*%
%TO.N,/3Y*%
X88500000Y-34000000D03*
%TD*%
%TO.P,J121,1,Pin_1*%
%TO.N,/3B*%
X46500000Y-28500000D03*
%TD*%
%TO.P,J201,1,Pin_1*%
%TO.N,Net-(J201-Pin_1)*%
X159000000Y-77500000D03*
%TD*%
%TO.P,J206,1,Pin_1*%
%TO.N,Net-(J206-Pin_1)*%
X127000000Y-137500000D03*
%TD*%
%TO.P,J33,1,Pin_1*%
%TO.N,/CLK2*%
X210000000Y-52000000D03*
%TD*%
%TO.P,J146,1,Pin_1*%
%TO.N,Net-(J146-Pin_1)*%
X228500000Y-93500000D03*
%TD*%
%TO.P,J51,1,Pin_1*%
%TO.N,/3Y*%
X186500000Y-56500000D03*
%TD*%
D15*
%TO.P,IC5-7404,1,1A*%
%TO.N,/1A*%
X29000000Y-43000000D03*
D16*
%TO.P,IC5-7404,2,1Y*%
%TO.N,/1Y*%
X29000000Y-45540000D03*
%TO.P,IC5-7404,3,2A*%
%TO.N,/2A*%
X29000000Y-48080000D03*
%TO.P,IC5-7404,4,2Y*%
%TO.N,/2Y*%
X29000000Y-50620000D03*
%TO.P,IC5-7404,5,3A*%
%TO.N,/3A*%
X29000000Y-53160000D03*
%TO.P,IC5-7404,6,3Y*%
%TO.N,/3Y*%
X29000000Y-55700000D03*
%TO.P,IC5-7404,7,GND*%
%TO.N,GND*%
X29000000Y-58240000D03*
%TO.P,IC5-7404,8,4Y*%
%TO.N,/4Y*%
X36940000Y-58240000D03*
%TO.P,IC5-7404,9,4A*%
%TO.N,/4A*%
X36940000Y-55700000D03*
%TO.P,IC5-7404,10,5Y*%
%TO.N,/5Y*%
X36940000Y-53160000D03*
%TO.P,IC5-7404,11,5A*%
%TO.N,/5A*%
X36940000Y-50620000D03*
%TO.P,IC5-7404,12,6Y*%
%TO.N,Net-(J142-Pin_1)*%
X36940000Y-48080000D03*
%TO.P,IC5-7404,13,6A*%
%TO.N,/6A*%
X36940000Y-45540000D03*
%TO.P,IC5-7404,14,VCC*%
%TO.N,VCC*%
X36940000Y-43000000D03*
%TD*%
D10*
%TO.P,J42,1,Pin_1*%
%TO.N,/2A*%
X158000000Y-27000000D03*
%TD*%
%TO.P,J63,1,Pin_1*%
%TO.N,/Q2*%
X137500000Y-54000000D03*
%TD*%
%TO.P,J98,1,Pin_1*%
%TO.N,/1Y*%
X64000000Y-23500000D03*
%TD*%
%TO.P,J105,1,Pin_1*%
%TO.N,/Q1*%
X88000000Y-54500000D03*
%TD*%
%TO.P,J13,1,Pin_1*%
%TO.N,/CLR1*%
X208500000Y-23000000D03*
%TD*%
%TO.P,J97,1,Pin_1*%
%TO.N,VCC*%
X88500000Y-18500000D03*
%TD*%
%TO.P,J135,1,Pin_1*%
%TO.N,VCC*%
X42000000Y-43000000D03*
%TD*%
%TO.P,J110,1,Pin_1*%
%TO.N,/CP1..3*%
X63000000Y-42000000D03*
%TD*%
%TO.P,J14,1,Pin_1*%
%TO.N,/J1*%
X205000000Y-25500000D03*
%TD*%
%TO.P,J122,1,Pin_1*%
%TO.N,/4A*%
X47000000Y-23500000D03*
%TD*%
%TO.P,J113,1,Pin_1*%
%TO.N,/R9(1)*%
X60000000Y-54500000D03*
%TD*%
D13*
%TO.P,D5,1,K*%
%TO.N,Net-(D5-K)*%
X117500000Y-137500000D03*
D14*
%TO.P,D5,2,A*%
%TO.N,Net-(BZ1--)*%
X120040000Y-137500000D03*
%TD*%
D10*
%TO.P,J169,1,Pin_1*%
%TO.N,Net-(J169-Pin_1)*%
X274000000Y-101000000D03*
%TD*%
%TO.P,J103,1,Pin_1*%
%TO.N,VCC*%
X63500000Y-52000000D03*
%TD*%
%TO.P,J216,1,Pin_1*%
%TO.N,Net-(J216-Pin_1)*%
X31500000Y-119500000D03*
%TD*%
%TO.P,J32,1,Pin_1*%
%TO.N,/+V*%
X206500000Y-49500000D03*
%TD*%
%TO.P,J159,1,Pin_1*%
%TO.N,Net-(J159-Pin_1)*%
X224500000Y-126500000D03*
%TD*%
%TO.P,J129,1,Pin_1*%
%TO.N,/1A*%
X23500000Y-43000000D03*
%TD*%
D13*
%TO.P,D14,1,K*%
%TO.N,Net-(D14-K)*%
X125500000Y-67500000D03*
D14*
%TO.P,D14,2,A*%
%TO.N,Net-(BZ1--)*%
X128040000Y-67500000D03*
%TD*%
D11*
%TO.P,SW6,1,C*%
%TO.N,Net-(BZ1--)*%
X140080000Y-169000000D03*
D12*
%TO.P,SW6,2,B*%
%TO.N,Net-(J205-Pin_1)*%
X137540000Y-169000000D03*
%TO.P,SW6,3,A*%
%TO.N,Net-(D35-A)*%
X135000000Y-169000000D03*
%TD*%
D10*
%TO.P,J209,1,Pin_1*%
%TO.N,Net-(J209-Pin_1)*%
X79500000Y-137500000D03*
%TD*%
D15*
%TO.P,IC1-7400,1,1A*%
%TO.N,/1A*%
X28560000Y-18500000D03*
D16*
%TO.P,IC1-7400,2,1B*%
%TO.N,/1B*%
X28560000Y-21040000D03*
%TO.P,IC1-7400,3,1Y*%
%TO.N,/1Y*%
X28560000Y-23580000D03*
%TO.P,IC1-7400,4,2A*%
%TO.N,/2A*%
X28560000Y-26120000D03*
%TO.P,IC1-7400,5,2B*%
%TO.N,/2B*%
X28560000Y-28660000D03*
%TO.P,IC1-7400,6,2Y*%
%TO.N,/2Y*%
X28560000Y-31200000D03*
%TO.P,IC1-7400,7,GND*%
%TO.N,GND*%
X28560000Y-33740000D03*
%TO.P,IC1-7400,8,3Y*%
%TO.N,/3Y*%
X36500000Y-33740000D03*
%TO.P,IC1-7400,9,3A*%
%TO.N,/3A*%
X36500000Y-31200000D03*
%TO.P,IC1-7400,10,3B*%
%TO.N,/3B*%
X36500000Y-28660000D03*
%TO.P,IC1-7400,11,4Y*%
%TO.N,/4Y*%
X36500000Y-26120000D03*
%TO.P,IC1-7400,12,4A*%
%TO.N,/4A*%
X36500000Y-23580000D03*
%TO.P,IC1-7400,13,4B*%
%TO.N,/4B*%
X36500000Y-21040000D03*
%TO.P,IC1-7400,14,VCC*%
%TO.N,VCC*%
X36500000Y-18500000D03*
%TD*%
D10*
%TO.P,J208,1,Pin_1*%
%TO.N,Net-(J208-Pin_1)*%
X95000000Y-137500000D03*
%TD*%
%TO.P,J38,1,Pin_1*%
%TO.N,/4Y*%
X185000000Y-27000000D03*
%TD*%
%TO.P,J31,1,Pin_1*%
%TO.N,/J1*%
X210000000Y-47000000D03*
%TD*%
%TO.P,J71,1,Pin_1*%
%TO.N,/P3*%
X111500000Y-51500000D03*
%TD*%
%TO.P,J65,1,Pin_1*%
%TO.N,VCC*%
X134000000Y-46500000D03*
%TD*%
%TO.P,J44,1,Pin_1*%
%TO.N,/3A*%
X185000000Y-32000000D03*
%TD*%
%TO.P,J66,1,Pin_1*%
%TO.N,Net-(J66-Pin_1)*%
X112500000Y-56500000D03*
%TD*%
D13*
%TO.P,D3,1,K*%
%TO.N,Net-(D3-K)*%
X85000000Y-137500000D03*
D14*
%TO.P,D3,2,A*%
%TO.N,Net-(BZ1--)*%
X87540000Y-137500000D03*
%TD*%
D10*
%TO.P,J53,1,Pin_1*%
%TO.N,/1A*%
X155000000Y-41500000D03*
%TD*%
%TO.P,J212,1,Pin_1*%
%TO.N,Net-(J212-Pin_1)*%
X31500000Y-169100000D03*
%TD*%
%TO.P,J10,1,Pin_1*%
%TO.N,/CLR2*%
X205000000Y-35500000D03*
%TD*%
D13*
%TO.P,D16,1,K*%
%TO.N,Net-(D16-K)*%
X158000000Y-67500000D03*
D14*
%TO.P,D16,2,A*%
%TO.N,Net-(BZ1--)*%
X160540000Y-67500000D03*
%TD*%
D10*
%TO.P,J198,1,Pin_1*%
%TO.N,Net-(J198-Pin_1)*%
X111500000Y-77500000D03*
%TD*%
%TO.P,J70,1,Pin_1*%
%TO.N,/P2*%
X108000000Y-49000000D03*
%TD*%
%TO.P,J164,1,Pin_1*%
%TO.N,Net-(J164-Pin_1)*%
X270000000Y-88500000D03*
%TD*%
%TO.P,J12,1,Pin_1*%
%TO.N,/PR1*%
X205000000Y-20500000D03*
%TD*%
%TO.P,J192,1,Pin_1*%
%TO.N,Net-(J192-Pin_1)*%
X215000000Y-144600000D03*
%TD*%
%TO.P,J72,1,Pin_1*%
%TO.N,/Mode*%
X108000000Y-54000000D03*
%TD*%
%TO.P,J78,1,Pin_1*%
%TO.N,/2Y*%
X110500000Y-32000000D03*
%TD*%
%TO.P,J30,1,Pin_1*%
%TO.N,/CLR1*%
X206500000Y-44500000D03*
%TD*%
%TO.P,J82,1,Pin_1*%
%TO.N,/1B*%
X110500000Y-21500000D03*
%TD*%
%TO.P,J127,1,Pin_1*%
%TO.N,/4Y*%
X43500000Y-26000000D03*
%TD*%
%TO.P,J148,1,Pin_1*%
%TO.N,Net-(J148-Pin_1)*%
X228500000Y-98500000D03*
%TD*%
D13*
%TO.P,D2,1,K*%
%TO.N,Net-(D2-K)*%
X72500000Y-140040000D03*
D14*
%TO.P,D2,2,A*%
%TO.N,Net-(BZ1--)*%
X72500000Y-137500000D03*
%TD*%
D10*
%TO.P,J152,1,Pin_1*%
%TO.N,Net-(J152-Pin_1)*%
X228500000Y-109000000D03*
%TD*%
%TO.P,J138,1,Pin_1*%
%TO.N,/3Y*%
X20000000Y-55500000D03*
%TD*%
%TO.P,J214,1,Pin_1*%
%TO.N,Net-(J214-Pin_1)*%
X41500000Y-119500000D03*
%TD*%
%TO.P,J43,1,Pin_1*%
%TO.N,/2B*%
X154500000Y-29500000D03*
%TD*%
%TO.P,J191,1,Pin_1*%
%TO.N,Net-(D35-A)*%
X207500000Y-122500000D03*
%TD*%
%TO.P,J6,1,Pin_1*%
%TO.N,/K2*%
X234500000Y-28000000D03*
%TD*%
%TO.P,J4,1,Pin_1*%
%TO.N,Net-(J4-Pin_1)*%
X234500000Y-23000000D03*
%TD*%
%TO.P,J179,1,Pin_1*%
%TO.N,Net-(J179-Pin_1)*%
X274000000Y-126500000D03*
%TD*%
%TO.P,J55,1,Pin_1*%
%TO.N,/2A*%
X159500000Y-49000000D03*
%TD*%
D20*
%TO.P,J-K_F.F,1,CLK1*%
%TO.N,/CLK1*%
X218500000Y-17960000D03*
D21*
%TO.P,J-K_F.F,2,PR1*%
%TO.N,/PR1*%
X218500000Y-20500000D03*
%TO.P,J-K_F.F,3,CLR1*%
%TO.N,/CLR1*%
X218500000Y-23040000D03*
%TO.P,J-K_F.F,4,J1*%
%TO.N,/J1*%
X218500000Y-25580000D03*
%TO.P,J-K_F.F,5,+V*%
%TO.N,/+V*%
X218500000Y-28120000D03*
%TO.P,J-K_F.F,6,CLK2*%
%TO.N,/CLK2*%
X218500000Y-30660000D03*
%TO.P,J-K_F.F,7,PR2*%
%TO.N,/PR2*%
X218500000Y-33200000D03*
%TO.P,J-K_F.F,8,CLR2*%
%TO.N,/CLR2*%
X218500000Y-35740000D03*
%TO.P,J-K_F.F,9,J2*%
%TO.N,/J2*%
X226440000Y-35740000D03*
%TO.P,J-K_F.F,10,Q'2*%
%TO.N,/Q'2*%
X226440000Y-33200000D03*
%TO.P,J-K_F.F,11,Q2*%
%TO.N,/Q2*%
X226440000Y-30660000D03*
%TO.P,J-K_F.F,12,K2*%
%TO.N,/K2*%
X226440000Y-28120000D03*
%TO.P,J-K_F.F,13,GND*%
%TO.N,Net-(J5-Pin_1)*%
X226440000Y-25580000D03*
%TO.P,J-K_F.F,14,Q'1*%
%TO.N,Net-(J4-Pin_1)*%
X226440000Y-23040000D03*
%TO.P,J-K_F.F,15,Q1*%
%TO.N,Net-(J3-Pin_1)*%
X226440000Y-20500000D03*
%TO.P,J-K_F.F,16,K1*%
%TO.N,/K1*%
X226440000Y-17960000D03*
%TD*%
D10*
%TO.P,J94,1,Pin_1*%
%TO.N,/3B*%
X88500000Y-29000000D03*
%TD*%
D22*
%TO.P,IC7-7495,1,Ds*%
%TO.N,/Ds*%
X120000000Y-41460000D03*
D23*
%TO.P,IC7-7495,2,P0*%
%TO.N,/P0*%
X120000000Y-44000000D03*
%TO.P,IC7-7495,3,P1*%
%TO.N,/P1*%
X120000000Y-46540000D03*
%TO.P,IC7-7495,4,P2*%
%TO.N,/P2*%
X120000000Y-49080000D03*
%TO.P,IC7-7495,5,P3*%
%TO.N,/P3*%
X120000000Y-51620000D03*
%TO.P,IC7-7495,6,Mode*%
%TO.N,/Mode*%
X120000000Y-54160000D03*
%TO.P,IC7-7495,7,GND*%
%TO.N,Net-(J66-Pin_1)*%
X120000000Y-56700000D03*
%TO.P,IC7-7495,8,Cp2.Lshift*%
%TO.N,/Cp2.Lshift*%
X120000000Y-59240000D03*
%TO.P,IC7-7495,9,Cp1.Rshift*%
%TO.N,/Cp1.Rshift*%
X127940000Y-59240000D03*
%TO.P,IC7-7495,10,Q3*%
%TO.N,/Q3*%
X127940000Y-56700000D03*
%TO.P,IC7-7495,11,Q2*%
%TO.N,/Q2*%
X127940000Y-54160000D03*
%TO.P,IC7-7495,12,Q1*%
%TO.N,/Q1*%
X127940000Y-51620000D03*
%TO.P,IC7-7495,13,Q0*%
%TO.N,/Q0*%
X127940000Y-49080000D03*
%TO.P,IC7-7495,14,VCC*%
%TO.N,VCC*%
X127940000Y-46540000D03*
%TO.P,IC7-7495,15*%
%TO.N,N/C*%
X127940000Y-44000000D03*
%TO.P,IC7-7495,16*%
X127940000Y-41460000D03*
%TD*%
D11*
%TO.P,SW5,1,C*%
%TO.N,Net-(BZ1--)*%
X114500000Y-169000000D03*
D12*
%TO.P,SW5,2,B*%
%TO.N,Net-(J206-Pin_1)*%
X117040000Y-169000000D03*
%TO.P,SW5,3,A*%
%TO.N,Net-(D35-A)*%
X119580000Y-169000000D03*
%TD*%
D10*
%TO.P,J35,1,Pin_1*%
%TO.N,/1Y*%
X154500000Y-24500000D03*
%TD*%
%TO.P,J170,1,Pin_1*%
%TO.N,Net-(J170-Pin_1)*%
X270000000Y-104000000D03*
%TD*%
%TO.P,J37,1,Pin_1*%
%TO.N,/3Y*%
X181500000Y-34500000D03*
%TD*%
%TO.P,J84,1,Pin_1*%
%TO.N,/2B*%
X107000000Y-29500000D03*
%TD*%
%TO.P,J171,1,Pin_1*%
%TO.N,Net-(J171-Pin_1)*%
X274000000Y-106500000D03*
%TD*%
%TO.P,J102,1,Pin_1*%
%TO.N,GND*%
X64000000Y-33500000D03*
%TD*%
D13*
%TO.P,D9,1,K*%
%TO.N,Net-(D9-K)*%
X180000000Y-137500000D03*
D14*
%TO.P,D9,2,A*%
%TO.N,Net-(BZ1--)*%
X182540000Y-137500000D03*
%TD*%
D10*
%TO.P,J180,1,Pin_1*%
%TO.N,Net-(J180-Pin_1)*%
X270000000Y-129000000D03*
%TD*%
%TO.P,J85,1,Pin_1*%
%TO.N,/3A*%
X137000000Y-32000000D03*
%TD*%
%TO.P,J80,1,Pin_1*%
%TO.N,/4Y*%
X136000000Y-27000000D03*
%TD*%
%TO.P,J202,1,Pin_1*%
%TO.N,Net-(J202-Pin_1)*%
X175000000Y-77500000D03*
%TD*%
%TO.P,J187,1,Pin_1*%
%TO.N,Net-(D35-A)*%
X200000000Y-114500000D03*
%TD*%
%TO.P,J175,1,Pin_1*%
%TO.N,Net-(J175-Pin_1)*%
X274000000Y-116500000D03*
%TD*%
%TO.P,J153,1,Pin_1*%
%TO.N,Net-(J153-Pin_1)*%
X224500000Y-111500000D03*
%TD*%
%TO.P,J26,1,Pin_1*%
%TO.N,/CLR2*%
X210000000Y-57000000D03*
%TD*%
%TO.P,J140,1,Pin_1*%
%TO.N,/5Y*%
X43000000Y-53000000D03*
%TD*%
%TO.P,J90,1,Pin_1*%
%TO.N,/1B*%
X60500000Y-21000000D03*
%TD*%
D13*
%TO.P,D7,1,K*%
%TO.N,Net-(D7-K)*%
X145000000Y-137500000D03*
D14*
%TO.P,D7,2,A*%
%TO.N,Net-(BZ1--)*%
X147540000Y-137500000D03*
%TD*%
D10*
%TO.P,J126,1,Pin_1*%
%TO.N,/3Y*%
X46500000Y-33500000D03*
%TD*%
%TO.P,J49,1,Pin_1*%
%TO.N,/1Y*%
X155000000Y-46500000D03*
%TD*%
%TO.P,J81,1,Pin_1*%
%TO.N,/1A*%
X107000000Y-19000000D03*
%TD*%
%TO.P,J173,1,Pin_1*%
%TO.N,Net-(J173-Pin_1)*%
X274000000Y-111500000D03*
%TD*%
%TO.P,J162,1,Pin_1*%
%TO.N,Net-(J162-Pin_1)*%
X228000000Y-134000000D03*
%TD*%
D24*
%TO.P,R12,1*%
%TO.N,Net-(D6-K)*%
X137000000Y-140000000D03*
D25*
%TO.P,R12,2*%
%TO.N,Net-(Q5-E)*%
X137000000Y-155240000D03*
%TD*%
D26*
%TO.P,Q12,1,C*%
%TO.N,Net-(Q12-C)*%
X112000000Y-87500000D03*
D27*
%TO.P,Q12,2,B*%
%TO.N,Net-(Q12-B)*%
X112000000Y-86230000D03*
%TO.P,Q12,3,E*%
%TO.N,Net-(D35-A)*%
X112000000Y-84960000D03*
%TD*%
D13*
%TO.P,RV1,1,1*%
%TO.N,Net-(BZ1--)*%
X186450000Y-157500000D03*
D14*
%TO.P,RV1,2,2*%
%TO.N,unconnected-(RV1-Pad2)*%
X186450000Y-155000000D03*
%TO.P,RV1,3,3*%
%TO.N,Net-(D35-A)*%
X186450000Y-152500000D03*
D28*
%TO.P,RV1,MP*%
%TO.N,N/C*%
X193450000Y-150600000D03*
X193450000Y-159400000D03*
%TD*%
D24*
%TO.P,R3,1*%
%TO.N,Net-(Q1-B)*%
X52500000Y-140000000D03*
D25*
%TO.P,R3,2*%
%TO.N,Net-(J210-Pin_1)*%
X52500000Y-155240000D03*
%TD*%
D24*
%TO.P,R22,1*%
%TO.N,Net-(Q10-B)*%
X74000000Y-89740000D03*
D25*
%TO.P,R22,2*%
%TO.N,Net-(J196-Pin_1)*%
X74000000Y-74500000D03*
%TD*%
D13*
%TO.P,D38,1,K*%
%TO.N,Net-(D36-K)*%
X92500000Y-118000000D03*
D29*
%TO.P,D38,2,A*%
%TO.N,GND*%
X79800000Y-118000000D03*
%TD*%
D26*
%TO.P,Q1,1,C*%
%TO.N,Net-(D35-A)*%
X57500000Y-155000000D03*
D27*
%TO.P,Q1,2,B*%
%TO.N,Net-(Q1-B)*%
X57500000Y-153730000D03*
%TO.P,Q1,3,E*%
%TO.N,Net-(Q1-E)*%
X57500000Y-152460000D03*
%TD*%
D30*
%TO.P,Q17,1,C*%
%TO.N,Net-(BZ1-+)*%
X41230000Y-146060000D03*
%TO.P,Q17,2,B*%
%TO.N,Net-(Q17-B)*%
X43770000Y-146060000D03*
%TO.P,Q17,3,E*%
%TO.N,Net-(D35-A)*%
X43770000Y-148600000D03*
%TD*%
D26*
%TO.P,Q2,1,C*%
%TO.N,Net-(D35-A)*%
X72500000Y-155000000D03*
D27*
%TO.P,Q2,2,B*%
%TO.N,Net-(Q2-B)*%
X72500000Y-153730000D03*
%TO.P,Q2,3,E*%
%TO.N,Net-(Q2-E)*%
X72500000Y-152460000D03*
%TD*%
D26*
%TO.P,Q10,1,C*%
%TO.N,Net-(Q10-C)*%
X80860000Y-87270000D03*
D27*
%TO.P,Q10,2,B*%
%TO.N,Net-(Q10-B)*%
X80860000Y-86000000D03*
%TO.P,Q10,3,E*%
%TO.N,Net-(D35-A)*%
X80860000Y-84730000D03*
%TD*%
D24*
%TO.P,R8,1*%
%TO.N,Net-(D4-K)*%
X107500000Y-134880000D03*
D25*
%TO.P,R8,2*%
%TO.N,Net-(Q3-E)*%
X107500000Y-150120000D03*
%TD*%
D24*
%TO.P,R11,1*%
%TO.N,Net-(J206-Pin_1)*%
X126500000Y-142600000D03*
D25*
%TO.P,R11,2*%
%TO.N,Net-(Q5-B)*%
X126500000Y-157840000D03*
%TD*%
D13*
%TO.P,D20,1,K*%
%TO.N,Net-(D20-K)*%
X89500000Y-98000000D03*
D14*
%TO.P,D20,2,A*%
%TO.N,Net-(D20-A)*%
X89500000Y-95460000D03*
%TD*%
D31*
%TO.P,U3,1,GND*%
%TO.N,Net-(D35-A)*%
X125000000Y-125000000D03*
D25*
%TO.P,U3,2,TR*%
X122460000Y-125000000D03*
%TO.P,U3,3,Q*%
%TO.N,Net-(J188-Pin_1)*%
X119920000Y-125000000D03*
%TO.P,U3,4,R*%
%TO.N,Net-(BZ1--)*%
X117380000Y-125000000D03*
%TO.P,U3,5,CV*%
%TO.N,Net-(U3-CV)*%
X117380000Y-117380000D03*
%TO.P,U3,6,THR*%
%TO.N,Net-(D34-K)*%
X119920000Y-117380000D03*
%TO.P,U3,7,DIS*%
%TO.N,Net-(D34-A)*%
X122460000Y-117380000D03*
%TO.P,U3,8,VCC*%
%TO.N,Net-(BZ1--)*%
X125000000Y-117380000D03*
%TD*%
D24*
%TO.P,C2,1*%
%TO.N,Net-(D20-A)*%
X118000000Y-100000000D03*
%TO.P,C2,2*%
%TO.N,Net-(D35-A)*%
X118000000Y-105000000D03*
%TD*%
%TO.P,R40,1*%
%TO.N,Net-(D33-A)*%
X150000000Y-109460000D03*
D25*
%TO.P,R40,2*%
%TO.N,Net-(R40-Pad2)*%
X134760000Y-109460000D03*
%TD*%
D24*
%TO.P,C6,1*%
%TO.N,Net-(D35-A)*%
X135000000Y-125000000D03*
%TO.P,C6,2*%
X135000000Y-120000000D03*
%TD*%
%TO.P,R32,1*%
%TO.N,Net-(Q15-B)*%
X153500000Y-89500000D03*
D25*
%TO.P,R32,2*%
%TO.N,Net-(J201-Pin_1)*%
X153500000Y-74260000D03*
%TD*%
D24*
%TO.P,R42,1*%
%TO.N,Net-(D34-K)*%
X112500000Y-131460000D03*
D25*
%TO.P,R42,2*%
%TO.N,Net-(D34-A)*%
X112500000Y-116220000D03*
%TD*%
D24*
%TO.P,R17,1*%
%TO.N,Net-(J203-Pin_1)*%
X172500000Y-142480000D03*
D25*
%TO.P,R17,2*%
%TO.N,Net-(Q8-B)*%
X172500000Y-157720000D03*
%TD*%
D13*
%TO.P,RV2,1,1*%
%TO.N,Net-(J192-Pin_1)*%
X187500000Y-135000000D03*
D14*
%TO.P,RV2,2,2*%
%TO.N,Net-(J193-Pin_1)*%
X187500000Y-132500000D03*
%TO.P,RV2,3,3*%
%TO.N,Net-(J194-Pin_1)*%
X187500000Y-130000000D03*
D28*
%TO.P,RV2,MP*%
%TO.N,N/C*%
X194500000Y-128100000D03*
X194500000Y-136900000D03*
%TD*%
D13*
%TO.P,D37,1,K*%
%TO.N,GND*%
X92500000Y-111000000D03*
D29*
%TO.P,D37,2,A*%
%TO.N,Net-(D35-A)*%
X79800000Y-111000000D03*
%TD*%
D24*
%TO.P,R35,1*%
%TO.N,Net-(D17-K)*%
X180000000Y-74000000D03*
D25*
%TO.P,R35,2*%
%TO.N,Net-(Q16-C)*%
X180000000Y-89240000D03*
%TD*%
D24*
%TO.P,R14,1*%
%TO.N,Net-(D7-K)*%
X152500000Y-135000000D03*
D25*
%TO.P,R14,2*%
%TO.N,Net-(Q6-E)*%
X152500000Y-150240000D03*
%TD*%
D24*
%TO.P,R47,1*%
%TO.N,L2*%
X49000000Y-92500000D03*
D25*
%TO.P,R47,2*%
%TO.N,/D*%
X49000000Y-77260000D03*
%TD*%
D24*
%TO.P,R52,1*%
%TO.N,L7*%
X15700000Y-92440000D03*
D25*
%TO.P,R52,2*%
%TO.N,/F*%
X15700000Y-77200000D03*
%TD*%
D24*
%TO.P,R7,1*%
%TO.N,Net-(J208-Pin_1)*%
X96500000Y-142600000D03*
D25*
%TO.P,R7,2*%
%TO.N,Net-(Q3-B)*%
X96500000Y-157840000D03*
%TD*%
D24*
%TO.P,R36,1*%
%TO.N,Net-(D20-A)*%
X97000000Y-91000000D03*
D25*
%TO.P,R36,2*%
%TO.N,Net-(D20-K)*%
X97000000Y-106240000D03*
%TD*%
D24*
%TO.P,R21,1*%
%TO.N,Net-(D10-K)*%
X69500000Y-74500000D03*
D25*
%TO.P,R21,2*%
%TO.N,Net-(Q9-C)*%
X69500000Y-89740000D03*
%TD*%
D13*
%TO.P,SW14,1,1*%
%TO.N,Net-(U11-1A)*%
X192422500Y-100000000D03*
D14*
%TO.P,SW14,2,2*%
%TO.N,Net-(U11-2B)*%
X187422500Y-100000000D03*
%TO.P,SW14,3,3*%
%TO.N,Net-(J185-Pin_1)*%
X192422500Y-106000000D03*
%TO.P,SW14,4,4*%
X187422500Y-106000000D03*
%TD*%
D24*
%TO.P,R16,1*%
%TO.N,Net-(D8-K)*%
X168000000Y-142600000D03*
D25*
%TO.P,R16,2*%
%TO.N,Net-(Q7-E)*%
X168000000Y-157840000D03*
%TD*%
D24*
%TO.P,R13,1*%
%TO.N,Net-(J205-Pin_1)*%
X141000000Y-144760000D03*
D25*
%TO.P,R13,2*%
%TO.N,Net-(Q6-B)*%
X141000000Y-160000000D03*
%TD*%
D24*
%TO.P,R44,1*%
%TO.N,Net-(BZ1--)*%
X132500000Y-130000000D03*
D25*
%TO.P,R44,2*%
%TO.N,Net-(J188-Pin_1)*%
X117260000Y-130000000D03*
%TD*%
D26*
%TO.P,Q16,1,C*%
%TO.N,Net-(Q16-C)*%
X174500000Y-87270000D03*
D27*
%TO.P,Q16,2,B*%
%TO.N,Net-(Q16-B)*%
X174500000Y-86000000D03*
%TO.P,Q16,3,E*%
%TO.N,Net-(D35-A)*%
X174500000Y-84730000D03*
%TD*%
D24*
%TO.P,C8,1*%
%TO.N,Net-(BZ1--)*%
X57500000Y-113000000D03*
%TO.P,C8,2*%
%TO.N,Net-(D35-A)*%
X57500000Y-115000000D03*
%TD*%
%TO.P,R29,1*%
%TO.N,Net-(D14-K)*%
X132500000Y-74500000D03*
D25*
%TO.P,R29,2*%
%TO.N,Net-(Q13-C)*%
X132500000Y-89740000D03*
%TD*%
D32*
%TO.P,BZ1,1,+*%
%TO.N,Net-(BZ1-+)*%
X22000000Y-157600000D03*
D17*
%TO.P,BZ1,2,-*%
%TO.N,Net-(BZ1--)*%
X22000000Y-147600000D03*
%TD*%
D24*
%TO.P,R23,1*%
%TO.N,Net-(D11-K)*%
X86500000Y-74500000D03*
D25*
%TO.P,R23,2*%
%TO.N,Net-(Q10-C)*%
X86500000Y-89740000D03*
%TD*%
D24*
%TO.P,R43,1*%
%TO.N,Net-(D34-A)*%
X107000000Y-116460000D03*
D25*
%TO.P,R43,2*%
%TO.N,Net-(BZ1--)*%
X107000000Y-131700000D03*
%TD*%
D24*
%TO.P,R39,1*%
%TO.N,Net-(D33-K)*%
X131000000Y-111960000D03*
D25*
%TO.P,R39,2*%
%TO.N,Net-(D33-A)*%
X131000000Y-96720000D03*
%TD*%
D33*
%TO.P,D34,1,K*%
%TO.N,Net-(D34-K)*%
X115000000Y-112500000D03*
D34*
%TO.P,D34,2,A*%
%TO.N,Net-(D34-A)*%
X127700000Y-112500000D03*
%TD*%
D24*
%TO.P,C5,1*%
%TO.N,Net-(U3-CV)*%
X147500000Y-117500000D03*
%TO.P,C5,2*%
%TO.N,Net-(U2-TR)*%
X142500000Y-117500000D03*
%TD*%
%TO.P,R51,1*%
%TO.N,L6*%
X19200000Y-92440000D03*
D25*
%TO.P,R51,2*%
%TO.N,/G*%
X19200000Y-77200000D03*
%TD*%
D26*
%TO.P,Q14,1,C*%
%TO.N,Net-(Q14-C)*%
X142360000Y-87270000D03*
D27*
%TO.P,Q14,2,B*%
%TO.N,Net-(Q14-B)*%
X142360000Y-86000000D03*
%TO.P,Q14,3,E*%
%TO.N,Net-(D35-A)*%
X142360000Y-84730000D03*
%TD*%
D24*
%TO.P,R26,1*%
%TO.N,Net-(Q12-B)*%
X106000000Y-89500000D03*
D25*
%TO.P,R26,2*%
%TO.N,Net-(J198-Pin_1)*%
X106000000Y-74260000D03*
%TD*%
D24*
%TO.P,R25,1*%
%TO.N,Net-(D12-K)*%
X102000000Y-74500000D03*
D25*
%TO.P,R25,2*%
%TO.N,Net-(Q11-C)*%
X102000000Y-89740000D03*
%TD*%
D20*
%TO.P,U14,1,B_IN*%
%TO.N,Net-(J216-Pin_1)*%
X30000000Y-92700000D03*
D21*
%TO.P,U14,2,C_IN*%
%TO.N,Net-(J215-Pin_1)*%
X30000000Y-90160000D03*
%TO.P,U14,3,~{LT}*%
%TO.N,unconnected-(U14-~{LT}-Pad3)*%
X30000000Y-87620000D03*
%TO.P,U14,4,~{BI}/~{RBO}*%
%TO.N,unconnected-(U14-~{BI}{slash}~{RBO}-Pad4)*%
X30000000Y-85080000D03*
%TO.P,U14,5,~{RBI}*%
%TO.N,unconnected-(U14-~{RBI}-Pad5)*%
X30000000Y-82540000D03*
%TO.P,U14,6,D_IN*%
%TO.N,Net-(J214-Pin_1)*%
X30000000Y-80000000D03*
%TO.P,U14,7,A_IN*%
%TO.N,Net-(J213-Pin_1)*%
X30000000Y-77460000D03*
%TO.P,U14,8,GND*%
%TO.N,Net-(D35-A)*%
X30000000Y-74920000D03*
%TO.P,U14,9,E*%
%TO.N,Net-(U14-E)*%
X37940000Y-74920000D03*
%TO.P,U14,10,D*%
%TO.N,/D*%
X37940000Y-77460000D03*
%TO.P,U14,11,C*%
%TO.N,/C*%
X37940000Y-80000000D03*
%TO.P,U14,12,B*%
%TO.N,/B*%
X37940000Y-82540000D03*
%TO.P,U14,13,A*%
%TO.N,/A*%
X37940000Y-85080000D03*
%TO.P,U14,14,G*%
%TO.N,/G*%
X37940000Y-87620000D03*
%TO.P,U14,15,F*%
%TO.N,/F*%
X37940000Y-90160000D03*
%TO.P,U14,16,VCC*%
%TO.N,Net-(BZ1--)*%
X37940000Y-92700000D03*
%TD*%
D24*
%TO.P,R24,1*%
%TO.N,Net-(Q11-B)*%
X91000000Y-89500000D03*
D25*
%TO.P,R24,2*%
%TO.N,Net-(J197-Pin_1)*%
X91000000Y-74260000D03*
%TD*%
D35*
%TO.P,U4,1,IN*%
%TO.N,Net-(D36-K)*%
X70050000Y-95000000D03*
D36*
%TO.P,U4,2,GND*%
%TO.N,Net-(D35-A)*%
X67500000Y-95000000D03*
%TO.P,U4,3,OUT*%
%TO.N,Net-(BZ1--)*%
X64950000Y-95000000D03*
%TD*%
D24*
%TO.P,R27,1*%
%TO.N,Net-(D13-K)*%
X117000000Y-74500000D03*
D25*
%TO.P,R27,2*%
%TO.N,Net-(Q12-C)*%
X117000000Y-89740000D03*
%TD*%
D24*
%TO.P,R15,1*%
%TO.N,Net-(Q7-B)*%
X156500000Y-158000000D03*
D25*
%TO.P,R15,2*%
%TO.N,Net-(J204-Pin_1)*%
X156500000Y-142760000D03*
%TD*%
D31*
%TO.P,U1,1,GND*%
%TO.N,Net-(D35-A)*%
X110000000Y-106300000D03*
D25*
%TO.P,U1,2,TR*%
%TO.N,Net-(D20-A)*%
X107460000Y-106300000D03*
%TO.P,U1,3,Q*%
%TO.N,Net-(J190-Pin_1)*%
X104920000Y-106300000D03*
%TO.P,U1,4,R*%
%TO.N,Net-(BZ1--)*%
X102380000Y-106300000D03*
%TO.P,U1,5,CV*%
%TO.N,Net-(U1-CV)*%
X102380000Y-98680000D03*
%TO.P,U1,6,THR*%
%TO.N,Net-(D20-A)*%
X104920000Y-98680000D03*
%TO.P,U1,7,DIS*%
%TO.N,Net-(D20-K)*%
X107460000Y-98680000D03*
%TO.P,U1,8,VCC*%
%TO.N,Net-(BZ1--)*%
X110000000Y-98680000D03*
%TD*%
D26*
%TO.P,Q3,1,C*%
%TO.N,Net-(D35-A)*%
X85000000Y-155000000D03*
D27*
%TO.P,Q3,2,B*%
%TO.N,Net-(Q3-B)*%
X85000000Y-153730000D03*
%TO.P,Q3,3,E*%
%TO.N,Net-(Q3-E)*%
X85000000Y-152460000D03*
%TD*%
D24*
%TO.P,C1,1*%
%TO.N,Net-(D35-A)*%
X117500000Y-95000000D03*
%TO.P,C1,2*%
%TO.N,Net-(U1-CV)*%
X112500000Y-95000000D03*
%TD*%
%TO.P,R34,1*%
%TO.N,Net-(Q16-B)*%
X169500000Y-89000000D03*
D25*
%TO.P,R34,2*%
%TO.N,Net-(J202-Pin_1)*%
X169500000Y-73760000D03*
%TD*%
D24*
%TO.P,R2,1*%
%TO.N,Net-(D1-A)*%
X47500000Y-137500000D03*
D25*
%TO.P,R2,2*%
%TO.N,Net-(BZ1-+)*%
X32260000Y-137500000D03*
%TD*%
D24*
%TO.P,R46,1*%
%TO.N,L3*%
X45500000Y-92500000D03*
D25*
%TO.P,R46,2*%
%TO.N,/C*%
X45500000Y-77260000D03*
%TD*%
D24*
%TO.P,R50,1*%
%TO.N,L5*%
X22500000Y-92500000D03*
D25*
%TO.P,R50,2*%
%TO.N,/A*%
X22500000Y-77260000D03*
%TD*%
D24*
%TO.P,C3,1*%
%TO.N,Net-(U2-CV)*%
X152500000Y-97460000D03*
%TO.P,C3,2*%
%TO.N,Net-(D35-A)*%
X147500000Y-97460000D03*
%TD*%
D26*
%TO.P,Q4,1,C*%
%TO.N,Net-(D35-A)*%
X102500000Y-155040000D03*
D27*
%TO.P,Q4,2,B*%
%TO.N,Net-(Q4-B)*%
X102500000Y-153770000D03*
%TO.P,Q4,3,E*%
%TO.N,Net-(Q4-E)*%
X102500000Y-152500000D03*
%TD*%
D33*
%TO.P,D33,1,K*%
%TO.N,Net-(D33-K)*%
X132500000Y-93460000D03*
D34*
%TO.P,D33,2,A*%
%TO.N,Net-(D33-A)*%
X145200000Y-93460000D03*
%TD*%
D24*
%TO.P,R10,1*%
%TO.N,Net-(D5-K)*%
X122000000Y-142600000D03*
D25*
%TO.P,R10,2*%
%TO.N,Net-(Q4-E)*%
X122000000Y-157840000D03*
%TD*%
D24*
%TO.P,R31,1*%
%TO.N,Net-(D15-K)*%
X149500000Y-74500000D03*
D25*
%TO.P,R31,2*%
%TO.N,Net-(Q14-C)*%
X149500000Y-89740000D03*
%TD*%
D24*
%TO.P,R20,1*%
%TO.N,Net-(Q9-B)*%
X58000000Y-89240000D03*
D25*
%TO.P,R20,2*%
%TO.N,Net-(J195-Pin_1)*%
X58000000Y-74000000D03*
%TD*%
D24*
%TO.P,R18,1*%
%TO.N,Net-(D9-K)*%
X177000000Y-142360000D03*
D25*
%TO.P,R18,2*%
%TO.N,Net-(Q8-E)*%
X177000000Y-157600000D03*
%TD*%
D24*
%TO.P,R45,1*%
%TO.N,Net-(U11-2Y)*%
X171060000Y-114000000D03*
D25*
%TO.P,R45,2*%
%TO.N,Net-(J183-Pin_1)*%
X171060000Y-98760000D03*
%TD*%
D24*
%TO.P,R49,1*%
%TO.N,L4*%
X25700000Y-92500000D03*
D25*
%TO.P,R49,2*%
%TO.N,/B*%
X25700000Y-77260000D03*
%TD*%
D24*
%TO.P,R9,1*%
%TO.N,Net-(J207-Pin_1)*%
X111500000Y-142600000D03*
D25*
%TO.P,R9,2*%
%TO.N,Net-(Q4-B)*%
X111500000Y-157840000D03*
%TD*%
D24*
%TO.P,R1,1*%
%TO.N,Net-(J212-Pin_1)*%
X35000000Y-145000000D03*
D25*
%TO.P,R1,2*%
%TO.N,Net-(Q17-B)*%
X35000000Y-160240000D03*
%TD*%
D13*
%TO.P,D36,1,K*%
%TO.N,Net-(D36-K)*%
X75000000Y-120000000D03*
D29*
%TO.P,D36,2,A*%
%TO.N,9V*%
X62300000Y-120000000D03*
%TD*%
D24*
%TO.P,R4,1*%
%TO.N,Net-(D2-K)*%
X66000000Y-137380000D03*
D25*
%TO.P,R4,2*%
%TO.N,Net-(Q1-E)*%
X66000000Y-152620000D03*
%TD*%
D24*
%TO.P,R33,1*%
%TO.N,Net-(D16-K)*%
X165000000Y-74000000D03*
D25*
%TO.P,R33,2*%
%TO.N,Net-(Q15-C)*%
X165000000Y-89240000D03*
%TD*%
D26*
%TO.P,Q11,1,C*%
%TO.N,Net-(Q11-C)*%
X97000000Y-87270000D03*
D27*
%TO.P,Q11,2,B*%
%TO.N,Net-(Q11-B)*%
X97000000Y-86000000D03*
%TO.P,Q11,3,E*%
%TO.N,Net-(D35-A)*%
X97000000Y-84730000D03*
%TD*%
D37*
%TO.P,Q7,1,C*%
%TO.N,Net-(D35-A)*%
X147500000Y-154600000D03*
D38*
%TO.P,Q7,2,B*%
%TO.N,Net-(Q7-B)*%
X146230000Y-154600000D03*
%TO.P,Q7,3,E*%
%TO.N,Net-(Q7-E)*%
X144960000Y-154600000D03*
%TD*%
D24*
%TO.P,R37,1*%
%TO.N,Net-(BZ1--)*%
X90000000Y-105000000D03*
D25*
%TO.P,R37,2*%
%TO.N,Net-(J190-Pin_1)*%
X74760000Y-105000000D03*
%TD*%
D13*
%TO.P,D35,1,K*%
%TO.N,9V*%
X75000000Y-111000000D03*
D29*
%TO.P,D35,2,A*%
%TO.N,Net-(D35-A)*%
X62300000Y-111000000D03*
%TD*%
D24*
%TO.P,R41,1*%
%TO.N,Net-(R40-Pad2)*%
X135000000Y-113460000D03*
D25*
%TO.P,R41,2*%
%TO.N,Net-(J189-Pin_1)*%
X150240000Y-113460000D03*
%TD*%
D24*
%TO.P,R30,1*%
%TO.N,Net-(J200-Pin_1)*%
X136500000Y-74500000D03*
D25*
%TO.P,R30,2*%
%TO.N,Net-(Q14-B)*%
X136500000Y-89740000D03*
%TD*%
D24*
%TO.P,R48,1*%
%TO.N,L1*%
X52500000Y-92500000D03*
D25*
%TO.P,R48,2*%
%TO.N,Net-(U14-E)*%
X52500000Y-77260000D03*
%TD*%
D26*
%TO.P,Q13,1,C*%
%TO.N,Net-(Q13-C)*%
X126000000Y-87270000D03*
D27*
%TO.P,Q13,2,B*%
%TO.N,Net-(Q13-B)*%
X126000000Y-86000000D03*
%TO.P,Q13,3,E*%
%TO.N,Net-(D35-A)*%
X126000000Y-84730000D03*
%TD*%
D24*
%TO.P,C4,1*%
%TO.N,Net-(D35-A)*%
X157500000Y-101960000D03*
%TO.P,C4,2*%
%TO.N,Net-(U2-TR)*%
X157500000Y-106960000D03*
%TD*%
D26*
%TO.P,Q15,1,C*%
%TO.N,Net-(Q15-C)*%
X159000000Y-87270000D03*
D27*
%TO.P,Q15,2,B*%
%TO.N,Net-(Q15-B)*%
X159000000Y-86000000D03*
%TO.P,Q15,3,E*%
%TO.N,Net-(D35-A)*%
X159000000Y-84730000D03*
%TD*%
D24*
%TO.P,R6,1*%
%TO.N,Net-(D3-K)*%
X91500000Y-142600000D03*
D25*
%TO.P,R6,2*%
%TO.N,Net-(Q2-E)*%
X91500000Y-157840000D03*
%TD*%
D26*
%TO.P,Q5,1,C*%
%TO.N,Net-(D35-A)*%
X117500000Y-152500000D03*
D27*
%TO.P,Q5,2,B*%
%TO.N,Net-(Q5-B)*%
X117500000Y-153770000D03*
%TO.P,Q5,3,E*%
%TO.N,Net-(Q5-E)*%
X117500000Y-155040000D03*
%TD*%
D37*
%TO.P,Q8,1,C*%
%TO.N,Net-(D35-A)*%
X162500000Y-154600000D03*
D38*
%TO.P,Q8,2,B*%
%TO.N,Net-(Q8-B)*%
X161230000Y-154600000D03*
%TO.P,Q8,3,E*%
%TO.N,Net-(Q8-E)*%
X159960000Y-154600000D03*
%TD*%
D24*
%TO.P,R28,1*%
%TO.N,Net-(Q13-B)*%
X121000000Y-89500000D03*
D25*
%TO.P,R28,2*%
%TO.N,Net-(J199-Pin_1)*%
X121000000Y-74260000D03*
%TD*%
D24*
%TO.P,R5,1*%
%TO.N,Net-(J209-Pin_1)*%
X79500000Y-142600000D03*
D25*
%TO.P,R5,2*%
%TO.N,Net-(Q2-B)*%
X79500000Y-157840000D03*
%TD*%
D13*
%TO.P,D1,1,K*%
%TO.N,Net-(BZ1--)*%
X27500000Y-137100000D03*
D14*
%TO.P,D1,2,A*%
%TO.N,Net-(D1-A)*%
X24960000Y-137100000D03*
%TD*%
D24*
%TO.P,R38,1*%
%TO.N,Net-(D20-K)*%
X112500000Y-110000000D03*
D25*
%TO.P,R38,2*%
%TO.N,Net-(D35-A)*%
X97260000Y-110000000D03*
%TD*%
D24*
%TO.P,C7,1*%
%TO.N,Net-(D35-A)*%
X62000000Y-127500000D03*
%TO.P,C7,2*%
%TO.N,Net-(D36-K)*%
X62000000Y-132500000D03*
%TD*%
D37*
%TO.P,Q6,1,C*%
%TO.N,Net-(D35-A)*%
X132500000Y-154600000D03*
D38*
%TO.P,Q6,2,B*%
%TO.N,Net-(Q6-B)*%
X131230000Y-154600000D03*
%TO.P,Q6,3,E*%
%TO.N,Net-(Q6-E)*%
X129960000Y-154600000D03*
%TD*%
D31*
%TO.P,U2,1,GND*%
%TO.N,Net-(D35-A)*%
X135000000Y-105000000D03*
D25*
%TO.P,U2,2,TR*%
%TO.N,Net-(U2-TR)*%
X135000000Y-102460000D03*
%TO.P,U2,3,Q*%
%TO.N,Net-(J189-Pin_1)*%
X135000000Y-99920000D03*
%TO.P,U2,4,R*%
%TO.N,Net-(U2-R)*%
X135000000Y-97380000D03*
%TO.P,U2,5,CV*%
%TO.N,Net-(U2-CV)*%
X142620000Y-97380000D03*
%TO.P,U2,6,THR*%
%TO.N,Net-(D33-K)*%
X142620000Y-99920000D03*
%TO.P,U2,7,DIS*%
%TO.N,Net-(D33-A)*%
X142620000Y-102460000D03*
%TO.P,U2,8,VCC*%
%TO.N,Net-(U2-R)*%
X142620000Y-105000000D03*
%TD*%
D26*
%TO.P,Q9,1,C*%
%TO.N,Net-(Q9-C)*%
X64000000Y-87270000D03*
D27*
%TO.P,Q9,2,B*%
%TO.N,Net-(Q9-B)*%
X64000000Y-86000000D03*
%TO.P,Q9,3,E*%
%TO.N,Net-(D35-A)*%
X64000000Y-84730000D03*
%TD*%
D15*
%TO.P,U11,1,1A*%
%TO.N,Net-(U11-1A)*%
X182000000Y-98260000D03*
D16*
%TO.P,U11,2,1B*%
%TO.N,unconnected-(U11-1B-Pad2)*%
X182000000Y-100800000D03*
%TO.P,U11,3,1Y*%
%TO.N,Net-(U11-1Y)*%
X182000000Y-103340000D03*
%TO.P,U11,4,2A*%
X182000000Y-105880000D03*
%TO.P,U11,5,2B*%
%TO.N,Net-(U11-2B)*%
X182000000Y-108420000D03*
%TO.P,U11,6,2Y*%
%TO.N,Net-(U11-2Y)*%
X182000000Y-110960000D03*
%TO.P,U11,7,GND*%
%TO.N,Net-(J185-Pin_1)*%
X182000000Y-113500000D03*
%TO.P,U11,8,3Y*%
%TO.N,unconnected-(U11-3Y-Pad8)*%
X174060000Y-113500000D03*
%TO.P,U11,9,3A*%
%TO.N,unconnected-(U11-3A-Pad9)*%
X174060000Y-110960000D03*
%TO.P,U11,10,3B*%
%TO.N,unconnected-(U11-3B-Pad10)*%
X174060000Y-108420000D03*
%TO.P,U11,11,4Y*%
%TO.N,unconnected-(U11-4Y-Pad11)*%
X174060000Y-105880000D03*
%TO.P,U11,12,4A*%
%TO.N,unconnected-(U11-4A-Pad12)*%
X174060000Y-103340000D03*
%TO.P,U11,13,4B*%
%TO.N,unconnected-(U11-4B-Pad13)*%
X174060000Y-100800000D03*
%TO.P,U11,14,VCC*%
%TO.N,Net-(BZ1--)*%
X174060000Y-98260000D03*
%TD*%
D39*
%TO.N,L1*%
X45000000Y-100000000D03*
X45000000Y-100000000D03*
X45000000Y-100000000D03*
%TD*%
D40*
%TO.N,GND*%
X89500000Y-118000000D02*
X92500000Y-115000000D01*
X79800000Y-118000000D02*
X89500000Y-118000000D01*
X92500000Y-115000000D02*
X92500000Y-111000000D01*
%TO.N,/F*%
X27782843Y-82782843D02*
X25565685Y-85000000D01*
X30000000Y-78730000D02*
X28769634Y-79960366D01*
X37940000Y-89249634D02*
X34345183Y-85654817D01*
X28769634Y-79960366D02*
X28769634Y-81796052D01*
X25565685Y-85000000D02*
X17500000Y-85000000D01*
X34345183Y-82840868D02*
X30234315Y-78730000D01*
X15700000Y-83200000D02*
X15700000Y-77200000D01*
X30234315Y-78730000D02*
X30000000Y-78730000D01*
X34345183Y-85654817D02*
X34345183Y-82840868D01*
X28769634Y-81796052D02*
X27782843Y-82782843D01*
X17500000Y-85000000D02*
X15700000Y-83200000D01*
X37940000Y-90160000D02*
X37940000Y-89249634D01*
%TO.N,Net-(J214-Pin_1)*%
X37900000Y-98625686D02*
X30304314Y-91030000D01*
X27500000Y-90000000D02*
X27500000Y-83631372D01*
X37900000Y-105000000D02*
X37900000Y-98625686D01*
X27500000Y-83631372D02*
X30000000Y-81131372D01*
X30304314Y-91030000D02*
X28530000Y-91030000D01*
X41500000Y-106500000D02*
X40000000Y-105000000D01*
X28530000Y-91030000D02*
X27500000Y-90000000D01*
X40000000Y-105000000D02*
X37900000Y-105000000D01*
X41500000Y-119500000D02*
X41500000Y-106500000D01*
X30000000Y-81131372D02*
X30000000Y-80000000D01*
%TO.N,Net-(J215-Pin_1)*%
X45000000Y-107500000D02*
X45000000Y-122500000D01*
X35000000Y-122500000D02*
X35000000Y-120000000D01*
X35000000Y-120000000D02*
X35500000Y-119500000D01*
X35500000Y-119500000D02*
X36500000Y-119500000D01*
X33410000Y-93570000D02*
X33570000Y-93570000D01*
X30000000Y-90160000D02*
X33410000Y-93570000D01*
X40000000Y-100000000D02*
X40000000Y-102500000D01*
X33570000Y-93570000D02*
X40000000Y-100000000D01*
X45000000Y-122500000D02*
X35000000Y-122500000D01*
X40000000Y-102500000D02*
X45000000Y-107500000D01*
%TO.N,/D*%
X40000000Y-75400000D02*
X47140000Y-75400000D01*
X47140000Y-75400000D02*
X49000000Y-77260000D01*
X40000000Y-75400000D02*
X37940000Y-77460000D01*
%TO.N,Net-(D35-A)*%
X92500000Y-107500000D02*
X95000000Y-110000000D01*
X57500000Y-155000000D02*
X57500000Y-166560000D01*
X120000000Y-105000000D02*
X118000000Y-105000000D01*
X158080000Y-171520000D02*
X158080000Y-169000000D01*
X64000000Y-84730000D02*
X72230000Y-84730000D01*
X144618274Y-164461726D02*
X146328274Y-166171726D01*
X56579685Y-170154000D02*
X55242842Y-168817157D01*
X133880000Y-98480000D02*
X132900000Y-99460000D01*
X57500000Y-115000000D02*
X57500000Y-120878679D01*
X55000000Y-155000000D02*
X55000000Y-142500000D01*
X204434314Y-125565686D02*
X186934314Y-125565686D01*
X50000000Y-142500000D02*
X50000000Y-135000000D01*
X97000000Y-84730000D02*
X87770000Y-84730000D01*
X45000000Y-142500000D02*
X50000000Y-142500000D01*
X84446000Y-169536582D02*
X85063418Y-170154000D01*
X75065686Y-106861321D02*
X80000000Y-106861321D01*
X115000000Y-160000000D02*
X107649418Y-160000000D01*
X135115635Y-98480000D02*
X133880000Y-98480000D01*
X63500000Y-126878679D02*
X63500000Y-128121321D01*
X98760000Y-111500000D02*
X113121321Y-111500000D01*
X137976582Y-170054000D02*
X136054000Y-170054000D01*
X43770000Y-148600000D02*
X45000000Y-147370000D01*
X97260000Y-110000000D02*
X98760000Y-111500000D01*
X170950000Y-175400000D02*
X24834315Y-175400000D01*
X174080000Y-169000000D02*
X173500000Y-169000000D01*
X188050000Y-141312943D02*
X188050000Y-158300000D01*
X122654365Y-84730000D02*
X126000000Y-84730000D01*
X181340000Y-131160000D02*
X181340000Y-137997057D01*
X120000000Y-95000000D02*
X120000000Y-105000000D01*
X45000000Y-147370000D02*
X45000000Y-142500000D01*
X85407818Y-87092182D02*
X87600000Y-89284365D01*
X72500000Y-166934315D02*
X73554000Y-167988315D01*
X72500000Y-155000000D02*
X71450000Y-155000000D01*
X57500000Y-155000000D02*
X55000000Y-155000000D01*
X186934314Y-125565686D02*
X181340000Y-131160000D01*
X92500000Y-106861321D02*
X92500000Y-107500000D01*
X50000000Y-135000000D02*
X57500000Y-127500000D01*
X65620635Y-154555000D02*
X56933274Y-154555000D01*
X200000000Y-115000000D02*
X207500000Y-122500000D01*
X207500000Y-122500000D02*
X204434314Y-125565686D01*
X60140000Y-80870000D02*
X64000000Y-84730000D01*
X136100000Y-99464365D02*
X135115635Y-98480000D01*
X72500000Y-155000000D02*
X72500000Y-166934315D01*
X181340000Y-137002943D02*
X182042943Y-136300000D01*
X72500000Y-85000000D02*
X83315635Y-85000000D01*
X159000000Y-84730000D02*
X174500000Y-84730000D01*
X90215635Y-155000000D02*
X92600000Y-157384365D01*
X188050000Y-158300000D02*
X170950000Y-175400000D01*
X135000000Y-116604365D02*
X131455635Y-113060000D01*
X135000000Y-120000000D02*
X135000000Y-116604365D01*
X62300000Y-114800000D02*
X62100000Y-115000000D01*
X72230000Y-84730000D02*
X72500000Y-85000000D01*
X62300000Y-111000000D02*
X62300000Y-114800000D01*
X97457157Y-160082843D02*
X102500000Y-155040000D01*
X162500000Y-154600000D02*
X170935635Y-154600000D01*
X60165685Y-137100000D02*
X67100000Y-144034315D01*
X92600000Y-157384365D02*
X92600000Y-159460000D01*
X33434314Y-126000000D02*
X62621321Y-126000000D01*
X67100000Y-153075635D02*
X65620635Y-154555000D01*
X97500000Y-167500000D02*
X98008000Y-167500000D01*
X146850000Y-155650000D02*
X147500000Y-155000000D01*
X142360000Y-84730000D02*
X146045635Y-84730000D01*
X83315635Y-85000000D02*
X85407818Y-87092182D01*
X135000000Y-105000000D02*
X136100000Y-103900000D01*
X84775000Y-155000000D02*
X81410000Y-151635000D01*
X79800000Y-111000000D02*
X79800000Y-107061321D01*
X200000000Y-114500000D02*
X200000000Y-115000000D01*
X157500000Y-172100000D02*
X158080000Y-171520000D01*
X100138679Y-111500000D02*
X113121321Y-111500000D01*
X95000000Y-110000000D02*
X96819339Y-108180661D01*
X87770000Y-84730000D02*
X85407818Y-87092182D01*
X155154365Y-84730000D02*
X159000000Y-84730000D01*
X139026000Y-167946000D02*
X139026000Y-169004582D01*
X62300000Y-97700000D02*
X62500000Y-97500000D01*
X119100000Y-105521321D02*
X119100000Y-96600000D01*
X35950000Y-70950000D02*
X35000000Y-70000000D01*
X185421472Y-142078528D02*
X185421472Y-142521472D01*
X131455635Y-113060000D02*
X130544365Y-113060000D01*
X92600000Y-159460000D02*
X84446000Y-167614000D01*
X170935635Y-154600000D02*
X173600000Y-157264365D01*
X183037057Y-136300000D02*
X188050000Y-141312943D01*
X97500000Y-167500000D02*
X97500000Y-162500000D01*
X150078274Y-169921726D02*
X150078274Y-170078274D01*
X98986000Y-168663418D02*
X98986000Y-171086000D01*
X147500000Y-155000000D02*
X147500000Y-154600000D01*
X98986000Y-168478000D02*
X98986000Y-169536582D01*
X87600000Y-89284365D02*
X87600000Y-90604365D01*
X73660000Y-105455635D02*
X75065686Y-106861321D01*
X146045635Y-84730000D02*
X150600000Y-89284365D01*
X136100000Y-103900000D02*
X136100000Y-99464365D01*
X76036315Y-167988315D02*
X76036315Y-168103685D01*
X73554000Y-167988315D02*
X76036315Y-167988315D01*
X142040000Y-167040000D02*
X144618274Y-164461726D01*
X102500000Y-155040000D02*
X107460000Y-160000000D01*
X113121321Y-111500000D02*
X118000000Y-106621321D01*
X81410000Y-151635000D02*
X71933274Y-151635000D01*
X144618274Y-164461726D02*
X144618274Y-155650000D01*
X132900000Y-99460000D02*
X132900000Y-111615635D01*
X68795000Y-93745000D02*
X68795000Y-95000000D01*
X135000000Y-125000000D02*
X135000000Y-120000000D01*
X147500000Y-97460000D02*
X152000000Y-101960000D01*
X67500000Y-97500000D02*
X67500000Y-95000000D01*
X85000000Y-155000000D02*
X90215635Y-155000000D01*
X71450000Y-152118274D02*
X71450000Y-155000000D01*
X98986000Y-169536582D02*
X99603418Y-170154000D01*
X67100000Y-144034315D02*
X67100000Y-153075635D01*
X57500000Y-120878679D02*
X63500000Y-126878679D01*
X86554000Y-169536582D02*
X85936582Y-170154000D01*
X152100000Y-172100000D02*
X157500000Y-172100000D01*
X152000000Y-101960000D02*
X157500000Y-101960000D01*
X71933274Y-151635000D02*
X71450000Y-152118274D01*
X107460000Y-160000000D02*
X115000000Y-160000000D01*
X113980000Y-174600000D02*
X119580000Y-169000000D01*
X19600000Y-139834314D02*
X33434314Y-126000000D01*
X130544365Y-113060000D02*
X122484365Y-105000000D01*
X112000000Y-84960000D02*
X113775635Y-84960000D01*
X101526000Y-170154000D02*
X102580000Y-169100000D01*
X98008000Y-167500000D02*
X98986000Y-168478000D01*
X139026000Y-169004582D02*
X137976582Y-170054000D01*
X58554000Y-167614000D02*
X58554000Y-169536582D01*
X122484365Y-105000000D02*
X120000000Y-105000000D01*
X182042943Y-136300000D02*
X183037057Y-136300000D01*
X107649418Y-160000000D02*
X98986000Y-168663418D01*
X150600000Y-94360000D02*
X147500000Y-97460000D01*
X136054000Y-170054000D02*
X135000000Y-169000000D01*
X73660000Y-104544365D02*
X73660000Y-105455635D01*
X76036315Y-167988315D02*
X77500000Y-169452000D01*
X132900000Y-111615635D02*
X131455635Y-113060000D01*
X135000000Y-125000000D02*
X122460000Y-125000000D01*
X173600000Y-157264365D02*
X173600000Y-164400000D01*
X57500000Y-166560000D02*
X58554000Y-167614000D01*
X142040000Y-167040000D02*
X141134000Y-167946000D01*
X55000000Y-142500000D02*
X50000000Y-142500000D01*
X186450000Y-143550000D02*
X186450000Y-152500000D01*
X115000000Y-152500000D02*
X117500000Y-152500000D01*
X56508274Y-154130000D02*
X49300000Y-154130000D01*
X141134000Y-167946000D02*
X139026000Y-167946000D01*
X57500000Y-127500000D02*
X62000000Y-127500000D01*
X96819339Y-108180661D02*
X100138679Y-111500000D01*
X87600000Y-90604365D02*
X73660000Y-104544365D01*
X63500000Y-128121321D02*
X60165685Y-131455636D01*
X86554000Y-168611686D02*
X86554000Y-169536582D01*
X84446000Y-167614000D02*
X84446000Y-169536582D01*
X24834315Y-175400000D02*
X19600000Y-170165685D01*
X80000000Y-106861321D02*
X92500000Y-106861321D01*
X118100000Y-89284365D02*
X118100000Y-94400000D01*
X185421472Y-142521472D02*
X186450000Y-143550000D01*
X113775635Y-84960000D02*
X118100000Y-89284365D01*
X102500000Y-174600000D02*
X113980000Y-174600000D01*
X150078274Y-170078274D02*
X152100000Y-172100000D01*
X146328274Y-166171726D02*
X150078274Y-169921726D01*
X72500000Y-90040000D02*
X68795000Y-93745000D01*
X118100000Y-94400000D02*
X117500000Y-95000000D01*
X150600000Y-89284365D02*
X155154365Y-84730000D01*
X62100000Y-115000000D02*
X57500000Y-115000000D01*
X62500000Y-97500000D02*
X67500000Y-97500000D01*
X58554000Y-169536582D02*
X57936582Y-170154000D01*
X49300000Y-154130000D02*
X43770000Y-148600000D01*
X98986000Y-171086000D02*
X102500000Y-174600000D01*
X119100000Y-96600000D02*
X117500000Y-95000000D01*
X132960000Y-154140000D02*
X143108274Y-154140000D01*
X126000000Y-84730000D02*
X142360000Y-84730000D01*
X118000000Y-106621321D02*
X118000000Y-105000000D01*
X117500000Y-95000000D02*
X120000000Y-95000000D01*
X173600000Y-164400000D02*
X148100000Y-164400000D01*
X97500000Y-162500000D02*
X95082843Y-160082843D01*
X72500000Y-85000000D02*
X72500000Y-90040000D01*
X56933274Y-154555000D02*
X56508274Y-154130000D01*
X115000000Y-160000000D02*
X115000000Y-152500000D01*
X77500000Y-172500000D02*
X84240000Y-172500000D01*
X143108274Y-154140000D02*
X144618274Y-155650000D01*
X62300000Y-111000000D02*
X62300000Y-97700000D01*
X125000000Y-125000000D02*
X122460000Y-125000000D01*
X76036315Y-168103685D02*
X75322843Y-168817157D01*
X62621321Y-126000000D02*
X63500000Y-126878679D01*
X132500000Y-154600000D02*
X132960000Y-154140000D01*
X118100000Y-89284365D02*
X122654365Y-84730000D01*
X79800000Y-107061321D02*
X80000000Y-106861321D01*
X77500000Y-169452000D02*
X77500000Y-172500000D01*
X148100000Y-164400000D02*
X146328274Y-166171726D01*
X35950000Y-80870000D02*
X60140000Y-80870000D01*
X95082843Y-160082843D02*
X86554000Y-168611686D01*
X181340000Y-137997057D02*
X185421472Y-142078528D01*
X85000000Y-155000000D02*
X84775000Y-155000000D01*
X181340000Y-147390000D02*
X181340000Y-137002943D01*
X30000000Y-70000000D02*
X30000000Y-74920000D01*
X85936582Y-170154000D02*
X85063418Y-170154000D01*
X150600000Y-89284365D02*
X150600000Y-94360000D01*
X186450000Y-152500000D02*
X181340000Y-147390000D01*
X99603418Y-170154000D02*
X101526000Y-170154000D01*
X35950000Y-80870000D02*
X35950000Y-70950000D01*
X95082843Y-160082843D02*
X97457157Y-160082843D01*
X35000000Y-70000000D02*
X30000000Y-70000000D01*
X19600000Y-170165685D02*
X19600000Y-139834314D01*
X113121321Y-111500000D02*
X119100000Y-105521321D01*
X60165685Y-131455636D02*
X60165685Y-137100000D01*
X144618274Y-155650000D02*
X146850000Y-155650000D01*
X84240000Y-172500000D02*
X87640000Y-169100000D01*
X68795000Y-95000000D02*
X67500000Y-95000000D01*
X57936582Y-170154000D02*
X56579685Y-170154000D01*
%TO.N,Net-(J216-Pin_1)*%
X37500000Y-100000000D02*
X37500000Y-112500000D01*
X30000000Y-92700000D02*
X30200000Y-92700000D01*
X37500000Y-112500000D02*
X31500000Y-118500000D01*
X31500000Y-118500000D02*
X31500000Y-119500000D01*
X30200000Y-92700000D02*
X37500000Y-100000000D01*
%TO.N,Net-(BZ1--)*%
X117380000Y-125000000D02*
X125000000Y-117380000D01*
X63599427Y-95000000D02*
X57500000Y-101099427D01*
X27900000Y-175000000D02*
X50000000Y-175000000D01*
X20000000Y-147700000D02*
X20000000Y-170000000D01*
X165000000Y-170000000D02*
X165454000Y-170454000D01*
X50000000Y-175000000D02*
X55000000Y-175000000D01*
X21100000Y-170000000D02*
X22000000Y-169100000D01*
X187650000Y-156300000D02*
X186450000Y-157500000D01*
X144540000Y-62960000D02*
X145000000Y-62500000D01*
X160000000Y-172500000D02*
X162500000Y-172500000D01*
X12100000Y-125165685D02*
X12100000Y-74834315D01*
X122540000Y-135000000D02*
X120040000Y-137500000D01*
X186947057Y-153700000D02*
X185952943Y-153700000D01*
X170000000Y-145000000D02*
X174547057Y-145000000D01*
X97665685Y-172665685D02*
X97665685Y-169500000D01*
X128040000Y-67500000D02*
X128040000Y-63040000D01*
X107500000Y-132500000D02*
X108620000Y-133620000D01*
X175040000Y-67500000D02*
X177500000Y-67500000D01*
X92334315Y-134600000D02*
X99600000Y-134600000D01*
X116160000Y-126220000D02*
X116160000Y-133620000D01*
X50500000Y-113000000D02*
X50000000Y-112500000D01*
X55000000Y-82500000D02*
X55000000Y-117065686D01*
X145040000Y-135000000D02*
X147540000Y-137500000D01*
X22000000Y-147600000D02*
X22000000Y-138000000D01*
X176540000Y-166540000D02*
X185580000Y-157500000D01*
X22000000Y-169100000D02*
X27900000Y-175000000D01*
X62665685Y-64600000D02*
X64725685Y-62540000D01*
X175290000Y-169280582D02*
X175290000Y-167790000D01*
X81540000Y-64040000D02*
X80000000Y-62500000D01*
X81540000Y-67500000D02*
X81540000Y-64040000D01*
X60040000Y-169100000D02*
X60040000Y-174960000D01*
X185952943Y-153700000D02*
X175900000Y-143647057D01*
X108620000Y-133620000D02*
X116160000Y-133620000D01*
X116160000Y-133620000D02*
X120040000Y-137500000D01*
X55000000Y-82500000D02*
X55000000Y-95000000D01*
X40000000Y-90640000D02*
X40000000Y-82500000D01*
X112540000Y-67500000D02*
X112540000Y-62540000D01*
X12100000Y-74834315D02*
X22334315Y-64600000D01*
X165000000Y-137500000D02*
X170000000Y-142500000D01*
X80000000Y-62500000D02*
X97500000Y-62500000D01*
X132500000Y-135000000D02*
X145040000Y-135000000D01*
X110000000Y-98680000D02*
X102380000Y-106300000D01*
X75040000Y-172540000D02*
X73399999Y-172540000D01*
X140000000Y-169400000D02*
X140080000Y-169400000D01*
X151140000Y-133900000D02*
X147540000Y-137500000D01*
X46665686Y-125400000D02*
X12334315Y-125400000D01*
X175900000Y-141904365D02*
X176544365Y-141260000D01*
X188500000Y-118748420D02*
X188500000Y-122000000D01*
X145000000Y-62500000D02*
X160000000Y-62500000D01*
X181633420Y-112615000D02*
X182366580Y-112615000D01*
X107000000Y-131700000D02*
X107500000Y-132200000D01*
X156594000Y-169436582D02*
X156594000Y-168563418D01*
X153000000Y-169000000D02*
X156717157Y-165282843D01*
X185580000Y-157500000D02*
X186450000Y-157500000D01*
X64950000Y-95000000D02*
X63599427Y-95000000D01*
X22000000Y-147600000D02*
X20100000Y-147600000D01*
X132500000Y-135000000D02*
X132500000Y-130000000D01*
X144540000Y-67500000D02*
X144540000Y-62960000D01*
X64725685Y-62540000D02*
X65040000Y-62540000D01*
X127500000Y-62500000D02*
X145000000Y-62500000D01*
X175900000Y-143647057D02*
X175900000Y-141904365D01*
X73399999Y-172540000D02*
X70242842Y-169382843D01*
X154580000Y-172500000D02*
X140000000Y-172500000D01*
X119580000Y-172920000D02*
X132080000Y-172920000D01*
X160540000Y-67500000D02*
X160540000Y-63040000D01*
X26300000Y-135900000D02*
X27500000Y-137100000D01*
X87500000Y-172500000D02*
X85000000Y-175000000D01*
X155103418Y-170054000D02*
X155976582Y-170054000D01*
X187650000Y-142610000D02*
X187650000Y-152997057D01*
X165454000Y-170454000D02*
X174116582Y-170454000D01*
X155976582Y-170054000D02*
X156594000Y-169436582D01*
X128040000Y-63040000D02*
X127500000Y-62500000D01*
X170000000Y-142500000D02*
X170000000Y-145000000D01*
X154580000Y-172500000D02*
X160000000Y-172500000D01*
X187650000Y-142610000D02*
X187650000Y-156300000D01*
X105800000Y-131700000D02*
X107000000Y-131700000D01*
X97500000Y-62500000D02*
X127500000Y-62500000D01*
X140000000Y-172500000D02*
X140000000Y-169400000D01*
X175290000Y-167790000D02*
X176540000Y-166540000D01*
X100000000Y-175000000D02*
X97665685Y-172665685D01*
X37940000Y-92700000D02*
X40000000Y-90640000D01*
X72500000Y-137500000D02*
X73700000Y-136300000D01*
X60040000Y-174960000D02*
X60000000Y-175000000D01*
X73700000Y-136300000D02*
X86340000Y-136300000D01*
X24100000Y-135900000D02*
X26300000Y-135900000D01*
X132500000Y-135000000D02*
X122540000Y-135000000D01*
X174060000Y-98260000D02*
X178260000Y-98260000D01*
X55000000Y-175000000D02*
X60000000Y-175000000D01*
X157657418Y-167500000D02*
X160000000Y-167500000D01*
X55000000Y-95000000D02*
X64950000Y-95000000D01*
X65040000Y-62540000D02*
X65000000Y-62500000D01*
X117380000Y-125000000D02*
X116160000Y-126220000D01*
X55000000Y-117065686D02*
X46665686Y-125400000D01*
X22334315Y-64600000D02*
X62665685Y-64600000D01*
X160540000Y-63040000D02*
X160000000Y-62500000D01*
X176544365Y-128455635D02*
X181115000Y-123885000D01*
X181115000Y-113133420D02*
X181633420Y-112615000D01*
X164717157Y-165282843D02*
X168717157Y-169282843D01*
X160000000Y-62500000D02*
X177500000Y-62500000D01*
X82500000Y-169560000D02*
X82960000Y-169100000D01*
X99600000Y-134600000D02*
X102500000Y-137500000D01*
X100000000Y-175000000D02*
X105000000Y-175000000D01*
X119580000Y-172920000D02*
X117500000Y-175000000D01*
X177500000Y-62500000D02*
X177500000Y-67500000D01*
X187525000Y-121025000D02*
X188500000Y-122000000D01*
X40000000Y-82500000D02*
X55000000Y-82500000D01*
X65000000Y-62500000D02*
X80000000Y-62500000D01*
X100000000Y-175000000D02*
X92500000Y-175000000D01*
X50000000Y-107500000D02*
X45000000Y-102500000D01*
X174116582Y-170454000D02*
X175290000Y-169280582D01*
X162500000Y-172500000D02*
X165000000Y-170000000D01*
X102500000Y-137500000D02*
X102500000Y-135000000D01*
X180000000Y-100000000D02*
X180000000Y-107671580D01*
X165000000Y-137500000D02*
X161400000Y-133900000D01*
X160000000Y-172500000D02*
X160000000Y-167500000D01*
X97665685Y-169500000D02*
X97782843Y-169382842D01*
X86340000Y-136300000D02*
X87540000Y-137500000D01*
X20000000Y-170000000D02*
X21100000Y-170000000D01*
X161400000Y-133900000D02*
X151140000Y-133900000D01*
X97500000Y-67500000D02*
X97500000Y-62500000D01*
X178260000Y-98260000D02*
X180000000Y-100000000D01*
X22000000Y-138000000D02*
X24100000Y-135900000D01*
X182366580Y-112615000D02*
X188500000Y-118748420D01*
X156594000Y-168563418D02*
X157657418Y-167500000D01*
X187525000Y-115196580D02*
X187525000Y-121025000D01*
X92334315Y-134600000D02*
X89434315Y-137500000D01*
X57500000Y-113000000D02*
X50500000Y-113000000D01*
X182540000Y-137500000D02*
X187650000Y-142610000D01*
X180000000Y-107671580D02*
X187525000Y-115196580D01*
X117500000Y-175000000D02*
X105000000Y-175000000D01*
X60000000Y-175000000D02*
X77500000Y-175000000D01*
X102500000Y-135000000D02*
X105800000Y-131700000D01*
X176544365Y-141260000D02*
X176544365Y-128455635D01*
X92500000Y-175000000D02*
X90000000Y-172500000D01*
X107500000Y-132200000D02*
X107500000Y-132500000D01*
X90000000Y-172500000D02*
X87500000Y-172500000D01*
X153000000Y-169000000D02*
X154049418Y-169000000D01*
X12334315Y-125400000D02*
X12100000Y-125165685D01*
X154049418Y-169000000D02*
X155103418Y-170054000D01*
X174547057Y-145000000D02*
X175900000Y-143647057D01*
X181115000Y-123885000D02*
X181115000Y-113133420D01*
X132080000Y-172920000D02*
X132500000Y-172500000D01*
X20100000Y-147600000D02*
X20000000Y-147700000D01*
X187650000Y-152997057D02*
X186947057Y-153700000D01*
X140000000Y-172500000D02*
X132500000Y-172500000D01*
X156717157Y-165282843D02*
X164717157Y-165282843D01*
X77500000Y-175000000D02*
X75040000Y-172540000D01*
X85000000Y-175000000D02*
X77500000Y-175000000D01*
X89434315Y-137500000D02*
X87540000Y-137500000D01*
X50000000Y-112500000D02*
X50000000Y-107500000D01*
X57500000Y-101099427D02*
X57500000Y-113000000D01*
%TO.N,Net-(J213-Pin_1)*%
X27460000Y-80000000D02*
X30000000Y-77460000D01*
X20000000Y-76444365D02*
X22500000Y-78944365D01*
X47000000Y-124500000D02*
X46500000Y-125000000D01*
X46500000Y-125000000D02*
X12500000Y-125000000D01*
X12500000Y-75000000D02*
X20000000Y-75000000D01*
X22500000Y-80000000D02*
X27460000Y-80000000D01*
X22500000Y-78944365D02*
X22500000Y-80000000D01*
X47000000Y-119500000D02*
X47000000Y-124500000D01*
X12500000Y-125000000D02*
X12500000Y-75000000D01*
X20000000Y-75000000D02*
X20000000Y-76444365D01*
%TO.N,/G*%
X29735685Y-78330000D02*
X32500000Y-78330000D01*
X27500000Y-82500000D02*
X27500000Y-80565685D01*
X27500000Y-80565685D02*
X29735685Y-78330000D01*
X22500000Y-82500000D02*
X27500000Y-82500000D01*
X32500000Y-78330000D02*
X32500000Y-80430000D01*
X19200000Y-77200000D02*
X19200000Y-79200000D01*
X32500000Y-80430000D02*
X34785000Y-82715000D01*
X19200000Y-79200000D02*
X22500000Y-82500000D01*
X34785000Y-82715000D02*
X34785000Y-84465000D01*
X34785000Y-84465000D02*
X37940000Y-87620000D01*
%TO.N,/C*%
X37940000Y-80000000D02*
X40680000Y-77260000D01*
X40680000Y-77260000D02*
X45500000Y-77260000D01*
%TO.N,/A*%
X32500000Y-75000000D02*
X33948628Y-75000000D01*
X30910000Y-76590000D02*
X32500000Y-75000000D01*
X22500000Y-77500000D02*
X23360000Y-78360000D01*
X26640000Y-78360000D02*
X27500000Y-77500000D01*
X37940000Y-83991372D02*
X37940000Y-85080000D01*
X28730366Y-77500000D02*
X28730366Y-77499268D01*
X34474314Y-80525686D02*
X37940000Y-83991372D01*
X28730366Y-77499268D02*
X29639634Y-76590000D01*
X22500000Y-77260000D02*
X22500000Y-77500000D01*
X34474314Y-75525686D02*
X34474314Y-80525686D01*
X33948628Y-75000000D02*
X34474314Y-75525686D01*
X23360000Y-78360000D02*
X26640000Y-78360000D01*
X27500000Y-77500000D02*
X28730366Y-77500000D01*
X29639634Y-76590000D02*
X30910000Y-76590000D01*
%TO.N,/B*%
X27170000Y-75790000D02*
X25700000Y-77260000D01*
X35000000Y-72500000D02*
X32500000Y-72500000D01*
X32500000Y-72500000D02*
X32500000Y-73650366D01*
X35000000Y-80485685D02*
X35000000Y-72500000D01*
X30360366Y-75790000D02*
X27170000Y-75790000D01*
X37940000Y-82540000D02*
X37054315Y-82540000D01*
X32500000Y-73650366D02*
X30360366Y-75790000D01*
X37054315Y-82540000D02*
X35000000Y-80485685D01*
%TO.N,Net-(U14-E)*%
X48100000Y-72860000D02*
X52500000Y-77260000D01*
X37940000Y-74920000D02*
X40000000Y-72860000D01*
X40000000Y-72860000D02*
X48100000Y-72860000D01*
%TO.N,Net-(U11-2B)*%
X187422500Y-100000000D02*
X187422500Y-102997500D01*
X187422500Y-102997500D02*
X182000000Y-108420000D01*
%TO.N,Net-(U11-1Y)*%
X182000000Y-103340000D02*
X182000000Y-105880000D01*
%TO.N,Net-(U11-2Y)*%
X180000000Y-112960000D02*
X182000000Y-110960000D01*
X180000000Y-115000000D02*
X180000000Y-112960000D01*
X172060000Y-115000000D02*
X180000000Y-115000000D01*
X171060000Y-114000000D02*
X172060000Y-115000000D01*
%TO.N,Net-(U11-1A)*%
X190682500Y-98260000D02*
X192422500Y-100000000D01*
X182000000Y-98260000D02*
X190682500Y-98260000D01*
%TO.N,Net-(J185-Pin_1)*%
X187422500Y-106000000D02*
X192422500Y-106000000D01*
X192422500Y-106000000D02*
X191711250Y-106711250D01*
X195000000Y-121500000D02*
X194500000Y-122000000D01*
X191711250Y-124211250D02*
X190788750Y-124211250D01*
X193922500Y-122000000D02*
X194500000Y-122000000D01*
X191711250Y-106711250D02*
X191711250Y-124211250D01*
X195000000Y-114500000D02*
X195000000Y-121500000D01*
X182000000Y-122000000D02*
X185000000Y-125000000D01*
X185000000Y-125000000D02*
X190000000Y-125000000D01*
X182000000Y-113500000D02*
X182000000Y-122000000D01*
X190788750Y-124211250D02*
X190000000Y-125000000D01*
X191711250Y-124211250D02*
X193922500Y-122000000D01*
%TO.N,Net-(D34-K)*%
X120000000Y-120000000D02*
X120000000Y-117500000D01*
X115000000Y-112500000D02*
X109404365Y-112500000D01*
X117300000Y-120000000D02*
X119920000Y-117380000D01*
X120000000Y-117500000D02*
X119920000Y-117420000D01*
X105900000Y-116004365D02*
X105900000Y-116915635D01*
X105900000Y-116915635D02*
X108984365Y-120000000D01*
X119920000Y-117420000D02*
X119920000Y-117380000D01*
X112500000Y-131460000D02*
X112500000Y-127500000D01*
X109404365Y-112500000D02*
X105900000Y-116004365D01*
X112500000Y-127500000D02*
X120000000Y-120000000D01*
X108984365Y-120000000D02*
X117300000Y-120000000D01*
%TO.N,Net-(D34-A)*%
X121300000Y-116220000D02*
X122460000Y-117380000D01*
X112500000Y-116220000D02*
X121300000Y-116220000D01*
X112260000Y-116460000D02*
X112500000Y-116220000D01*
X107000000Y-116460000D02*
X112260000Y-116460000D01*
X127340000Y-112500000D02*
X127700000Y-112500000D01*
X122460000Y-117380000D02*
X127340000Y-112500000D01*
%TO.N,Net-(D7-K)*%
X148800000Y-138700000D02*
X152500000Y-135000000D01*
X145000000Y-137500000D02*
X146200000Y-138700000D01*
X146200000Y-138700000D02*
X148800000Y-138700000D01*
%TO.N,Net-(Q6-E)*%
X129960000Y-154478274D02*
X134198274Y-150240000D01*
X129960000Y-154600000D02*
X129960000Y-154478274D01*
X134198274Y-150240000D02*
X152500000Y-150240000D01*
%TO.N,Net-(J188-Pin_1)*%
X119920000Y-127340000D02*
X117260000Y-130000000D01*
X215000000Y-140000000D02*
X207500000Y-140000000D01*
X209025000Y-111525000D02*
X209025000Y-117500000D01*
X167500000Y-100764365D02*
X171289365Y-96975000D01*
X140000000Y-127500000D02*
X120080000Y-127500000D01*
X120080000Y-127500000D02*
X119920000Y-127340000D01*
X167500000Y-113065685D02*
X167500000Y-100764365D01*
X207500000Y-140000000D02*
X202500000Y-145000000D01*
X209025000Y-117500000D02*
X215000000Y-117500000D01*
X194475000Y-96975000D02*
X209025000Y-111525000D01*
X171289365Y-96975000D02*
X194475000Y-96975000D01*
X140000000Y-120000000D02*
X160565685Y-120000000D01*
X160565685Y-120000000D02*
X167500000Y-113065685D01*
X119920000Y-125000000D02*
X119920000Y-127340000D01*
X140000000Y-120000000D02*
X140000000Y-127500000D01*
X215000000Y-117500000D02*
X215000000Y-140000000D01*
%TO.N,Net-(Q4-B)*%
X102500000Y-153770000D02*
X107430000Y-153770000D01*
X107430000Y-153770000D02*
X111500000Y-157840000D01*
%TO.N,Net-(J207-Pin_1)*%
X128000000Y-157218679D02*
X113381321Y-142600000D01*
X128000000Y-158461321D02*
X128000000Y-157218679D01*
X113381321Y-142600000D02*
X111500000Y-142600000D01*
X101094000Y-168046000D02*
X107500000Y-168046000D01*
X100040000Y-169100000D02*
X101094000Y-168046000D01*
X112500000Y-137500000D02*
X112500000Y-141600000D01*
X115000000Y-172500000D02*
X115554000Y-171946000D01*
X107500000Y-172500000D02*
X115000000Y-172500000D01*
X115554000Y-171946000D02*
X115554000Y-168995418D01*
X123961321Y-162500000D02*
X128000000Y-158461321D01*
X112500000Y-141600000D02*
X111500000Y-142600000D01*
X107500000Y-168046000D02*
X107500000Y-172500000D01*
X115554000Y-168995418D02*
X122049418Y-162500000D01*
X122049418Y-162500000D02*
X123961321Y-162500000D01*
%TO.N,Net-(J189-Pin_1)*%
X207500000Y-95000000D02*
X210000000Y-97500000D01*
X142044365Y-118600000D02*
X142955635Y-118600000D01*
X210000000Y-115000000D02*
X217500000Y-115000000D01*
X162500000Y-115000000D02*
X165000000Y-115000000D01*
X133500000Y-101420000D02*
X133500000Y-106265686D01*
X148095635Y-113460000D02*
X150240000Y-113460000D01*
X141400000Y-117955635D02*
X142044365Y-118600000D01*
X210000000Y-97500000D02*
X210000000Y-115000000D01*
X135000000Y-99920000D02*
X133500000Y-101420000D01*
X217500000Y-135150000D02*
X224500000Y-142150000D01*
X165000000Y-95000000D02*
X207500000Y-95000000D01*
X160960000Y-113460000D02*
X162500000Y-115000000D01*
X165000000Y-115000000D02*
X165000000Y-95000000D01*
X217500000Y-115000000D02*
X217500000Y-135150000D01*
X150240000Y-113460000D02*
X160960000Y-113460000D01*
X224500000Y-142150000D02*
X224500000Y-144500000D01*
X141400000Y-114165686D02*
X141400000Y-117955635D01*
X142955635Y-118600000D02*
X148095635Y-113460000D01*
X133500000Y-106265686D02*
X141400000Y-114165686D01*
%TO.N,Net-(R40-Pad2)*%
X134760000Y-109460000D02*
X134760000Y-113220000D01*
X134760000Y-113220000D02*
X135000000Y-113460000D01*
%TO.N,Net-(D33-K)*%
X145000000Y-97500000D02*
X145000000Y-100000000D01*
X132500000Y-110460000D02*
X131000000Y-111960000D01*
X132500000Y-93460000D02*
X132500000Y-110460000D01*
X142700000Y-100000000D02*
X142620000Y-99920000D01*
X145000000Y-100000000D02*
X142700000Y-100000000D01*
X140960000Y-93460000D02*
X145000000Y-97500000D01*
X132500000Y-93460000D02*
X140960000Y-93460000D01*
%TO.N,Net-(D33-A)*%
X130090000Y-92410000D02*
X144150000Y-92410000D01*
X145200000Y-93460000D02*
X145950000Y-94210000D01*
X144150000Y-92410000D02*
X145200000Y-93460000D01*
X150000000Y-109460000D02*
X150000000Y-105600000D01*
X130000000Y-92500000D02*
X130090000Y-92410000D01*
X145950000Y-101550000D02*
X145040000Y-102460000D01*
X145950000Y-94210000D02*
X145950000Y-101550000D01*
X150000000Y-105600000D02*
X145950000Y-101550000D01*
X145040000Y-102460000D02*
X142620000Y-102460000D01*
X131000000Y-96720000D02*
X130000000Y-95720000D01*
X130000000Y-95720000D02*
X130000000Y-92500000D01*
%TO.N,Net-(D20-K)*%
X107460000Y-98680000D02*
X99900000Y-106240000D01*
X107460000Y-98680000D02*
X108640000Y-97500000D01*
X112500000Y-97500000D02*
X112500000Y-110000000D01*
X108640000Y-97500000D02*
X112500000Y-97500000D01*
X99900000Y-106240000D02*
X97000000Y-106240000D01*
%TO.N,Net-(Q7-B)*%
X146230000Y-153995000D02*
X146675000Y-153550000D01*
X152050000Y-153550000D02*
X156500000Y-158000000D01*
X146230000Y-154600000D02*
X146230000Y-153995000D01*
X146675000Y-153550000D02*
X152050000Y-153550000D01*
%TO.N,Net-(J204-Pin_1)*%
X173026000Y-165591418D02*
X178100000Y-160517418D01*
X178100000Y-155600000D02*
X165260000Y-142760000D01*
X159059635Y-166559635D02*
X163440365Y-166559635D01*
X172446000Y-170054000D02*
X173026000Y-169474000D01*
X155540000Y-169000000D02*
X158520000Y-166020000D01*
X158520000Y-166020000D02*
X159059635Y-166559635D01*
X173026000Y-169474000D02*
X173026000Y-165591418D01*
X165260000Y-142760000D02*
X156500000Y-142760000D01*
X178100000Y-160517418D02*
X178100000Y-155600000D01*
X156500000Y-139100000D02*
X156500000Y-142760000D01*
X166934730Y-170054000D02*
X172446000Y-170054000D01*
X163440365Y-166559635D02*
X166934730Y-170054000D01*
%TO.N,Net-(J190-Pin_1)*%
X91855635Y-90644365D02*
X88300000Y-90644365D01*
X197600000Y-147500000D02*
X223450000Y-147500000D01*
X199025000Y-113525000D02*
X201193628Y-113525000D01*
X188700000Y-133800000D02*
X186300000Y-133800000D01*
X105000000Y-88295635D02*
X100795635Y-92500000D01*
X225475000Y-145475000D02*
X225475000Y-110475000D01*
X186300000Y-133800000D02*
X186300000Y-136200000D01*
X74760000Y-105000000D02*
X88300000Y-105000000D01*
X100795635Y-92500000D02*
X100000000Y-92500000D01*
X186300000Y-136200000D02*
X197600000Y-147500000D01*
X100000000Y-92500000D02*
X100000000Y-90000000D01*
X188700000Y-135634314D02*
X188700000Y-133800000D01*
X105000000Y-83905000D02*
X105000000Y-88295635D01*
X200500000Y-122000000D02*
X199025000Y-120525000D01*
X100000000Y-90000000D02*
X99900000Y-89900000D01*
X199025000Y-120525000D02*
X199025000Y-113525000D01*
X88300000Y-90644365D02*
X88300000Y-105000000D01*
X214600000Y-126931372D02*
X214600000Y-139600000D01*
X223450000Y-147500000D02*
X225475000Y-145475000D01*
X192665686Y-139600000D02*
X188700000Y-135634314D01*
X198905000Y-83905000D02*
X105000000Y-83905000D01*
X92600000Y-89900000D02*
X91855635Y-90644365D01*
X214600000Y-139600000D02*
X192665686Y-139600000D01*
X201193628Y-113525000D02*
X214600000Y-126931372D01*
X99900000Y-89900000D02*
X92600000Y-89900000D01*
X225475000Y-110475000D02*
X198905000Y-83905000D01*
%TO.N,Net-(D20-A)*%
X107460000Y-106300000D02*
X107460000Y-107431370D01*
X112955635Y-111100000D02*
X113760000Y-110295635D01*
X89500000Y-95460000D02*
X92540000Y-95460000D01*
X96604365Y-107400000D02*
X95900000Y-106695635D01*
X107460000Y-107431370D02*
X111128630Y-111100000D01*
X97000000Y-94500000D02*
X97500000Y-95000000D01*
X104920000Y-95080000D02*
X104920000Y-98680000D01*
X104840000Y-95000000D02*
X104920000Y-95080000D01*
X95900000Y-103604365D02*
X101924365Y-97580000D01*
X111128630Y-111100000D02*
X112955635Y-111100000D01*
X101924365Y-97580000D02*
X103820000Y-97580000D01*
X97500000Y-95000000D02*
X104840000Y-95000000D01*
X103820000Y-97580000D02*
X104920000Y-98680000D01*
X92540000Y-95460000D02*
X97000000Y-91000000D01*
X95900000Y-106695635D02*
X95900000Y-103604365D01*
X97000000Y-91000000D02*
X97000000Y-94500000D01*
X107460000Y-106300000D02*
X106360000Y-107400000D01*
X113760000Y-104240000D02*
X118000000Y-100000000D01*
X106360000Y-107400000D02*
X96604365Y-107400000D01*
X113760000Y-110295635D02*
X113760000Y-104240000D01*
%TO.N,Net-(D17-K)*%
X177500000Y-74000000D02*
X172500000Y-69000000D01*
X172500000Y-69000000D02*
X172500000Y-67500000D01*
X180000000Y-74000000D02*
X177500000Y-74000000D01*
%TO.N,Net-(Q16-C)*%
X178030000Y-87270000D02*
X180000000Y-89240000D01*
X174500000Y-87270000D02*
X178030000Y-87270000D01*
%TO.N,Net-(J202-Pin_1)*%
X171260000Y-73760000D02*
X175000000Y-77500000D01*
X169500000Y-73760000D02*
X171260000Y-73760000D01*
%TO.N,Net-(Q16-B)*%
X169500000Y-89000000D02*
X172500000Y-86000000D01*
X172500000Y-86000000D02*
X174500000Y-86000000D01*
%TO.N,Net-(Q15-C)*%
X159000000Y-87270000D02*
X163030000Y-87270000D01*
X163030000Y-87270000D02*
X165000000Y-89240000D01*
%TO.N,Net-(D16-K)*%
X158000000Y-70000000D02*
X158000000Y-67500000D01*
X162000000Y-74000000D02*
X158000000Y-70000000D01*
X165000000Y-74000000D02*
X162000000Y-74000000D01*
%TO.N,Net-(D15-K)*%
X146500000Y-74500000D02*
X142000000Y-70000000D01*
X142000000Y-70000000D02*
X142000000Y-67500000D01*
X149500000Y-74500000D02*
X146500000Y-74500000D01*
%TO.N,Net-(Q14-C)*%
X142360000Y-87270000D02*
X147030000Y-87270000D01*
X147030000Y-87270000D02*
X149500000Y-89740000D01*
%TO.N,Net-(Q14-B)*%
X136500000Y-89740000D02*
X140240000Y-86000000D01*
X140240000Y-86000000D02*
X142360000Y-86000000D01*
%TO.N,Net-(J200-Pin_1)*%
X136500000Y-74500000D02*
X140000000Y-74500000D01*
X140000000Y-74500000D02*
X143000000Y-77500000D01*
%TO.N,Net-(Q13-C)*%
X126000000Y-87270000D02*
X130030000Y-87270000D01*
X130030000Y-87270000D02*
X132500000Y-89740000D01*
%TO.N,Net-(D14-K)*%
X130000000Y-74500000D02*
X125500000Y-70000000D01*
X132500000Y-74500000D02*
X130000000Y-74500000D01*
X125500000Y-70000000D02*
X125500000Y-67500000D01*
%TO.N,Net-(J199-Pin_1)*%
X123260000Y-74260000D02*
X126500000Y-77500000D01*
X121000000Y-74260000D02*
X123260000Y-74260000D01*
%TO.N,Net-(Q13-B)*%
X124500000Y-86000000D02*
X126000000Y-86000000D01*
X121000000Y-89500000D02*
X124500000Y-86000000D01*
%TO.N,Net-(Q12-C)*%
X114760000Y-87500000D02*
X117000000Y-89740000D01*
X112000000Y-87500000D02*
X114760000Y-87500000D01*
%TO.N,Net-(D13-K)*%
X110000000Y-70000000D02*
X110000000Y-67500000D01*
X112500000Y-72500000D02*
X115000000Y-72500000D01*
X115000000Y-72500000D02*
X117000000Y-74500000D01*
X110000000Y-70000000D02*
X112500000Y-72500000D01*
%TO.N,Net-(J198-Pin_1)*%
X106760000Y-74260000D02*
X106000000Y-74260000D01*
X111500000Y-76500000D02*
X110000000Y-75000000D01*
X111500000Y-77500000D02*
X111500000Y-76500000D01*
X107500000Y-75000000D02*
X106760000Y-74260000D01*
X110000000Y-75000000D02*
X107500000Y-75000000D01*
%TO.N,Net-(Q12-B)*%
X106000000Y-89500000D02*
X109270000Y-86230000D01*
X109270000Y-86230000D02*
X112000000Y-86230000D01*
%TO.N,Net-(D12-K)*%
X95000000Y-70000000D02*
X97500000Y-72500000D01*
X94960000Y-69960000D02*
X94960000Y-67500000D01*
X95000000Y-70000000D02*
X94960000Y-69960000D01*
X100000000Y-72500000D02*
X102000000Y-74500000D01*
X94960000Y-70000000D02*
X95000000Y-70000000D01*
X97500000Y-72500000D02*
X100000000Y-72500000D01*
%TO.N,Net-(Q11-C)*%
X99530000Y-87270000D02*
X102000000Y-89740000D01*
X97000000Y-87270000D02*
X99530000Y-87270000D01*
%TO.N,Net-(J197-Pin_1)*%
X92260000Y-74260000D02*
X95500000Y-77500000D01*
X91000000Y-74260000D02*
X92260000Y-74260000D01*
%TO.N,Net-(Q11-B)*%
X94500000Y-86000000D02*
X97000000Y-86000000D01*
X91000000Y-89500000D02*
X94500000Y-86000000D01*
%TO.N,Net-(D11-K)*%
X79000000Y-70000000D02*
X83500000Y-74500000D01*
X83500000Y-74500000D02*
X86500000Y-74500000D01*
X79000000Y-70000000D02*
X79000000Y-67500000D01*
%TO.N,Net-(Q10-C)*%
X84030000Y-87270000D02*
X86500000Y-89740000D01*
X80860000Y-87270000D02*
X84030000Y-87270000D01*
%TO.N,Net-(J196-Pin_1)*%
X77000000Y-74500000D02*
X80000000Y-77500000D01*
X74000000Y-74500000D02*
X77000000Y-74500000D01*
%TO.N,Net-(Q10-B)*%
X79910000Y-86000000D02*
X76170000Y-89740000D01*
X80860000Y-86000000D02*
X79910000Y-86000000D01*
X76170000Y-89740000D02*
X74000000Y-89740000D01*
%TO.N,Net-(D10-K)*%
X62500000Y-72500000D02*
X63500000Y-72500000D01*
X65500000Y-74500000D02*
X69500000Y-74500000D01*
X63500000Y-72500000D02*
X65500000Y-74500000D01*
X62500000Y-70000000D02*
X62500000Y-72500000D01*
X65040000Y-69740000D02*
X64780000Y-70000000D01*
X64780000Y-70000000D02*
X62500000Y-70000000D01*
X65040000Y-66974315D02*
X65040000Y-69740000D01*
%TO.N,Net-(Q9-C)*%
X67030000Y-87270000D02*
X69500000Y-89740000D01*
X64000000Y-87270000D02*
X67030000Y-87270000D01*
%TO.N,Net-(J195-Pin_1)*%
X61500000Y-74000000D02*
X65000000Y-77500000D01*
X58000000Y-74000000D02*
X61500000Y-74000000D01*
%TO.N,Net-(Q9-B)*%
X58000000Y-89240000D02*
X58000000Y-87500000D01*
X59500000Y-87500000D02*
X58000000Y-87500000D01*
X61000000Y-86000000D02*
X64000000Y-86000000D01*
X61000000Y-86000000D02*
X59500000Y-87500000D01*
%TO.N,Net-(Q8-E)*%
X159960000Y-154600000D02*
X159960000Y-154478274D01*
X172950000Y-153550000D02*
X177000000Y-157600000D01*
X159960000Y-154478274D02*
X160888274Y-153550000D01*
X160888274Y-153550000D02*
X172950000Y-153550000D01*
%TO.N,Net-(D9-K)*%
X177000000Y-140500000D02*
X180000000Y-137500000D01*
X177000000Y-142360000D02*
X177000000Y-140500000D01*
%TO.N,Net-(J203-Pin_1)*%
X175000000Y-139980000D02*
X175000000Y-139100000D01*
X172500000Y-142480000D02*
X175000000Y-139980000D01*
%TO.N,Net-(Q8-B)*%
X161230000Y-155205000D02*
X162765000Y-156740000D01*
X161230000Y-154600000D02*
X161230000Y-155205000D01*
X162765000Y-156740000D02*
X171520000Y-156740000D01*
X171520000Y-156740000D02*
X172500000Y-157720000D01*
%TO.N,Net-(Q7-E)*%
X152555635Y-152500000D02*
X157500000Y-157444365D01*
X160000000Y-157500000D02*
X160340000Y-157840000D01*
X144960000Y-154600000D02*
X144960000Y-154100000D01*
X144960000Y-154100000D02*
X146560000Y-152500000D01*
X157500000Y-157444365D02*
X157500000Y-157500000D01*
X160340000Y-157840000D02*
X168000000Y-157840000D01*
X146560000Y-152500000D02*
X152555635Y-152500000D01*
X157500000Y-157500000D02*
X160000000Y-157500000D01*
%TO.N,Net-(D8-K)*%
X162460000Y-137500000D02*
X162900000Y-137500000D01*
X162900000Y-137500000D02*
X168000000Y-142600000D01*
%TO.N,Net-(Q15-B)*%
X157000000Y-86000000D02*
X159000000Y-86000000D01*
X153500000Y-89500000D02*
X157000000Y-86000000D01*
%TO.N,Net-(J201-Pin_1)*%
X153500000Y-74260000D02*
X155760000Y-74260000D01*
X155760000Y-74260000D02*
X159000000Y-77500000D01*
%TO.N,Net-(Q17-B)*%
X35000000Y-147500000D02*
X42500000Y-147500000D01*
X42500000Y-147330000D02*
X43770000Y-146060000D01*
X42500000Y-147500000D02*
X42500000Y-147330000D01*
X35000000Y-160240000D02*
X35000000Y-147500000D01*
%TO.N,Net-(J212-Pin_1)*%
X32660000Y-164840000D02*
X31500000Y-166000000D01*
X32660000Y-145000000D02*
X32660000Y-164840000D01*
X31500000Y-166000000D02*
X31500000Y-169100000D01*
X35000000Y-145000000D02*
X32660000Y-145000000D01*
%TO.N,Net-(D1-A)*%
X30000000Y-137500000D02*
X30000000Y-135000000D01*
X47500000Y-135000000D02*
X47500000Y-137500000D01*
X26560000Y-138700000D02*
X28800000Y-138700000D01*
X30000000Y-135000000D02*
X47500000Y-135000000D01*
X28800000Y-138700000D02*
X30000000Y-137500000D01*
X24960000Y-137100000D02*
X26560000Y-138700000D01*
%TO.N,Net-(BZ1-+)*%
X29900000Y-157600000D02*
X22000000Y-157600000D01*
X32260000Y-137500000D02*
X40820000Y-146060000D01*
X32260000Y-137500000D02*
X32260000Y-155240000D01*
X32260000Y-155240000D02*
X29900000Y-157600000D01*
X40820000Y-146060000D02*
X41230000Y-146060000D01*
%TO.N,Net-(Q1-B)*%
X52500000Y-140000000D02*
X55000000Y-140000000D01*
X55400000Y-152500000D02*
X56630000Y-153730000D01*
X57500000Y-142500000D02*
X55400000Y-144600000D01*
X55400000Y-144600000D02*
X55400000Y-152500000D01*
X56630000Y-153730000D02*
X57500000Y-153730000D01*
X55000000Y-140000000D02*
X57500000Y-142500000D01*
%TO.N,Net-(J210-Pin_1)*%
X63100000Y-127044365D02*
X63100000Y-127955635D01*
X62455635Y-126400000D02*
X63100000Y-127044365D01*
X33900000Y-148034315D02*
X34834315Y-147100000D01*
X52500000Y-164100000D02*
X57500000Y-169100000D01*
X49740000Y-161340000D02*
X34544365Y-161340000D01*
X42809600Y-144124715D02*
X49600000Y-137334315D01*
X52500000Y-155240000D02*
X52500000Y-164100000D01*
X34544365Y-161340000D02*
X33900000Y-160695635D01*
X58034314Y-126400000D02*
X62455635Y-126400000D01*
X57500000Y-169100000D02*
X49740000Y-161340000D01*
X33900000Y-160695635D02*
X33900000Y-148034315D01*
X52334315Y-137100000D02*
X52217157Y-137217158D01*
X63100000Y-127955635D02*
X53955635Y-137100000D01*
X42809600Y-146454714D02*
X42809600Y-144124715D01*
X34834315Y-147100000D02*
X42164314Y-147100000D01*
X42164314Y-147100000D02*
X42809600Y-146454714D01*
X49600000Y-134834314D02*
X58034314Y-126400000D01*
X53955635Y-137100000D02*
X52334315Y-137100000D01*
X49600000Y-137334315D02*
X49600000Y-134834314D01*
%TO.N,Net-(D2-K)*%
X66000000Y-141000000D02*
X67500000Y-142500000D01*
X72500000Y-142500000D02*
X72500000Y-140040000D01*
X66000000Y-137380000D02*
X66000000Y-141000000D01*
X67500000Y-142500000D02*
X72500000Y-142500000D01*
%TO.N,Net-(Q1-E)*%
X65840000Y-152460000D02*
X66000000Y-152620000D01*
X57500000Y-152460000D02*
X65840000Y-152460000D01*
%TO.N,Net-(J209-Pin_1)*%
X72500000Y-167500000D02*
X72500000Y-169100000D01*
X79500000Y-137500000D02*
X79500000Y-142600000D01*
X67500000Y-145000000D02*
X67500000Y-167500000D01*
X79500000Y-142600000D02*
X77100000Y-145000000D01*
X77100000Y-145000000D02*
X67500000Y-145000000D01*
X67500000Y-167500000D02*
X72500000Y-167500000D01*
%TO.N,Net-(Q2-B)*%
X72500000Y-153730000D02*
X75390000Y-153730000D01*
X75390000Y-153730000D02*
X79500000Y-157840000D01*
%TO.N,Net-(D3-K)*%
X87500000Y-142500000D02*
X90000000Y-142500000D01*
X90100000Y-142600000D02*
X91500000Y-142600000D01*
X85000000Y-140000000D02*
X87500000Y-142500000D01*
X90000000Y-142500000D02*
X90100000Y-142600000D01*
X85000000Y-137500000D02*
X85000000Y-140000000D01*
%TO.N,Net-(Q2-E)*%
X85340000Y-157840000D02*
X91500000Y-157840000D01*
X77460000Y-152460000D02*
X82500000Y-157500000D01*
X72500000Y-152460000D02*
X77460000Y-152460000D01*
X85000000Y-157500000D02*
X85340000Y-157840000D01*
X82500000Y-157500000D02*
X85000000Y-157500000D01*
%TO.N,Net-(J208-Pin_1)*%
X96955635Y-158940000D02*
X95660000Y-158940000D01*
X97600000Y-158295635D02*
X96955635Y-158940000D01*
X96500000Y-141100000D02*
X95000000Y-139600000D01*
X95660000Y-158940000D02*
X85500000Y-169100000D01*
X95000000Y-137500000D02*
X95000000Y-139600000D01*
X97600000Y-143700000D02*
X97600000Y-158295635D01*
X96500000Y-142600000D02*
X97600000Y-143700000D01*
X96500000Y-142600000D02*
X96500000Y-141100000D01*
%TO.N,Net-(Q3-B)*%
X85000000Y-153730000D02*
X92390000Y-153730000D01*
X92390000Y-153730000D02*
X96500000Y-157840000D01*
%TO.N,Net-(D4-K)*%
X107500000Y-137000000D02*
X107500000Y-134880000D01*
X107500000Y-138000000D02*
X107000000Y-137500000D01*
X107500000Y-140000000D02*
X107500000Y-138000000D01*
X100000000Y-140000000D02*
X107500000Y-140000000D01*
X99960000Y-137500000D02*
X99960000Y-139960000D01*
X99960000Y-139960000D02*
X100000000Y-140000000D01*
X107000000Y-137500000D02*
X107500000Y-137000000D01*
%TO.N,Net-(Q3-E)*%
X92500000Y-135000000D02*
X97500000Y-135000000D01*
X92500000Y-145000000D02*
X92600000Y-144900000D01*
X85000000Y-147500000D02*
X87500000Y-145000000D01*
X92600000Y-144900000D02*
X92600000Y-137600000D01*
X100000000Y-144544365D02*
X100000000Y-147500000D01*
X97500000Y-135000000D02*
X97500000Y-142044364D01*
X97727818Y-142272182D02*
X100000000Y-144544365D01*
X105000000Y-147500000D02*
X105000000Y-147620000D01*
X85000000Y-152460000D02*
X85000000Y-147500000D01*
X92500000Y-137500000D02*
X92500000Y-135000000D01*
X100000000Y-147500000D02*
X105000000Y-147500000D01*
X87500000Y-145000000D02*
X92500000Y-145000000D01*
X92600000Y-137600000D02*
X92500000Y-137500000D01*
X105000000Y-147620000D02*
X107500000Y-150120000D01*
X97500000Y-142044364D02*
X97727818Y-142272182D01*
%TO.N,Net-(Q4-E)*%
X127600000Y-157384365D02*
X127600000Y-158295635D01*
X102500000Y-152500000D02*
X107715635Y-152500000D01*
X107715635Y-152500000D02*
X108540635Y-151675000D01*
X123100000Y-158940000D02*
X122000000Y-157840000D01*
X108540635Y-151675000D02*
X121890635Y-151675000D01*
X127600000Y-158295635D02*
X126955635Y-158940000D01*
X126955635Y-158940000D02*
X123100000Y-158940000D01*
X121890635Y-151675000D02*
X127600000Y-157384365D01*
%TO.N,Net-(Q5-B)*%
X122430000Y-153770000D02*
X126500000Y-157840000D01*
X117500000Y-153770000D02*
X122430000Y-153770000D01*
%TO.N,Net-(J206-Pin_1)*%
X127000000Y-142100000D02*
X126500000Y-142600000D01*
X128400000Y-144500000D02*
X126500000Y-142600000D01*
X127000000Y-137500000D02*
X127000000Y-142100000D01*
X118094000Y-167946000D02*
X124554000Y-167946000D01*
X117040000Y-169000000D02*
X118094000Y-167946000D01*
X124554000Y-167946000D02*
X128400000Y-164100000D01*
X128400000Y-164100000D02*
X128400000Y-144500000D01*
%TO.N,Net-(Q6-B)*%
X131230000Y-154600000D02*
X131230000Y-155205000D01*
X136025000Y-160000000D02*
X141000000Y-160000000D01*
X131230000Y-155205000D02*
X136025000Y-160000000D01*
%TO.N,Net-(J205-Pin_1)*%
X129135000Y-160595000D02*
X129135000Y-154033274D01*
X137540000Y-169000000D02*
X129135000Y-160595000D01*
X141000000Y-139600000D02*
X141000000Y-144760000D01*
X129135000Y-154033274D02*
X138408274Y-144760000D01*
X138408274Y-144760000D02*
X141000000Y-144760000D01*
%TO.N,Net-(J183-Pin_1)*%
X186222500Y-102945920D02*
X186222500Y-99502943D01*
X177940686Y-97375000D02*
X180400000Y-99834314D01*
X180400000Y-99834314D02*
X180400000Y-107500000D01*
X188622500Y-99502943D02*
X188622500Y-103102943D01*
X186222500Y-105502943D02*
X186222500Y-112222500D01*
X171060000Y-98760000D02*
X173308420Y-98760000D01*
X181668420Y-107500000D02*
X186222500Y-102945920D01*
X173308420Y-98760000D02*
X173175000Y-98626580D01*
X173175000Y-98626580D02*
X173175000Y-97893420D01*
X186222500Y-112222500D02*
X188500000Y-114500000D01*
X188622500Y-103102943D02*
X186222500Y-105502943D01*
X187919557Y-98800000D02*
X188622500Y-99502943D01*
X173693420Y-97375000D02*
X177940686Y-97375000D01*
X173175000Y-97893420D02*
X173693420Y-97375000D01*
X186925443Y-98800000D02*
X187919557Y-98800000D01*
X186222500Y-99502943D02*
X186925443Y-98800000D01*
X180400000Y-107500000D02*
X181668420Y-107500000D01*
%TO.N,L3*%
X42500000Y-92500000D02*
X42500000Y-102500000D01*
X45500000Y-92500000D02*
X42500000Y-92500000D01*
X42500000Y-102500000D02*
X45000000Y-105000000D01*
%TO.N,L2*%
X42900000Y-100400000D02*
X44717157Y-102217157D01*
X47500000Y-92500000D02*
X45000000Y-95000000D01*
X49000000Y-92500000D02*
X47500000Y-92500000D01*
X42900000Y-95000000D02*
X42900000Y-100400000D01*
X45000000Y-95000000D02*
X42900000Y-95000000D01*
%TO.N,L1*%
X52500000Y-92500000D02*
X52500000Y-100000000D01*
X52500000Y-100000000D02*
X45000000Y-100000000D01*
%TO.N,L5*%
X22500000Y-92500000D02*
X22500000Y-102500000D01*
X22500000Y-102500000D02*
X37100000Y-102500000D01*
X37100000Y-102100000D02*
X35000000Y-100000000D01*
X37100000Y-102500000D02*
X37100000Y-102100000D01*
%TO.N,L6*%
X20000000Y-105000000D02*
X34434315Y-105000000D01*
X19200000Y-92440000D02*
X19200000Y-104200000D01*
X34434315Y-105000000D02*
X34717158Y-104717157D01*
X19200000Y-104200000D02*
X20000000Y-105000000D01*
%TO.N,L7*%
X35000000Y-107500000D02*
X35000000Y-105000000D01*
X16400000Y-107500000D02*
X35000000Y-107500000D01*
X15700000Y-92440000D02*
X15700000Y-106800000D01*
X15700000Y-106800000D02*
X16400000Y-107500000D01*
%TO.N,L4*%
X25700000Y-92500000D02*
X25700000Y-98200000D01*
X35000000Y-102100000D02*
X35000000Y-100565686D01*
X34717157Y-100282843D02*
X35000000Y-100565686D01*
X29600000Y-102100000D02*
X35000000Y-102100000D01*
X25700000Y-98200000D02*
X29600000Y-102100000D01*
%TO.N,Net-(J192-Pin_1)*%
X198475000Y-145975000D02*
X213625000Y-145975000D01*
X213625000Y-145975000D02*
X215000000Y-144600000D01*
X187500000Y-135000000D02*
X198475000Y-145975000D01*
%TO.N,Net-(J194-Pin_1)*%
X209600000Y-130000000D02*
X210000000Y-129600000D01*
X187500000Y-130000000D02*
X209600000Y-130000000D01*
%TO.N,Net-(J193-Pin_1)*%
X192100000Y-134600000D02*
X210000000Y-134600000D01*
X190000000Y-132500000D02*
X192100000Y-134600000D01*
X187500000Y-132500000D02*
X190000000Y-132500000D01*
%TO.N,Net-(U1-CV)*%
X105320000Y-97500000D02*
X107820000Y-95000000D01*
X106020000Y-98200000D02*
X105320000Y-97500000D01*
X102380000Y-98680000D02*
X103700000Y-100000000D01*
X105155635Y-100000000D02*
X106020000Y-99135635D01*
X103700000Y-100000000D02*
X105155635Y-100000000D01*
X106020000Y-99135635D02*
X106020000Y-98200000D01*
X107820000Y-95000000D02*
X112500000Y-95000000D01*
%TO.N,Net-(U2-TR)*%
X142500000Y-112500000D02*
X142500000Y-117500000D01*
X133900000Y-106100000D02*
X140300000Y-112500000D01*
X157500000Y-106960000D02*
X155184365Y-106960000D01*
X140300000Y-112500000D02*
X142500000Y-112500000D01*
X149644365Y-112500000D02*
X142500000Y-112500000D01*
X133900000Y-103560000D02*
X133900000Y-106100000D01*
X135000000Y-102460000D02*
X133900000Y-103560000D01*
X155184365Y-106960000D02*
X149644365Y-112500000D01*
%TO.N,Net-(U2-CV)*%
X143720000Y-104204365D02*
X143075635Y-103560000D01*
X150455635Y-110560000D02*
X149544365Y-110560000D01*
X143075635Y-103560000D02*
X141600000Y-103560000D01*
X149544365Y-110560000D02*
X143720000Y-104735635D01*
X141520000Y-103480000D02*
X141520000Y-98480000D01*
X158600000Y-101504365D02*
X158600000Y-102415635D01*
X141520000Y-98480000D02*
X142620000Y-97380000D01*
X152500000Y-97460000D02*
X154555635Y-97460000D01*
X141600000Y-103560000D02*
X141520000Y-103480000D01*
X154555635Y-97460000D02*
X158600000Y-101504365D01*
X158600000Y-102415635D02*
X150455635Y-110560000D01*
X143720000Y-104735635D02*
X143720000Y-104204365D01*
%TO.N,Net-(U2-R)*%
X142474314Y-105000000D02*
X142620000Y-105000000D01*
X135000000Y-97525686D02*
X142474314Y-105000000D01*
X135000000Y-97380000D02*
X135000000Y-97525686D01*
%TO.N,Net-(D36-K)*%
X77500000Y-120000000D02*
X90500000Y-120000000D01*
X75000000Y-132500000D02*
X75000000Y-120000000D01*
X77500000Y-107500000D02*
X70000000Y-107500000D01*
X77500000Y-120000000D02*
X77500000Y-107500000D01*
X70050000Y-107450000D02*
X70050000Y-95000000D01*
X90500000Y-120000000D02*
X92500000Y-118000000D01*
X70000000Y-107500000D02*
X70050000Y-107450000D01*
X62000000Y-132500000D02*
X75000000Y-132500000D01*
X75000000Y-120000000D02*
X77500000Y-120000000D01*
%TO.N,9V*%
X62500000Y-117500000D02*
X75000000Y-117500000D01*
X62300000Y-117700000D02*
X62500000Y-117500000D01*
X75000000Y-117500000D02*
X75000000Y-111000000D01*
X62300000Y-120000000D02*
X62300000Y-117700000D01*
%TO.N,Net-(D6-K)*%
X134540000Y-137540000D02*
X137000000Y-140000000D01*
X132500000Y-137540000D02*
X134540000Y-137540000D01*
%TD*%
M02*
