%TF.GenerationSoftware,KiCad,Pcbnew,8.0.4*%
%TF.CreationDate,2024-09-18T10:13:40+03:00*%
%TF.ProjectId,Digital Electronic Trainer main pcb,44696769-7461-46c2-9045-6c656374726f,rev?*%
%TF.SameCoordinates,Original*%
%TF.FileFunction,Plated,1,2,PTH,Mixed*%
%TF.FilePolarity,Positive*%
%FSLAX46Y46*%
G04 Gerber Fmt 4.6, Leading zero omitted, Abs format (unit mm)*
G04 Created by KiCad (PCBNEW 8.0.4) date 2024-09-18 10:13:40*
%MOMM*%
%LPD*%
G01*
G04 APERTURE LIST*
%TA.AperFunction,ViaDrill*%
%ADD10C,0.300000*%
%TD*%
%TA.AperFunction,ComponentDrill*%
%ADD11C,0.740000*%
%TD*%
%TA.AperFunction,ComponentDrill*%
%ADD12C,0.750000*%
%TD*%
%TA.AperFunction,ComponentDrill*%
%ADD13C,0.770000*%
%TD*%
%TA.AperFunction,ComponentDrill*%
%ADD14C,0.780000*%
%TD*%
%TA.AperFunction,ComponentDrill*%
%ADD15C,0.800000*%
%TD*%
%TA.AperFunction,ComponentDrill*%
%ADD16C,0.812800*%
%TD*%
%TA.AperFunction,ComponentDrill*%
%ADD17C,0.900000*%
%TD*%
%TA.AperFunction,ComponentDrill*%
%ADD18C,1.000000*%
%TD*%
%TA.AperFunction,ComponentDrill*%
%ADD19C,1.100000*%
%TD*%
%TA.AperFunction,ComponentDrill*%
%ADD20C,1.117600*%
%TD*%
%TA.AperFunction,ComponentDrill*%
%ADD21C,1.270000*%
%TD*%
G04 aperture for slot hole*
%TA.AperFunction,ComponentDrill*%
%ADD22C,1.800000*%
%TD*%
G04 APERTURE END LIST*
D10*
X45000000Y-100000000D03*
X45000000Y-100000000D03*
X45000000Y-100000000D03*
D11*
%TO.C,U14*%
X30000000Y-74920000D03*
X30000000Y-77460000D03*
X30000000Y-80000000D03*
X30000000Y-82540000D03*
X30000000Y-85080000D03*
X30000000Y-87620000D03*
X30000000Y-90160000D03*
X30000000Y-92700000D03*
X37940000Y-74920000D03*
X37940000Y-77460000D03*
X37940000Y-80000000D03*
X37940000Y-82540000D03*
X37940000Y-85080000D03*
X37940000Y-87620000D03*
X37940000Y-90160000D03*
X37940000Y-92700000D03*
%TO.C,J-K_F.F*%
X218500000Y-17960000D03*
X218500000Y-20500000D03*
X218500000Y-23040000D03*
X218500000Y-25580000D03*
X218500000Y-28120000D03*
X218500000Y-30660000D03*
X218500000Y-33200000D03*
X218500000Y-35740000D03*
X219000000Y-39460000D03*
X219000000Y-42000000D03*
X219000000Y-44540000D03*
X219000000Y-47080000D03*
X219000000Y-49620000D03*
X219000000Y-52160000D03*
X219000000Y-54700000D03*
X219000000Y-57240000D03*
X226440000Y-17960000D03*
X226440000Y-20500000D03*
X226440000Y-23040000D03*
X226440000Y-25580000D03*
X226440000Y-28120000D03*
X226440000Y-30660000D03*
X226440000Y-33200000D03*
X226440000Y-35740000D03*
X226940000Y-39460000D03*
X226940000Y-42000000D03*
X226940000Y-44540000D03*
X226940000Y-47080000D03*
X226940000Y-49620000D03*
X226940000Y-52160000D03*
X226940000Y-54700000D03*
X226940000Y-57240000D03*
D12*
%TO.C,Q1*%
X57500000Y-152460000D03*
X57500000Y-153730000D03*
X57500000Y-155000000D03*
%TO.C,Q9*%
X64000000Y-84730000D03*
X64000000Y-86000000D03*
X64000000Y-87270000D03*
%TO.C,Q2*%
X72500000Y-152460000D03*
X72500000Y-153730000D03*
X72500000Y-155000000D03*
%TO.C,Q10*%
X80860000Y-84730000D03*
X80860000Y-86000000D03*
X80860000Y-87270000D03*
%TO.C,Q3*%
X85000000Y-152460000D03*
X85000000Y-153730000D03*
X85000000Y-155000000D03*
%TO.C,Q11*%
X97000000Y-84730000D03*
X97000000Y-86000000D03*
X97000000Y-87270000D03*
%TO.C,Q4*%
X102500000Y-152500000D03*
X102500000Y-153770000D03*
X102500000Y-155040000D03*
%TO.C,Q12*%
X112000000Y-84960000D03*
X112000000Y-86230000D03*
X112000000Y-87500000D03*
%TO.C,D34*%
X115000000Y-112500000D03*
%TO.C,Q5*%
X117500000Y-152500000D03*
X117500000Y-153770000D03*
X117500000Y-155040000D03*
%TO.C,Q13*%
X126000000Y-84730000D03*
X126000000Y-86000000D03*
X126000000Y-87270000D03*
%TO.C,D34*%
X127700000Y-112500000D03*
%TO.C,Q6*%
X129960000Y-154600000D03*
X131230000Y-154600000D03*
%TO.C,D33*%
X132500000Y-93460000D03*
%TO.C,Q6*%
X132500000Y-154600000D03*
%TO.C,Q14*%
X142360000Y-84730000D03*
X142360000Y-86000000D03*
X142360000Y-87270000D03*
%TO.C,Q7*%
X144960000Y-154600000D03*
%TO.C,D33*%
X145200000Y-93460000D03*
%TO.C,Q7*%
X146230000Y-154600000D03*
X147500000Y-154600000D03*
%TO.C,Q15*%
X159000000Y-84730000D03*
X159000000Y-86000000D03*
X159000000Y-87270000D03*
%TO.C,Q8*%
X159960000Y-154600000D03*
X161230000Y-154600000D03*
X162500000Y-154600000D03*
%TO.C,Q16*%
X174500000Y-84730000D03*
X174500000Y-86000000D03*
X174500000Y-87270000D03*
D13*
%TO.C,IC1-7400*%
X28560000Y-18500000D03*
X28560000Y-21040000D03*
X28560000Y-23580000D03*
X28560000Y-26120000D03*
X28560000Y-28660000D03*
X28560000Y-31200000D03*
X28560000Y-33740000D03*
%TO.C,IC5-7404*%
X29000000Y-43000000D03*
X29000000Y-45540000D03*
X29000000Y-48080000D03*
X29000000Y-50620000D03*
X29000000Y-53160000D03*
X29000000Y-55700000D03*
X29000000Y-58240000D03*
%TO.C,IC1-7400*%
X36500000Y-18500000D03*
X36500000Y-21040000D03*
X36500000Y-23580000D03*
X36500000Y-26120000D03*
X36500000Y-28660000D03*
X36500000Y-31200000D03*
X36500000Y-33740000D03*
%TO.C,IC5-7404*%
X36940000Y-43000000D03*
X36940000Y-45540000D03*
X36940000Y-48080000D03*
X36940000Y-50620000D03*
X36940000Y-53160000D03*
X36940000Y-55700000D03*
X36940000Y-58240000D03*
%TO.C,IC2-7402*%
X72500000Y-18500000D03*
X72500000Y-21040000D03*
X72500000Y-23580000D03*
X72500000Y-26120000D03*
X72500000Y-28660000D03*
X72500000Y-31200000D03*
X72500000Y-33740000D03*
X80440000Y-18500000D03*
X80440000Y-21040000D03*
X80440000Y-23580000D03*
X80440000Y-26120000D03*
X80440000Y-28660000D03*
X80440000Y-31200000D03*
X80440000Y-33740000D03*
%TO.C,IC3-7408*%
X119390000Y-19265000D03*
X119390000Y-21805000D03*
X119390000Y-24345000D03*
X119390000Y-26885000D03*
X119390000Y-29425000D03*
X119390000Y-31965000D03*
X119390000Y-34505000D03*
X127330000Y-19265000D03*
X127330000Y-21805000D03*
X127330000Y-24345000D03*
X127330000Y-26885000D03*
X127330000Y-29425000D03*
X127330000Y-31965000D03*
X127330000Y-34505000D03*
%TO.C,IC4-7432*%
X165500000Y-19460000D03*
X165500000Y-22000000D03*
X165500000Y-24540000D03*
X165500000Y-27080000D03*
X165500000Y-29620000D03*
X165500000Y-32160000D03*
X165500000Y-34700000D03*
%TO.C,IC8-7486*%
X166000000Y-41500000D03*
X166000000Y-44040000D03*
X166000000Y-46580000D03*
X166000000Y-49120000D03*
X166000000Y-51660000D03*
X166000000Y-54200000D03*
X166000000Y-56740000D03*
%TO.C,IC4-7432*%
X173440000Y-19460000D03*
X173440000Y-22000000D03*
X173440000Y-24540000D03*
X173440000Y-27080000D03*
X173440000Y-29620000D03*
X173440000Y-32160000D03*
X173440000Y-34700000D03*
%TO.C,IC8-7486*%
X173940000Y-41500000D03*
X173940000Y-44040000D03*
X173940000Y-46580000D03*
X173940000Y-49120000D03*
X173940000Y-51660000D03*
X173940000Y-54200000D03*
X173940000Y-56740000D03*
%TO.C,U11*%
X174060000Y-98260000D03*
X174060000Y-100800000D03*
X174060000Y-103340000D03*
X174060000Y-105880000D03*
X174060000Y-108420000D03*
X174060000Y-110960000D03*
X174060000Y-113500000D03*
X182000000Y-98260000D03*
X182000000Y-100800000D03*
X182000000Y-103340000D03*
X182000000Y-105880000D03*
X182000000Y-108420000D03*
X182000000Y-110960000D03*
X182000000Y-113500000D03*
D14*
%TO.C,IC7-7495*%
X120000000Y-41460000D03*
X120000000Y-44000000D03*
X120000000Y-46540000D03*
X120000000Y-49080000D03*
X120000000Y-51620000D03*
X120000000Y-54160000D03*
X120000000Y-56700000D03*
X120000000Y-59240000D03*
X127940000Y-41460000D03*
X127940000Y-44000000D03*
X127940000Y-46540000D03*
X127940000Y-49080000D03*
X127940000Y-51620000D03*
X127940000Y-54160000D03*
X127940000Y-56700000D03*
X127940000Y-59240000D03*
D15*
%TO.C,R52*%
X15700000Y-77200000D03*
X15700000Y-92440000D03*
%TO.C,R51*%
X19200000Y-77200000D03*
X19200000Y-92440000D03*
%TO.C,J115*%
X19500000Y-18500000D03*
%TO.C,J124*%
X19500000Y-23500000D03*
%TO.C,J119*%
X19500000Y-28500000D03*
%TO.C,J128*%
X19500000Y-33500000D03*
%TO.C,J136*%
X20000000Y-45500000D03*
%TO.C,J137*%
X20000000Y-50500000D03*
%TO.C,J138*%
X20000000Y-55500000D03*
%TO.C,J211*%
X22000000Y-169100000D03*
%TO.C,R50*%
X22500000Y-77260000D03*
X22500000Y-92500000D03*
%TO.C,J117*%
X23000000Y-21000000D03*
%TO.C,J118*%
X23000000Y-26000000D03*
%TO.C,J125*%
X23000000Y-31000000D03*
%TO.C,J129*%
X23500000Y-43000000D03*
%TO.C,J130*%
X23500000Y-48000000D03*
%TO.C,J131*%
X23500000Y-53000000D03*
%TO.C,J141*%
X23500000Y-58500000D03*
%TO.C,R49*%
X25700000Y-77260000D03*
X25700000Y-92500000D03*
%TO.C,J216*%
X31500000Y-119500000D03*
%TO.C,J212*%
X31500000Y-169100000D03*
%TO.C,R2*%
X32260000Y-137500000D03*
%TO.C,R1*%
X35000000Y-145000000D03*
X35000000Y-160240000D03*
%TO.C,J215*%
X36500000Y-119500000D03*
%TO.C,J214*%
X41500000Y-119500000D03*
%TO.C,J135*%
X42000000Y-43000000D03*
%TO.C,J142*%
X42500000Y-48000000D03*
%TO.C,J123*%
X43000000Y-21000000D03*
%TO.C,J120*%
X43000000Y-31000000D03*
%TO.C,J140*%
X43000000Y-53000000D03*
%TO.C,J139*%
X43000000Y-58000000D03*
%TO.C,J127*%
X43500000Y-26000000D03*
%TO.C,R46*%
X45500000Y-77260000D03*
X45500000Y-92500000D03*
%TO.C,J134*%
X46000000Y-45500000D03*
%TO.C,J116*%
X46500000Y-18500000D03*
%TO.C,J121*%
X46500000Y-28500000D03*
%TO.C,J126*%
X46500000Y-33500000D03*
%TO.C,J133*%
X46500000Y-51000000D03*
%TO.C,J132*%
X46500000Y-55500000D03*
%TO.C,J122*%
X47000000Y-23500000D03*
%TO.C,J213*%
X47000000Y-119500000D03*
%TO.C,R2*%
X47500000Y-137500000D03*
%TO.C,R47*%
X49000000Y-77260000D03*
X49000000Y-92500000D03*
%TO.C,R48*%
X52500000Y-77260000D03*
X52500000Y-92500000D03*
%TO.C,J210*%
X52500000Y-137500000D03*
%TO.C,R3*%
X52500000Y-140000000D03*
X52500000Y-155240000D03*
%TO.C,C8*%
X57500000Y-113000000D03*
X57500000Y-115000000D03*
%TO.C,R20*%
X58000000Y-74000000D03*
X58000000Y-89240000D03*
%TO.C,J111*%
X59500000Y-44500000D03*
%TO.C,J113*%
X60000000Y-54500000D03*
%TO.C,J90*%
X60500000Y-21000000D03*
%TO.C,J91*%
X60500000Y-26000000D03*
%TO.C,J99*%
X60500000Y-31000000D03*
%TO.C,C7*%
X62000000Y-127500000D03*
X62000000Y-132500000D03*
%TO.C,J110*%
X63000000Y-42000000D03*
%TO.C,J112*%
X63000000Y-47000000D03*
%TO.C,J103*%
X63500000Y-52000000D03*
%TO.C,J114*%
X63500000Y-57000000D03*
%TO.C,J89*%
X64000000Y-18500000D03*
%TO.C,J98*%
X64000000Y-23500000D03*
%TO.C,J92*%
X64000000Y-28500000D03*
%TO.C,J102*%
X64000000Y-33500000D03*
%TO.C,J195*%
X65000000Y-77500000D03*
%TO.C,R4*%
X66000000Y-137380000D03*
X66000000Y-152620000D03*
%TO.C,R21*%
X69500000Y-74500000D03*
X69500000Y-89740000D03*
%TO.C,R22*%
X74000000Y-74500000D03*
X74000000Y-89740000D03*
%TO.C,R37*%
X74760000Y-105000000D03*
%TO.C,J209*%
X79500000Y-137500000D03*
%TO.C,R5*%
X79500000Y-142600000D03*
X79500000Y-157840000D03*
%TO.C,J196*%
X80000000Y-77500000D03*
%TO.C,R23*%
X86500000Y-74500000D03*
X86500000Y-89740000D03*
%TO.C,J107*%
X88000000Y-49500000D03*
%TO.C,J105*%
X88000000Y-54500000D03*
%TO.C,J97*%
X88500000Y-18500000D03*
%TO.C,J95*%
X88500000Y-23500000D03*
%TO.C,J94*%
X88500000Y-29000000D03*
%TO.C,J100*%
X88500000Y-34000000D03*
%TO.C,R37*%
X90000000Y-105000000D03*
%TO.C,R24*%
X91000000Y-74260000D03*
X91000000Y-89500000D03*
%TO.C,J109*%
X91500000Y-42000000D03*
%TO.C,J104*%
X91500000Y-47000000D03*
%TO.C,J108*%
X91500000Y-52000000D03*
%TO.C,J106*%
X91500000Y-57000000D03*
%TO.C,R6*%
X91500000Y-142600000D03*
X91500000Y-157840000D03*
%TO.C,J96*%
X92000000Y-21000000D03*
%TO.C,J101*%
X92000000Y-26000000D03*
%TO.C,J93*%
X92000000Y-31500000D03*
%TO.C,J208*%
X95000000Y-137500000D03*
%TO.C,J197*%
X95500000Y-77500000D03*
%TO.C,R7*%
X96500000Y-142600000D03*
X96500000Y-157840000D03*
%TO.C,R36*%
X97000000Y-91000000D03*
X97000000Y-106240000D03*
%TO.C,R38*%
X97260000Y-110000000D03*
%TO.C,R25*%
X102000000Y-74500000D03*
X102000000Y-89740000D03*
%TO.C,U1*%
X102380000Y-98680000D03*
X102380000Y-106300000D03*
X104920000Y-98680000D03*
X104920000Y-106300000D03*
%TO.C,R26*%
X106000000Y-74260000D03*
X106000000Y-89500000D03*
%TO.C,J81*%
X107000000Y-19000000D03*
%TO.C,J77*%
X107000000Y-24000000D03*
%TO.C,J84*%
X107000000Y-29500000D03*
%TO.C,J75*%
X107000000Y-34500000D03*
%TO.C,R43*%
X107000000Y-116460000D03*
X107000000Y-131700000D03*
%TO.C,U1*%
X107460000Y-98680000D03*
X107460000Y-106300000D03*
%TO.C,R8*%
X107500000Y-134880000D03*
X107500000Y-150120000D03*
%TO.C,J68*%
X108000000Y-44500000D03*
%TO.C,J70*%
X108000000Y-49000000D03*
%TO.C,J72*%
X108000000Y-54000000D03*
%TO.C,J74*%
X108000000Y-59000000D03*
%TO.C,U1*%
X110000000Y-98680000D03*
X110000000Y-106300000D03*
%TO.C,J82*%
X110500000Y-21500000D03*
%TO.C,J83*%
X110500000Y-27000000D03*
%TO.C,J78*%
X110500000Y-32000000D03*
%TO.C,J67*%
X111500000Y-41500000D03*
%TO.C,J69*%
X111500000Y-46500000D03*
%TO.C,J71*%
X111500000Y-51500000D03*
%TO.C,J198*%
X111500000Y-77500000D03*
%TO.C,R9*%
X111500000Y-142600000D03*
X111500000Y-157840000D03*
%TO.C,J66*%
X112500000Y-56500000D03*
%TO.C,C1*%
X112500000Y-95000000D03*
%TO.C,R38*%
X112500000Y-110000000D03*
%TO.C,R42*%
X112500000Y-116220000D03*
X112500000Y-131460000D03*
%TO.C,J207*%
X112500000Y-137500000D03*
%TO.C,R27*%
X117000000Y-74500000D03*
X117000000Y-89740000D03*
%TO.C,R44*%
X117260000Y-130000000D03*
%TO.C,U3*%
X117380000Y-117380000D03*
X117380000Y-125000000D03*
%TO.C,C1*%
X117500000Y-95000000D03*
%TO.C,C2*%
X118000000Y-100000000D03*
X118000000Y-105000000D03*
%TO.C,U3*%
X119920000Y-117380000D03*
X119920000Y-125000000D03*
%TO.C,R28*%
X121000000Y-74260000D03*
X121000000Y-89500000D03*
%TO.C,R10*%
X122000000Y-142600000D03*
X122000000Y-157840000D03*
%TO.C,U3*%
X122460000Y-117380000D03*
X122460000Y-125000000D03*
X125000000Y-117380000D03*
X125000000Y-125000000D03*
%TO.C,J199*%
X126500000Y-77500000D03*
%TO.C,R11*%
X126500000Y-142600000D03*
X126500000Y-157840000D03*
%TO.C,J206*%
X127000000Y-137500000D03*
%TO.C,R39*%
X131000000Y-96720000D03*
X131000000Y-111960000D03*
%TO.C,R29*%
X132500000Y-74500000D03*
X132500000Y-89740000D03*
%TO.C,R44*%
X132500000Y-130000000D03*
%TO.C,J65*%
X134000000Y-46500000D03*
%TO.C,J62*%
X134000000Y-52000000D03*
%TO.C,J64*%
X134000000Y-56500000D03*
%TO.C,R40*%
X134760000Y-109460000D03*
%TO.C,U2*%
X135000000Y-97380000D03*
X135000000Y-99920000D03*
X135000000Y-102460000D03*
X135000000Y-105000000D03*
%TO.C,R41*%
X135000000Y-113460000D03*
%TO.C,C6*%
X135000000Y-120000000D03*
X135000000Y-125000000D03*
%TO.C,J88*%
X136000000Y-22000000D03*
%TO.C,J80*%
X136000000Y-27000000D03*
%TO.C,R30*%
X136500000Y-74500000D03*
X136500000Y-89740000D03*
%TO.C,J85*%
X137000000Y-32000000D03*
%TO.C,R12*%
X137000000Y-140000000D03*
X137000000Y-155240000D03*
%TO.C,J61*%
X137500000Y-49000000D03*
%TO.C,J63*%
X137500000Y-54000000D03*
%TO.C,J73*%
X137500000Y-59000000D03*
%TO.C,J76*%
X139500000Y-19500000D03*
%TO.C,J87*%
X139500000Y-24500000D03*
%TO.C,J86*%
X140500000Y-29000000D03*
%TO.C,J79*%
X140500000Y-34500000D03*
%TO.C,J205*%
X141000000Y-139600000D03*
%TO.C,R13*%
X141000000Y-144760000D03*
X141000000Y-160000000D03*
%TO.C,C5*%
X142500000Y-117500000D03*
%TO.C,U2*%
X142620000Y-97380000D03*
X142620000Y-99920000D03*
X142620000Y-102460000D03*
X142620000Y-105000000D03*
%TO.C,J200*%
X143000000Y-77500000D03*
%TO.C,C3*%
X147500000Y-97460000D03*
%TO.C,C5*%
X147500000Y-117500000D03*
%TO.C,R31*%
X149500000Y-74500000D03*
X149500000Y-89740000D03*
%TO.C,R40*%
X150000000Y-109460000D03*
%TO.C,R41*%
X150240000Y-113460000D03*
%TO.C,C3*%
X152500000Y-97460000D03*
%TO.C,R14*%
X152500000Y-135000000D03*
X152500000Y-150240000D03*
%TO.C,R32*%
X153500000Y-74260000D03*
X153500000Y-89500000D03*
%TO.C,J40*%
X154500000Y-19500000D03*
%TO.C,J35*%
X154500000Y-24500000D03*
%TO.C,J43*%
X154500000Y-29500000D03*
%TO.C,J39*%
X154500000Y-34500000D03*
%TO.C,J53*%
X155000000Y-41500000D03*
%TO.C,J49*%
X155000000Y-46500000D03*
%TO.C,J56*%
X155000000Y-51500000D03*
%TO.C,J217*%
X155000000Y-56500000D03*
%TO.C,J204*%
X156500000Y-139100000D03*
%TO.C,R15*%
X156500000Y-142760000D03*
X156500000Y-158000000D03*
%TO.C,C4*%
X157500000Y-101960000D03*
X157500000Y-106960000D03*
%TO.C,J41*%
X158000000Y-22000000D03*
%TO.C,J42*%
X158000000Y-27000000D03*
%TO.C,J36*%
X158000000Y-32500000D03*
%TO.C,J50*%
X159000000Y-54500000D03*
%TO.C,J201*%
X159000000Y-77500000D03*
%TO.C,J54*%
X159500000Y-44000000D03*
%TO.C,J55*%
X159500000Y-49000000D03*
%TO.C,R33*%
X165000000Y-74000000D03*
X165000000Y-89240000D03*
%TO.C,R16*%
X168000000Y-142600000D03*
X168000000Y-157840000D03*
%TO.C,R34*%
X169500000Y-73760000D03*
X169500000Y-89000000D03*
%TO.C,R45*%
X171060000Y-98760000D03*
X171060000Y-114000000D03*
%TO.C,R17*%
X172500000Y-142480000D03*
X172500000Y-157720000D03*
%TO.C,J202*%
X175000000Y-77500000D03*
%TO.C,J203*%
X175000000Y-139100000D03*
%TO.C,R18*%
X177000000Y-142360000D03*
X177000000Y-157600000D03*
%TO.C,R35*%
X180000000Y-74000000D03*
X180000000Y-89240000D03*
%TO.C,J34*%
X181000000Y-19500000D03*
%TO.C,J46*%
X181500000Y-24500000D03*
%TO.C,J45*%
X181500000Y-29500000D03*
%TO.C,J37*%
X181500000Y-34500000D03*
%TO.C,J60*%
X183000000Y-44000000D03*
%TO.C,J52*%
X183000000Y-49000000D03*
%TO.C,J57*%
X183000000Y-54000000D03*
%TO.C,J47*%
X185000000Y-22000000D03*
%TO.C,J38*%
X185000000Y-27000000D03*
%TO.C,J44*%
X185000000Y-32000000D03*
%TO.C,J48*%
X186500000Y-41500000D03*
%TO.C,J59*%
X186500000Y-46500000D03*
%TO.C,J58*%
X186500000Y-51500000D03*
%TO.C,J51*%
X186500000Y-56500000D03*
%TO.C,J183*%
X188500000Y-114500000D03*
%TO.C,J184*%
X188500000Y-122000000D03*
%TO.C,J185*%
X194500000Y-122000000D03*
%TO.C,J186*%
X195000000Y-114500000D03*
%TO.C,J187*%
X200000000Y-114500000D03*
%TO.C,J190*%
X200500000Y-122000000D03*
%TO.C,J188*%
X202500000Y-145000000D03*
%TO.C,J12*%
X205000000Y-20500000D03*
%TO.C,J14*%
X205000000Y-25500000D03*
%TO.C,J16*%
X205000000Y-30500000D03*
%TO.C,J10*%
X205000000Y-35500000D03*
%TO.C,J28*%
X206500000Y-39500000D03*
%TO.C,J30*%
X206500000Y-44500000D03*
%TO.C,J32*%
X206500000Y-49500000D03*
%TO.C,J27*%
X206500000Y-54500000D03*
%TO.C,J191*%
X207500000Y-122500000D03*
%TO.C,J11*%
X208500000Y-18000000D03*
%TO.C,J13*%
X208500000Y-23000000D03*
%TO.C,J15*%
X208500000Y-28000000D03*
%TO.C,J17*%
X209000000Y-33000000D03*
%TO.C,J29*%
X210000000Y-42000000D03*
%TO.C,J31*%
X210000000Y-47000000D03*
%TO.C,J33*%
X210000000Y-52000000D03*
%TO.C,J26*%
X210000000Y-57000000D03*
%TO.C,J194*%
X210000000Y-129600000D03*
%TO.C,J193*%
X210000000Y-134600000D03*
%TO.C,J192*%
X215000000Y-144600000D03*
%TO.C,J143*%
X224500000Y-86000000D03*
%TO.C,J145*%
X224500000Y-91000000D03*
%TO.C,J147*%
X224500000Y-96000000D03*
%TO.C,J149*%
X224500000Y-101000000D03*
%TO.C,J151*%
X224500000Y-106500000D03*
%TO.C,J153*%
X224500000Y-111500000D03*
%TO.C,J155*%
X224500000Y-116500000D03*
%TO.C,J157*%
X224500000Y-121500000D03*
%TO.C,J159*%
X224500000Y-126500000D03*
%TO.C,J161*%
X224500000Y-131500000D03*
%TO.C,J189*%
X224500000Y-144500000D03*
%TO.C,J162*%
X228000000Y-134000000D03*
%TO.C,J144*%
X228500000Y-88500000D03*
%TO.C,J146*%
X228500000Y-93500000D03*
%TO.C,J148*%
X228500000Y-98500000D03*
%TO.C,J150*%
X228500000Y-104000000D03*
%TO.C,J152*%
X228500000Y-109000000D03*
%TO.C,J154*%
X228500000Y-114000000D03*
%TO.C,J156*%
X228500000Y-119000000D03*
%TO.C,J158*%
X228500000Y-124000000D03*
%TO.C,J160*%
X228500000Y-129000000D03*
%TO.C,J2*%
X234500000Y-18000000D03*
%TO.C,J4*%
X234500000Y-23000000D03*
%TO.C,J6*%
X234500000Y-28000000D03*
%TO.C,J8*%
X234500000Y-33000000D03*
%TO.C,J18*%
X234500000Y-39500000D03*
%TO.C,J20*%
X234500000Y-44500000D03*
%TO.C,J22*%
X234500000Y-49500000D03*
%TO.C,J24*%
X234500000Y-54500000D03*
%TO.C,J3*%
X238000000Y-20500000D03*
%TO.C,J5*%
X238000000Y-25500000D03*
%TO.C,J7*%
X238000000Y-30500000D03*
%TO.C,J9*%
X238000000Y-35500000D03*
%TO.C,J19*%
X238500000Y-42000000D03*
%TO.C,J21*%
X239000000Y-46500000D03*
%TO.C,J23*%
X239000000Y-52000000D03*
%TO.C,J25*%
X239000000Y-57000000D03*
%TO.C,J164*%
X270000000Y-88500000D03*
%TO.C,J166*%
X270000000Y-93500000D03*
%TO.C,J168*%
X270000000Y-98500000D03*
%TO.C,J170*%
X270000000Y-104000000D03*
%TO.C,J172*%
X270000000Y-109000000D03*
%TO.C,J174*%
X270000000Y-114000000D03*
%TO.C,J176*%
X270000000Y-119000000D03*
%TO.C,J178*%
X270000000Y-124000000D03*
%TO.C,J180*%
X270000000Y-129000000D03*
%TO.C,J182*%
X270000000Y-134000000D03*
%TO.C,J163*%
X274000000Y-86000000D03*
%TO.C,J165*%
X274000000Y-91000000D03*
%TO.C,J167*%
X274000000Y-96000000D03*
%TO.C,J169*%
X274000000Y-101000000D03*
%TO.C,J171*%
X274000000Y-106500000D03*
%TO.C,J173*%
X274000000Y-111500000D03*
%TO.C,J175*%
X274000000Y-116500000D03*
%TO.C,J177*%
X274000000Y-121500000D03*
%TO.C,J179*%
X274000000Y-126500000D03*
%TO.C,J181*%
X274000000Y-131500000D03*
D16*
%TO.C,Q17*%
X41230000Y-146060000D03*
X43770000Y-146060000D03*
X43770000Y-148600000D03*
D17*
%TO.C,D1*%
X24960000Y-137100000D03*
X27500000Y-137100000D03*
%TO.C,D35*%
X62300000Y-111000000D03*
%TO.C,D36*%
X62300000Y-120000000D03*
%TO.C,D10*%
X64960000Y-67500000D03*
X67500000Y-67500000D03*
%TO.C,D2*%
X72500000Y-137500000D03*
X72500000Y-140040000D03*
%TO.C,D35*%
X75000000Y-111000000D03*
%TO.C,D36*%
X75000000Y-120000000D03*
%TO.C,D11*%
X79000000Y-67500000D03*
%TO.C,D37*%
X79800000Y-111000000D03*
%TO.C,D38*%
X79800000Y-118000000D03*
%TO.C,D11*%
X81540000Y-67500000D03*
%TO.C,D3*%
X85000000Y-137500000D03*
X87540000Y-137500000D03*
%TO.C,D20*%
X89500000Y-95460000D03*
X89500000Y-98000000D03*
%TO.C,D37*%
X92500000Y-111000000D03*
%TO.C,D38*%
X92500000Y-118000000D03*
%TO.C,D12*%
X94960000Y-67500000D03*
X97500000Y-67500000D03*
%TO.C,D4*%
X99960000Y-137500000D03*
X102500000Y-137500000D03*
%TO.C,D13*%
X110000000Y-67500000D03*
X112540000Y-67500000D03*
%TO.C,D5*%
X117500000Y-137500000D03*
X120040000Y-137500000D03*
%TO.C,D14*%
X125500000Y-67500000D03*
X128040000Y-67500000D03*
%TO.C,D6*%
X132500000Y-135000000D03*
X132500000Y-137540000D03*
%TO.C,D15*%
X142000000Y-67500000D03*
X144540000Y-67500000D03*
%TO.C,D7*%
X145000000Y-137500000D03*
X147540000Y-137500000D03*
%TO.C,D16*%
X158000000Y-67500000D03*
X160540000Y-67500000D03*
%TO.C,D8*%
X162460000Y-137500000D03*
X165000000Y-137500000D03*
%TO.C,D17*%
X172500000Y-67500000D03*
X175040000Y-67500000D03*
%TO.C,D9*%
X180000000Y-137500000D03*
X182540000Y-137500000D03*
%TO.C,SW14*%
X187422500Y-100000000D03*
X187422500Y-106000000D03*
X192422500Y-100000000D03*
X192422500Y-106000000D03*
D18*
%TO.C,BZ1*%
X22000000Y-147600000D03*
X22000000Y-157600000D03*
%TO.C,SW1*%
X54960000Y-169100000D03*
X57500000Y-169100000D03*
X60040000Y-169100000D03*
%TO.C,SW2*%
X69960000Y-169100000D03*
X72500000Y-169100000D03*
X75040000Y-169100000D03*
%TO.C,SW3*%
X82960000Y-169100000D03*
X85500000Y-169100000D03*
X88040000Y-169100000D03*
%TO.C,SW4*%
X97500000Y-169100000D03*
X100040000Y-169100000D03*
X102580000Y-169100000D03*
%TO.C,SW5*%
X114500000Y-169000000D03*
X117040000Y-169000000D03*
X119580000Y-169000000D03*
%TO.C,SW6*%
X135000000Y-169000000D03*
X137540000Y-169000000D03*
X140080000Y-169000000D03*
%TO.C,SW7*%
X153000000Y-169000000D03*
X155540000Y-169000000D03*
X158080000Y-169000000D03*
%TO.C,SW8*%
X169000000Y-169000000D03*
X171540000Y-169000000D03*
X174080000Y-169000000D03*
%TO.C,RV1*%
X186450000Y-152500000D03*
X186450000Y-155000000D03*
X186450000Y-157500000D03*
%TO.C,RV2*%
X187500000Y-130000000D03*
X187500000Y-132500000D03*
X187500000Y-135000000D03*
%TO.C,J1*%
X243000000Y-86000000D03*
X243000000Y-88540000D03*
X243000000Y-91080000D03*
X243000000Y-93620000D03*
X243000000Y-96160000D03*
X243000000Y-98700000D03*
X243000000Y-101240000D03*
X243000000Y-103780000D03*
X243000000Y-106320000D03*
X243000000Y-108860000D03*
X243000000Y-111400000D03*
X243000000Y-113940000D03*
X243000000Y-116480000D03*
X243000000Y-119020000D03*
X243000000Y-121560000D03*
X243000000Y-124100000D03*
X243000000Y-126640000D03*
X243000000Y-129180000D03*
X243000000Y-131720000D03*
X243000000Y-134260000D03*
X258240000Y-86000000D03*
X258240000Y-88540000D03*
X258240000Y-91080000D03*
X258240000Y-93620000D03*
X258240000Y-96160000D03*
X258240000Y-98700000D03*
X258240000Y-101240000D03*
X258240000Y-103780000D03*
X258240000Y-106320000D03*
X258240000Y-108860000D03*
X258240000Y-111400000D03*
X258240000Y-113940000D03*
X258240000Y-116480000D03*
X258240000Y-119020000D03*
X258240000Y-121560000D03*
X258240000Y-124100000D03*
X258240000Y-126640000D03*
X258240000Y-129180000D03*
X258240000Y-131720000D03*
X258240000Y-134260000D03*
D19*
%TO.C,SW16*%
X247500000Y-153000000D03*
X247500000Y-158000000D03*
X252500000Y-153000000D03*
X252500000Y-158000000D03*
D20*
%TO.C,IC6-7490*%
X72380000Y-41960000D03*
X72380000Y-44500000D03*
X72380000Y-47040000D03*
X72380000Y-49580000D03*
X72380000Y-52120000D03*
X72380000Y-54660000D03*
X72380000Y-57200000D03*
X80000000Y-41960000D03*
X80000000Y-44500000D03*
X80000000Y-47040000D03*
X80000000Y-49580000D03*
X80000000Y-52120000D03*
X80000000Y-54660000D03*
X80000000Y-57200000D03*
D21*
%TO.C,U4*%
X64950000Y-95000000D03*
X67500000Y-95000000D03*
X70050000Y-95000000D03*
D22*
%TO.C,RV1*%
X193600000Y-150600000D02*
X193300000Y-150600000D01*
X193600000Y-159400000D02*
X193300000Y-159400000D01*
%TO.C,RV2*%
X194650000Y-128100000D02*
X194350000Y-128100000D01*
X194650000Y-136900000D02*
X194350000Y-136900000D01*
M02*
